<!-- Generator: Adobe Illustrator 22.0.0, SVG Export Plug-In  -->
<svg version="1.1"
	 xmlns="http://www.w3.org/2000/svg" xmlns:xlink="http://www.w3.org/1999/xlink" xmlns:a="http://ns.adobe.com/AdobeSVGViewerExtensions/3.0/"
	 x="0px" y="0px" width="590.886px" height="187.387px" viewBox="0 0 590.886 187.387"
	 style="enable-background:new 0 0 590.886 187.387;" xml:space="preserve">
<style type="text/css">
	.st0{fill:#5BADD5;}
	.st1{clip-path:url(#SVGID_2_);fill:#478CB6;}
	.st2{clip-path:url(#SVGID_4_);fill:#478CB6;}
</style>
<defs>
</defs>
<g>
	<polygon class="st0" points="259.623,76.887 268.612,76.887 268.612,65.887 259.623,65.887 259.623,61.887 268.612,61.887 
		268.612,50.887 259.623,50.887 259.623,44.688 255.859,44.688 255.859,28.387 248.58,30.957 247.779,19.054 246.939,31.535 
		238.859,34.387 238.859,44.688 234.751,44.688 234.751,50.887 225.222,50.887 225.222,61.887 234.751,61.887 234.751,65.887 
		225.222,65.887 225.222,76.887 234.751,76.887 234.751,144.481 229.978,144.481 229.978,83.926 201.267,112.637 201.267,119.637 
		195.686,119.637 195.686,73.887 191.109,73.887 191.109,58.387 164.609,58.387 164.609,74.137 158.109,74.137 158.109,119.637 
		149.879,119.637 149.879,38.202 103.609,56.637 103.609,104.387 88.077,104.387 88.077,94.387 99.616,94.387 65.718,71.054 
		31.82,94.387 43.359,94.387 43.359,125.054 31.82,125.054 31.82,94.387 31.82,63.054 0,63.054 0,187.054 31.82,187.054 
		43.359,187.054 43.359,187.354 88.077,187.354 88.077,187.332 264.118,187.332 264.118,144.481 259.623,144.481 	"/>
	<polygon class="st0" points="481.718,0 481.718,19.054 468.359,19.054 468.359,103.193 461.359,103.193 461.359,64.387 
		417.591,64.387 417.591,101.608 410.187,101.608 410.187,82.887 394.359,82.887 394.359,101.608 385.15,101.608 385.15,44.688 
		379.776,44.688 379.776,36.637 364.026,36.637 364.026,44.688 358.659,44.688 358.659,84.887 350.983,84.887 350.983,44.688 
		345.609,44.688 345.609,36.637 329.859,36.637 329.859,44.688 324.492,44.688 324.492,130.887 314.07,130.887 314.07,115.235 
		310.393,115.235 310.393,98.158 303.427,98.158 303.427,81.081 278.012,90.84 278.012,98.158 271.046,98.158 271.046,115.235 
		267.369,115.235 267.369,187.354 314.07,187.354 314.07,187.332 324.492,187.332 324.492,187.354 350.983,187.354 350.983,90.637 
		358.659,90.637 358.659,187.354 385.15,187.354 385.15,174.387 456.29,174.387 456.29,187.354 500,187.354 500,0 	"/>
</g>
<g>
	<defs>
		<rect id="SVGID_1_" y="101.608" width="500" height="85.746"/>
	</defs>
	<clipPath id="SVGID_2_">
		<use xlink:href="#SVGID_1_"  style="overflow:visible;"/>
	</clipPath>
	<polygon class="st1" points="569.405,147.38 569.405,161.557 558.856,165.048 558.856,153.932 550.825,153.932 550.825,167.706 
		537.957,171.965 537.957,142.603 529.199,142.603 529.199,153.932 522.172,153.932 522.172,128.67 517.057,128.67 517.057,120.509 
		508.896,120.509 508.896,116.628 506.508,116.628 506.508,120.509 498.347,120.509 498.347,128.67 493.112,128.67 493.112,161.906 
		465.89,150.963 437.439,163.033 437.439,143.797 434.33,143.797 434.33,137.509 420.413,137.509 420.413,124.074 417.427,124.074 
		417.427,137.509 404.126,137.509 404.126,143.797 401.383,143.797 401.383,157.232 380.614,157.232 380.614,152.157 
		370.164,152.157 370.164,165.576 360.61,165.576 360.61,157.232 353.944,157.232 353.944,143.797 330.009,156.992 330.009,169.42 
		324.199,169.42 324.199,143.797 300.264,156.992 300.264,170.098 298.563,171.07 298.563,147.38 277.082,147.38 277.082,161.557 
		266.533,165.048 266.533,153.932 258.502,153.932 258.502,167.706 245.634,171.965 245.634,142.603 236.876,142.603 
		236.876,153.932 229.85,153.932 229.85,128.67 224.734,128.67 224.734,120.509 216.573,120.509 216.573,116.628 214.185,116.628 
		214.185,120.509 206.024,120.509 206.024,128.67 200.789,128.67 200.789,161.906 173.567,150.963 145.117,163.033 145.117,143.797 
		142.007,143.797 142.007,120.509 128.09,120.509 128.09,107.074 125.104,107.074 125.104,120.509 111.803,120.509 111.803,143.797 
		109.06,143.797 109.06,157.232 88.291,157.232 88.291,152.157 77.841,152.157 77.841,165.576 68.287,165.576 68.287,157.232 
		61.621,157.232 61.621,143.797 37.686,156.992 37.686,169.42 31.876,169.42 31.876,143.797 7.941,156.992 7.941,170.098 0,174.636 
		0,187.354 7.941,187.354 31.876,187.354 31.876,174.636 37.686,174.636 37.686,187.354 58.733,187.354 61.621,187.354 
		144.48,187.354 145.117,187.354 200.789,187.354 204.265,187.354 228.118,187.354 229.85,187.354 236.876,187.354 239.922,187.354 
		245.634,187.354 258.502,187.354 258.502,187.387 266.533,187.387 266.533,187.354 277.082,187.354 292.323,187.354 
		298.563,187.354 300.264,187.354 324.199,187.354 324.199,174.636 330.009,174.636 330.009,187.354 351.056,187.354 
		353.944,187.354 436.803,187.354 437.439,187.354 493.112,187.354 496.588,187.354 520.441,187.354 522.172,187.354 
		529.199,187.354 532.245,187.354 537.957,187.354 550.825,187.354 550.825,187.387 558.856,187.387 558.856,187.354 
		569.405,187.354 590.886,187.354 590.886,147.38 	"/>
</g>
</svg>