<!-- Generator: Adobe Illustrator 22.0.0, SVG Export Plug-In  -->
<svg version="1.1"
	 xmlns="http://www.w3.org/2000/svg" xmlns:xlink="http://www.w3.org/1999/xlink" xmlns:a="http://ns.adobe.com/AdobeSVGViewerExtensions/3.0/"
	 x="0px" y="0px" width="485.538px" height="500px" viewBox="0 0 485.538 500" style="enable-background:new 0 0 485.538 500;"
	 xml:space="preserve">
<style type="text/css">
	.st0{fill:#191949;}
	.st1{fill:#454587;}
	.st2{fill:#8787C6;}
	.st3{fill:#313166;}
	.st4{fill:none;stroke:#D37199;stroke-miterlimit:10;}
	.st5{fill:#FFE9F2;}
	.st6{fill:#7D7DB5;}
	.st7{fill:#F9AFD4;stroke:#D37199;stroke-miterlimit:10;}
	.st8{fill:#D37199;}
	.st9{fill:url(#SHADOW_4_);}
	.st10{fill:#BC4B7F;}
	.st11{fill:#F9AFD4;}
	.st12{fill:#F9B175;}
	.st13{fill:#F7D0E9;}
	.st14{fill:url(#SHADOW_5_);}
</style>
<defs>
</defs>
<g id="CARD_5_1_">
	<polygon class="st0" points="405.028,241.899 326.401,196.503 361.68,176.135 440.307,221.53 	"/>
	<path class="st1" d="M373.724,199.939c0.623-0.356,1.243-0.71,1.87-1.068c1.534-0.877,2.242-1.932,2.065-3.176
		c-0.103-0.727-0.58-1.368-1.344-1.952c-0.13-0.099-0.275-0.191-0.426-0.278c-0.149-0.086-0.298-0.172-0.447-0.258
		c-0.142-0.082-0.291-0.161-0.456-0.229c-2.267-0.936-4.648-1.049-7.15-0.361c-0.681,0.188-1.252,0.463-1.782,0.772
		c-0.616,0.36-1.217,0.711-1.824,1.065c-1.37-0.731-3.502-0.719-4.833,0.05l-7.859,4.537c-1.364,0.787-1.364,2.064,0,2.852
		l9.26,5.346c1.364,0.787,3.575,0.787,4.939,0l7.859-4.537C374.912,201.941,374.946,200.731,373.724,199.939z M372.218,194.667
		c1.035,0.313,1.595,0.97,1.403,1.645c-0.085,0.299-0.296,0.571-0.67,0.785c-0.696,0.399-1.387,0.787-2.08,1.179l-3.774-2.179
		c0.658-0.387,1.307-0.773,1.98-1.155C369.936,194.452,371.179,194.352,372.218,194.667z M362.747,201.954l-2.658,1.535
		c-0.544,0.314-1.426,0.319-1.97,0.005c-0.544-0.314-0.536-0.823,0.008-1.137l2.658-1.535c-0.384-0.641-0.152-1.372,0.713-1.872
		c1.221-0.705,3.18-0.717,4.401-0.012c1.221,0.705,1.245,1.862,0.024,2.567C365.057,202.004,363.764,202.122,362.747,201.954z"/>
	<polygon class="st2" points="405.028,245.172 405.028,241.899 326.41,196.509 326.41,199.782 	"/>
	<polygon class="st1" points="440.307,224.804 440.307,221.53 405.028,241.899 405.028,245.172 	"/>
</g>
<g id="CARD_4_1_">
	<polygon class="st0" points="450.259,216.018 371.632,170.623 406.911,150.254 485.538,195.65 	"/>
	<path class="st1" d="M428.15,177.248c1.528-0.874,2.233-1.924,2.057-3.164c-0.103-0.724-0.578-1.363-1.339-1.945
		c-0.13-0.099-0.274-0.19-0.425-0.277c-0.148-0.086-0.297-0.171-0.445-0.257c-0.142-0.082-0.29-0.161-0.454-0.228
		c-2.258-0.932-4.631-1.045-7.123-0.359c-0.678,0.187-1.247,0.461-1.775,0.77c-0.61,0.356-1.206,0.704-1.807,1.055l-7.299-4.214
		c-1.359-0.784-3.561-0.784-4.92,0l-7.829,4.52c-1.359,0.784-1.358,2.056,0,2.841l9.225,5.326c1.359,0.784,3.562,0.784,4.92,0
		l7.829-4.52c1.032-0.596,1.276-1.473,0.739-2.204c0.717-0.422,1.421-0.841,2.153-1.257c0.857-0.487,2.095-0.587,3.13-0.273
		c1.031,0.312,1.589,0.966,1.397,1.638c-0.085,0.298-0.295,0.568-0.668,0.783c-0.957,0.549-1.896,1.075-2.86,1.621
		c-0.018,0.01,0.004,0.002,0,0l2.832,1.675c-0.003-0.002-0.046,0.026,0,0C426.345,178.287,427.294,177.738,428.15,177.248z
		 M407.957,176.05l-2.648,1.529c-0.542,0.313-1.421,0.318-1.963,0.005c-0.542-0.313-0.534-0.82,0.008-1.133l2.648-1.529
		c-0.383-0.639-0.152-1.367,0.71-1.865c1.216-0.702,3.168-0.715,4.384-0.012c1.216,0.702,1.24,1.855,0.024,2.557
		C410.259,176.099,408.97,176.217,407.957,176.05z"/>
	<polygon class="st2" points="450.259,219.292 450.259,216.018 371.642,170.628 371.642,173.902 	"/>
	<polygon class="st1" points="485.538,198.923 485.538,195.65 450.259,216.018 450.259,219.292 	"/>
</g>
<g id="TABLET_1_">
	<path class="st0" d="M187.774,98.121l206.289,325.357l4.422-2.524c0.244-0.139,0.474-0.306,0.689-0.499
		c1.237-1.109,1.991-3.091,1.991-5.744V224.036c0-5.675-3.451-12.268-7.707-14.725L197.223,96.013
		c-1.92-1.109-3.677-1.186-5.026-0.416L187.774,98.121z"/>
	<path class="st3" d="M394.753,422.979c-0.216,0.193-0.446,0.36-0.69,0.499c-1.349,0.77-3.106,0.693-5.026-0.416L192.801,309.764
		c-4.256-2.457-7.707-9.05-7.707-14.725V104.363c0-2.652,0.754-4.635,1.991-5.744c0.216-0.193,0.446-0.36,0.689-0.499
		c1.349-0.77,3.106-0.693,5.026,0.416l196.237,113.297c4.256,2.457,7.707,9.05,7.707,14.725v190.675
		C396.744,419.888,395.991,421.87,394.753,422.979z"/>
	<path class="st4" d="M394.064,423.478c-1.349,0.77-3.106,0.693-5.026-0.416L192.801,309.764c-4.256-2.457-7.707-9.05-7.707-14.725
		V106.374"/>
	<path class="st5" d="M192.991,291.087V117.435c0-3.661,2.226-5.343,4.971-3.758l185.913,107.337
		c2.745,1.585,4.971,5.837,4.971,9.498v173.652c0,3.66-2.225,5.343-4.971,3.758L197.962,300.585
		C195.217,299,192.991,294.747,192.991,291.087z"/>
	<g>
		<path class="st0" d="M294.688,358.139l-7.538-4.352c-1.147-0.662-2.077,0.041-2.077,1.57v3.374c0,1.53,0.93,3.307,2.077,3.969
			l7.538,4.352c1.147,0.662,2.077-0.041,2.077-1.57v-3.374C296.765,360.578,295.835,358.801,294.688,358.139z"/>
		<path class="st3" d="M293.102,361.679c0-1.856-0.977-3.924-2.182-4.62c-1.205-0.696-2.182,0.244-2.182,2.1
			c0,1.856,0.977,3.924,2.182,4.62C292.124,364.475,293.102,363.535,293.102,361.679z"/>
	</g>
	<g>
		<path class="st6" d="M381.033,213.435c0-1.231-0.648-2.604-1.448-3.065c-0.8-0.462-1.448,0.162-1.448,1.393
			s0.648,2.604,1.448,3.065C380.385,215.29,381.033,214.667,381.033,213.435z"/>
		<path class="st6" d="M375.555,210.273c0-1.231-0.648-2.604-1.448-3.065c-0.8-0.462-1.448,0.162-1.448,1.393
			c0,1.231,0.648,2.604,1.448,3.065C374.906,212.127,375.555,211.504,375.555,210.273z"/>
		<path class="st6" d="M370.076,207.11c0-1.231-0.648-2.604-1.448-3.065c-0.8-0.462-1.448,0.162-1.448,1.393
			s0.648,2.604,1.448,3.065C369.428,208.965,370.076,208.341,370.076,207.11z"/>
	</g>
	<g>
		<g>
			<polygon class="st4" points="324.408,365.481 324.408,194.786 383.582,228.95 383.582,399.646 			"/>
			<line class="st4" x1="378.373" y1="252.75" x2="329.673" y2="224.633"/>
			<polygon class="st7" points="329.673,216.527 329.673,205.933 378.316,234.017 378.316,244.611 			"/>
			<line class="st4" x1="378.373" y1="260.528" x2="329.673" y2="232.411"/>
			<line class="st4" x1="378.373" y1="268.306" x2="329.673" y2="240.189"/>
			<line class="st4" x1="378.373" y1="276.084" x2="329.673" y2="247.967"/>
			<line class="st4" x1="378.373" y1="283.862" x2="329.673" y2="255.745"/>
			<line class="st4" x1="378.373" y1="291.64" x2="329.673" y2="263.523"/>
			<line class="st4" x1="378.373" y1="299.418" x2="329.673" y2="271.301"/>
			<polygon class="st7" points="329.673,360.415 329.673,286.759 378.316,314.843 378.316,388.499 			"/>
		</g>
	</g>
	<g>
		<polygon class="st4" points="218.128,304.121 218.128,133.426 319.142,191.746 319.142,362.442 		"/>
		<polygon class="st7" points="222.528,258.714 222.528,194.542 314.743,247.782 314.743,311.954 		"/>
		<polygon class="st7" points="258.699,300.124 313.877,331.98 313.877,319.665 258.699,287.809 		"/>
		<polygon class="st7" points="258.699,319.052 313.877,350.909 313.877,338.594 258.699,306.737 		"/>
	</g>
	<g>
		<polygon class="st4" points="319.142,242.216 218.128,183.895 218.128,133.426 319.142,191.746 		"/>
		<g>
			<path class="st7" d="M237.134,169.634c0-6.21-3.27-13.132-7.303-15.46c-4.033-2.329-7.303,0.818-7.303,7.027
				c0,6.21,3.27,13.132,7.303,15.46C233.864,178.99,237.134,175.843,237.134,169.634z"/>
			
				<ellipse transform="matrix(0.956 -0.2934 0.2934 0.956 -41.044 81.3902)" class="st7" cx="250.74" cy="177.489" rx="6.624" ry="12.396"/>
			
				<ellipse transform="matrix(0.956 -0.2934 0.2934 0.956 -48.0448 99.1914)" class="st7" cx="306.574" cy="209.725" rx="6.624" ry="12.396"/>
		</g>
	</g>
	<g>
		<g>
			<g>
				<path class="st4" d="M294.688,358.139l-7.538-4.352c-1.147-0.662-2.077,0.041-2.077,1.57v3.374c0,1.53,0.93,3.307,2.077,3.969
					l7.538,4.352c1.147,0.662,2.077-0.041,2.077-1.57v-3.374C296.765,360.578,295.835,358.801,294.688,358.139z"/>
			</g>
			<g>
				<path class="st4" d="M293.102,361.679c0-1.856-0.977-3.924-2.182-4.62c-1.205-0.696-2.182,0.244-2.182,2.1
					c0,1.856,0.977,3.924,2.182,4.62C292.124,364.475,293.102,363.535,293.102,361.679z"/>
			</g>
		</g>
	</g>
	<polygon class="st8" points="206.386,169.253 203.551,167.616 203.541,126.885 206.376,128.521 	"/>
</g>
<linearGradient id="SHADOW_4_" gradientUnits="userSpaceOnUse" x1="-21.3599" y1="478.6401" x2="270.4898" y2="186.7903">
	<stop  offset="0.1408" style="stop-color:#FE6697"/>
	<stop  offset="0.3678" style="stop-color:#FE72A0"/>
	<stop  offset="0.7821" style="stop-color:#FE93B6"/>
	<stop  offset="0.8447" style="stop-color:#FE99BA"/>
</linearGradient>
<path id="SHADOW_1_" class="st9" d="M388.847,404.164c0,3.66-2.226,5.343-4.971,3.758L197.962,300.585
	c-2.745-1.585-4.971-5.837-4.971-9.498v-3.178l-0.169-0.1l0.169-7.195V117.435c0-3.185,1.686-4.87,3.932-4.211v0L0,0v500h414.56
	C412.56,486,388.847,404.164,388.847,404.164z"/>
<g id="CARD_3_1_">
	<polygon class="st8" points="169.135,190.856 90.508,236.252 90.508,195.515 169.135,150.119 	"/>
	<path class="st5" d="M121.137,193.023c0-0.369-0.001-0.755-0.006-1.139c-0.01-0.86-0.405-1.139-1.146-0.816
		c-0.149,0.065-0.301,0.152-0.451,0.238c-3.076,1.775-6.152,3.544-9.227,5.336c-0.335,0.195-0.558,0.208-0.691-0.051
		c-0.424-0.826-1.122-0.816-2.145-0.126c-0.997,0.673-1.998,1.19-3.002,1.749c-0.671,0.374-1.179,0.909-1.481,1.817
		c0,5.8,0,11.6,0,17.401c0.377,0.532,0.971,0.325,1.68-0.088c4.755-2.768,9.505-5.499,14.259-8.244
		c0.924-0.533,1.289-1.145,1.453-2.295c0.45-3.16,0.921-6.329,1.386-9.495c0.137-0.931,0.285-1.868,0.427-2.801
		c0.01-0.066,0.009-0.119,0.084-0.219c0-0.319,0-0.638,0-0.957C121.825,192.877,121.817,192.861,121.137,193.023z M103.761,200.301
		c0-0.614,0.086-0.763,0.604-1.063c1.243-0.718,2.485-1.446,3.727-2.139c0.167-0.093,0.37-0.074,0.487,0.005
		c0.184,0.125,0.31,0.344,0.458,0.527c0.272,0.336,0.646,0.331,1.166,0.028c3.137-1.828,6.285-3.637,9.422-5.448
		c0.639-0.369,0.693-0.348,0.693,0.383c0,0.301,0,0.638,0,0.986c-0.226,0.13-0.407,0.235-0.569,0.329
		c-4.505,2.601-9.011,5.188-13.516,7.789c-0.839,0.485-1.206,1.049-1.357,2.086c-0.336,2.308-0.678,4.614-1.091,6.966
		c-0.008-0.12-0.024-0.237-0.024-0.362C103.76,207.028,103.76,203.664,103.761,200.301z"/>
	<polygon class="st10" points="87.673,234.615 90.508,236.252 90.508,195.515 87.673,193.878 	"/>
	<polygon class="st11" points="169.125,150.125 166.29,148.488 87.673,193.878 90.508,195.515 	"/>
</g>
<g id="CARD_2_1_">
	<polygon class="st8" points="206.386,232.981 127.758,278.377 127.758,237.64 206.386,192.245 	"/>
	<path class="st5" d="M162.49,240.992c0,2.274-1.203,4.917-2.913,6.729c-0.385,0.489-0.834,0.901-1.315,1.179l-14.186,8.19
		c-0.118,0.068-0.234,0.125-0.347,0.173c-2.39,1.103-4.256-0.15-4.256-2.982c0-2.759,1.769-6.059,4.067-7.761
		c0.344-2.357,1.981-4.937,3.948-6.073c0.656-0.379,1.275-0.553,1.822-0.547c1.044-2.093,2.64-3.967,4.429-5
		c2.687-1.551,4.938-0.701,5.536,1.845c0.816-0.357,1.45,0.064,1.473,1.016C161.811,238.15,162.49,239.282,162.49,240.992z"/>
	<polygon class="st10" points="124.923,276.74 127.758,278.377 127.758,237.64 124.923,236.003 	"/>
	<polygon class="st11" points="206.376,192.25 203.541,190.613 124.923,236.003 127.758,237.64 	"/>
</g>
<g id="CARD_1_1_">
	<polygon class="st8" points="206.386,296.71 127.758,342.106 127.758,301.369 206.386,255.973 	"/>
	<polygon class="st5" points="150.06,311.192 139.41,308.276 139.41,322.707 160.664,310.436 160.664,296.043 	"/>
	<path class="st5" d="M139.455,307.287l10.052,2.786c0.31,0.086,0.79-0.19,1.101-0.635l10.055-14.364L139.455,307.287z"/>
	<polygon class="st10" points="124.923,340.469 127.758,342.106 127.758,301.369 124.923,299.732 	"/>
	<polygon class="st11" points="206.376,255.979 203.541,254.342 124.923,299.732 127.758,301.369 	"/>
</g>
<path class="st3" d="M0,455.219l124.725-74.221l-16.776-1.251c0,0-78.079,46.053-81.116,42.753
	c-2.875-3.125,53.506-34.901,53.506-34.901l-13.527-6.724L0,420.586V455.219z"/>
<g id="MAN_1_1_">
	<path class="st8" d="M161.667,144.833c-0.098,2.449-2.75,5.75-2.083,8.333c0.667,2.583,2.583,3.083,4.167,2.333
		c1.583-0.75,0.542-3.812,1.375-4.562c0.833-0.75,1.333,1.083,1.458,2.229c0.086,0.786,1.5,1.667,1.583-1.25
		c0.083-2.917-0.75-6.667-1.25-7.583C166.417,143.417,161.75,142.75,161.667,144.833z"/>
	<path class="st8" d="M235.687,118.938c0.243,1.885,0.37,3.962,1.813,5.438c1.375,1.406,0.562-1.062,0.812-2
		s1.688,0.688,2.375,2.312c0.688,1.625,4.188,1.062,4.188-1.5s-3.063-6.062-5.625-6.75C236.687,115.75,235.437,117,235.687,118.938z
		"/>
	<path class="st1" d="M190,89.833c-6.638,4.212-15.833,17.833-21,29.333c-5.167,11.5-6.833,19.417-8.083,24.583s6,3.833,7,1.25
		s6.459-17.98,10.208-24.75c4.5-8.125,8.875-12.5,16.5-19.125S197.75,84.917,190,89.833z"/>
	<path class="st1" d="M195.75,86.125C204.144,86.788,218.375,93,225.375,99s13.562,14.938,14.625,18
		c1.062,3.062-2.563,4.938-4.5,2.938c-1.938-2-12.875-13.688-18.625-16.562s-13.458-5.542-20.625-6.542
		C189.083,95.833,191,85.75,195.75,86.125z"/>
	<g>
		<path class="st8" d="M187.259,97.767c0.987,1.84,5.348,5.084,7.395,5.942c2.047,0.858,3.961-1.585,4.357-3.103
			c0.396-1.519,0.99-6.14-1.32-8.319C195.38,90.108,184.816,93.212,187.259,97.767z"/>
		<path class="st12" d="M197.955,87.401c2.133,0.953,5.612,2.377,6.206,4.292c0.594,1.915-1.585,2.575-2.443,2.311
			c0,0,1.783,3.235-0.132,4.159c-1.915,0.924-5.282,0.594-6.206-1.056C194.456,95.456,194.852,86.015,197.955,87.401z"/>
		<g>
			<g>
				<path class="st1" d="M183.584,96.557c-1.274-3.626-1.144-13.733,6.69-14.173c7.835-0.44,9.683,4.93,10.211,6.778
					c0,0-0.704,6.25-6.602,10.387C187.985,103.687,184.728,99.814,183.584,96.557z"/>
				<path class="st1" d="M183.958,94.004c-1.302,0.924-3.103,5.216-1.981,8.847c1.122,3.631,7.857,2.839,10.167,1.717
					c2.311-1.122,1.981-4.886,1.783-6.932S186.005,92.551,183.958,94.004z"/>
			</g>
		</g>
	</g>
	<path class="st13" d="M187.608,107.577c-4.913,1.624-12.86,11.873-15.193,16.147c-4.243,7.775-5.249,12.692-6.582,18.942
		c-0.418,1.96-0.528,3.262-0.241,4.231c1.086-0.403,2.011-1.089,2.324-1.897c1-2.583,6.459-17.98,10.208-24.75
		C181.033,115,183.894,111.315,187.608,107.577z"/>
	<path class="st13" d="M166.187,144.344c-0.272,3.09,0.156,6.25,1.221,9.577c0.364-0.072,0.718-0.589,0.758-2.004
		c0.083-2.917-0.75-6.667-1.25-7.583C166.863,144.236,166.325,144.433,166.187,144.344z"/>
</g>
<g id="MAN_2_1_">
	<path class="st8" d="M118.382,223.346c-0.935-1.469-1.912-3.619-1.229-4.916c0.683-1.297,1.571,0.615,1.912,0.819
		c0.341,0.205,0.94-2.642,1.912-3.892c0.956-1.229,4.234-0.137,4.643,1.502c0.41,1.639-1.639,6.965-3.414,7.989
		C120.431,225.873,118.86,224.098,118.382,223.346z"/>
	<path class="st1" d="M113.833,251.5c2.917-7,8.417-22.625,8.917-26.5s-5.125-3.375-5.625-1.625s-7.125,16.125-10.625,25
		S94.375,263,88.75,262.875s-4.875-11.25-4-17.375c0.393-2.751,1.922-6.709,3.632-10.476l-0.71-0.41v-9.536
		c-3.979,4.839-8.602,12.204-10.923,20.297c-2.568,8.955-2.789,18.993-0.368,35.879c0.549,3.826,2.344,12.615,2.763,16.286
		c0.001,0.009,0.002,0.017,0.003,0.026c0.887,9.673,2.468,24.016,1.352,35.184c-1.167,11.667-7.667,37.833-10.5,43.167l6.833,4.333
		c0,0,10.667-17.667,13.333-31c1.802-9.013,2.992-18.409,3.061-28.647c2.406,6.84,4.973,14.818,6.439,22.147
		c2.667,13.333,8.167,35.333,8.167,35.333l7.333-1.5c0,0-0.667-25.5-3.5-42.333c-2.833-16.833-6.004-33.182-6.521-41.935
		c0-0.001,0-0.001,0-0.002c-0.234-3.869-0.628-7.441-0.646-9.73C104.417,271.917,110.82,258.732,113.833,251.5z"/>
	<path class="st13" d="M82.25,244.625c-1.875,10.5,1.25,16,2.5,16.875c0.202,0.142,0.583,0.016,1.06-0.264
		c-2.331-3.339-1.734-11.018-1.06-15.736c0.393-2.751,1.922-6.709,3.632-10.476l-0.71-0.41v-1.885
		C85.245,235.566,83.208,239.261,82.25,244.625z"/>
	<path class="st3" d="M66.812,380.875c0,0,11.188,7.042,12.854,6.958c1.667-0.083,2.167-2.917-2.833-7.583L70,375.917
		L66.812,380.875z"/>
	<path class="st3" d="M108.25,384.083c0,0,12.083-1.583,15.5-2.667c3.417-1.083,1.167-3.167-1.167-3.583
		c-2.333-0.417-5.5-0.917-7.417-1.25l-7.333,1.5L108.25,384.083z"/>
	<path class="st8" d="M96.517,248.209c0,0,3.739,4.939,3.416,6.786c-0.323,1.847-3.001,4.062-3.878,4.432
		c-0.877,0.369-4.293-4.062-4.293-4.062L96.517,248.209z"/>
	<path class="st13" d="M95.087,250.36c1.515,1.749,2.379,2.743,3.923,6.463c0.456-0.599,0.818-1.231,0.923-1.828
		c0.323-1.847-3.416-6.786-3.416-6.786L95.087,250.36z"/>
	<path class="st12" d="M82.945,259.311c-0.271,1.792-0.138,5.124,1.454,5.955c1.593,0.831,5.747,1.593,7.894-1.731
		c0,0,0.9,1.316,3.601-1.593c2.701-2.908,1.246-5.678-0.969-7.686C92.708,252.248,83.845,253.356,82.945,259.311z"/>
	<path class="st3" d="M85.207,262.058c4.246,0.202,11.91-6.278,12.649-12.095c0.739-5.817-5.648-7.246-10.341-5.54
		c-5.078,1.846-7.386,7.663-6.371,12.187C82.16,261.135,83.268,261.966,85.207,262.058z"/>
	<path class="st3" d="M89.592,246.135c0.506-2.267,1.17-5.279,4.231-5.47c3.06-0.191,7.226,1.062,7.514,3.572
		c0.288,2.511-2.165,7.1-4.064,7.628C95.374,252.393,88.873,249.357,89.592,246.135z"/>
	<path class="st13" d="M81.667,365.833c-1.356,3.681-4.367,9.246-6.652,13.264l1.818,1.153c0,0,10.667-17.667,13.333-31
		c1.802-9.013,2.992-18.409,3.061-28.647c0,0-1.728,3.897-3.728,13.73C87.5,344.167,84,359.5,81.667,365.833z"/>
	<path class="st13" d="M120.919,222.193c-0.887,4.583-3.539,15.753-10.044,27.807c-8.5,15.75-10.452,22.385-10.922,29.125
		c-0.62,8.875,0.214,19.042,2.88,29.875c2.667,10.833,5.5,19.667,7.167,35c1.251,11.506,2.22,26.389,2.625,33.103l2.541-0.52
		c0,0-0.667-25.5-3.5-42.333c-2.833-16.833-6.004-33.182-6.521-41.935c0-0.001,0-0.001,0-0.002c-0.234-3.869-0.628-7.441-0.646-9.73
		c-0.083-10.667,6.32-23.851,9.333-31.083c2.917-7,8.417-22.625,8.917-26.5C122.963,223.348,122.06,222.497,120.919,222.193z"/>
	<path class="st13" d="M125.62,216.859c-0.17-0.682-0.839-1.266-1.629-1.631c-0.503,2.982-1.385,7.209-2.692,9.917l0,0
		c0.293-0.028,0.597-0.118,0.907-0.297C123.982,223.824,126.03,218.498,125.62,216.859z"/>
	<path class="st13" d="M88.448,244.133c2.393,0.317,4.36,1.216,5.989,3.43c1.286,1.748,2.012,3.891,2.414,5.531
		c0.513-1.037,0.872-2.094,1.004-3.13C98.546,244.524,93.007,242.923,88.448,244.133z"/>
</g>
</svg>