<!-- Generator: Adobe Illustrator 22.0.0, SVG Export Plug-In  -->
<svg version="1.1"
	 xmlns="http://www.w3.org/2000/svg" xmlns:xlink="http://www.w3.org/1999/xlink" xmlns:a="http://ns.adobe.com/AdobeSVGViewerExtensions/3.0/"
	 x="0px" y="0px" width="750.003px" height="500px" viewBox="0 0 750.003 500" style="enable-background:new 0 0 750.003 500;"
	 xml:space="preserve">
<style type="text/css">
	.st0{fill:#00359F;}
	.st1{fill:#00C4FF;}
	.st2{fill:#7787FF;}
	.st3{fill:#002E7D;}
	.st4{fill:#DCF5FD;}
</style>
<defs>
</defs>
<rect class="st0" width="750" height="500"/>
<g>
	<path class="st1" d="M183.023,227.91c0.42-0.67,16.62-25.65,52.06-16.63c-24.73,9.76-29.61,33.52-29.73,34.13
		C198.673,237.67,191.013,232.01,183.023,227.91z"/>
	<path class="st1" d="M389.573,420.24c-1.11,1.4-2.11,2.78-3.01,4.11c-62.64-64.64-160.7-43.5-160.7-43.5
		c20,0.51,29.45,20.15,29.45,20.15c-44.55-10.67-72.3,16-72.3,16c1.15-71.33-80.48-68.67-80.48-68.67
		c-68.67-16.66-102.53,29.34-102.53,29.34v-33.51c0,0,43.52-35.25,101.14-11.87c0,0,65.14-22.54,96.87,30.07
		C198.013,362.36,308.063,327.81,389.573,420.24z"/>
	<path class="st1" d="M750.003,188.33v39.59c-65.99,5.32-89.21,62.08-89.21,62.08c-57.74-13.5-95.26,20-95.26,20
		c-23.5-7-32,4.5-32,4.5c7-1,15,7,15,7c-81.5,14.5-68.67,90.64-68.67,90.64c-59.33-13.52-81.66,28.53-81.66,28.53
		c13.66,3.33,16.92,14.79,16.92,14.79c-33.55-12.03-57.61,15.19-57.61,15.19c-41.77-6.33-69.47,29.35-69.47,29.35
		s12.79-68.49,91.61-62.43c0,0,1.97-5.92,6.91-13.22c0.9-1.33,1.9-2.71,3.01-4.11c10.87-13.76,31.92-29.33,68.89-20.39
		c0,0-12.8-88.92,84.21-107.78c0,0,48.5-39.07,106.43-11.46C649.103,280.61,663.253,197.76,750.003,188.33z"/>
	<path class="st1" d="M750.003,0v27.57c-88.12-3.61-102.05,74.12-102.05,74.12c29.29,19.83,31.09,57.01,31.09,57.01
		s-18.31-30.47-60.16-28.17c-61.51,3.38-63.76,61.29-63.76,61.29c-33.57-6.09-49.41,19.61-49.41,19.61h-0.01
		c1.24-15.14,8.29-33.47,32.68-42.98c0,0,5.04-79.94,89.32-71.85c0,0-22.6-66.56,33.09-96.6H750.003z"/>
	<path class="st1" d="M205.353,245.41c1.26,1.46,2.49,2.98,3.67,4.59c0,0,35.93,8.26,35.03,44.19c0,0,27.8-12.57,43.99,8.08
		c0,0,12.59-17.96,30.55-9.88c0,0,39.52-9.88,51.2,22.46c0,0,13.81-38.62,64.39-33.23c0,0,9.26-33.2,51.47-23.34
		c0,0,0-22.47,22.45-22.47c-18.78,9.67-14.54,28.02-14.54,28.02c-39.22-6.75-51.43,22.08-51.43,22.08c4.16,2.08,5.9,8.58,5.9,8.58
		c-64.17-9.99-89,56.51-89,56.51c-1.77-12.58,6.8-23.49,6.8-23.49c-4.1-22.92-32.3-33.01-49.68-27.51
		c-17.38,5.5-19.12,24.28-19.12,24.28c-18.5-30.71-56.5-16.78-56.5-16.78c3-20-13.5-29-13.5-29c-7-13-23.5-9-23.5-9
		c-25.5-54-96-41.58-96-41.58c-10-33.08-38.5-35.42-38.5-35.42c0.5,8-7,19-7,19C39.533,175,0.003,184,0.003,184v-45.19
		c0,0,53.64-6.32,71.6,36.81c0,0,37.72,8.1,40.42,44.92c0,0,38.29-9.39,71,7.37C191.013,232.01,198.673,237.67,205.353,245.41z"/>
	<path class="st1" d="M445.983,144.68c0,0,20.9-9.79,30.04,7.18c-21.69-10.47-37.72,1.6-37.72,1.6c6.41-0.98,11.34,4.93,11.34,4.93
		c-32.55,1.97-36,29.94-36,29.94c-34.02-12.22-66.31,20.11-66.31,20.11c-25.64-31.31-75.68-12.08-75.68-12.08
		c-17.21-4.84-35.91,14.24-36.56,14.9c0.2-0.65,6.93-21.75,32.63-22.93c0,0,30.04-27.33,67.91-5.13c0,0,5.15-6.61,15.2-11.12
		c9.45-4.25,23.24-6.65,41.17,0C392.003,172.08,404.843,140.76,445.983,144.68z"/>
	<path class="st1" d="M498.863,34.85c1.12-11.58,4.54-23.6,11.76-34.85h47.34c-43.85,28.66-21.48,101.78-21.48,101.78
		c-38.04-0.23-59.45,31.68-59.45,31.68c2.73-13.15,10.84-29.76,33.59-37.1c0,0-7.4-14.48-10.68-34.38
		C498.593,53.67,497.943,44.4,498.863,34.85z"/>
	<path class="st1" d="M0.003,0c0,0,77.46,6.79,92.49,83.03C58.243,30.94,0.003,30.4,0.003,30.4V0z"/>
	<path class="st1" d="M133.433,100.66c0,0,12.9-20.26,41.98-14.62c-21.77,8.01-21.3,27.92-21.3,27.92
		C148.313,107.03,140.963,102.95,133.433,100.66z"/>
	<path class="st1" d="M303.373,100.65c-15.3-16.16-34.84-12.92-34.84-12.92c1.07,3.18-1.06,7.01-1.06,7.01
		c-5.31-15.72-28.03-15.29-28.03-15.29c-12.3-4.25-24.61,1.25-24.61,1.25s6.47-13.57,23.27-7.76c0,0,18.74-9.04,26.49,6.47
		C264.593,79.41,296.253,74.73,303.373,100.65z"/>
	<path class="st1" d="M498.863,34.85c-0.92,9.55-0.27,18.82,1.08,27.13c-44.74-13-64.41,20.69-64.41,20.69
		c-23.33,6.16-23.5,27-23.5,27c-26.83-24.84-54.67-1.5-54.67-1.5c0.84,4.5-1.66,11.27-1.66,11.27
		c-9.17-22.56-37.15-25.85-37.15-25.85c8.57-2,20-1.66,32.28,7.07c0,0,13.93-27.37,46.25-14.62c0,0,9.84-18.27,28.83-11.8
		C425.913,74.24,438.453,26.49,498.863,34.85z"/>
	<path class="st1" d="M365.933,0h117.43c-49.5,0-67.16,23.17-67.16,23.17c-54-14.5-86,17.16-86,17.16c4.5,0.17,9.5,4.28,9.5,4.28
		c-25.17-6.55-46,5.39-46,5.39c-13.34-11.67-27.67-4.17-27.67-4.17c-1.26-1.08-2.56-2.03-3.89-2.87l2.29-1.68
		c0.21,0.24,0.42,0.48,0.63,0.73c0,0,16.92-8.46,27.33,2.6c0,0,11.06-13.66,29.28-7.15C321.673,37.46,328.833,8.82,365.933,0z"/>
	<path class="st1" d="M264.433,41.28l-2.29,1.68c-15.04-9.5-33.61-4.29-33.61-4.29c-7.83-9-19.67-5.84-19.67-5.84
		c2,1.5,2.34,5.5,2.34,5.5c-41.67-6-66.84,21.34-66.84,21.34c2.84-48.17-43-59.67-43-59.67h34.85c0,0,24.73,2.32,29.94,27.69
		c0,0,21.47-13.01,40.99,0c0,0,16.92-4.57,22.78,6.18C229.923,33.87,251.353,26.63,264.433,41.28z"/>
	<g>
		<g>
			<path class="st1" d="M350.833,172.08c-10.05,4.51-15.2,11.12-15.2,11.12c-3.45-2.02-6.84-3.64-10.15-4.9
				c-21.93-27.57-60.95-18.8-60.95-18.8c0,4.38-7.12,10.38-7.12,10.38c3.62-19.5-10.13-24-10.13-24c-0.63,2.37-3.42,4.12-3.42,4.12
				c-7-32.33-41-30.56-41-30.56c-27.33-9.56-43,3.89-43,3.89c4,4.67,3.34,15.16,3.34,15.16c-28.34-39.52-89-27.16-89-27.16
				c7-7,20.49-11.05,20.49-11.05s19.95-5.35,38.74,0.38c7.53,2.29,14.88,6.37,20.68,13.3c0,0,26.77-18.31,47.67,0
				c0,0,37.21-5.83,45.7,24.85c0.04,0,16.98,0.01,16.98,15.66C264.463,154.47,317.053,142.68,350.833,172.08z"/>
		</g>
	</g>
</g>
<g>
	<path class="st2" d="M51.648,232.742c0,0,17.183,46.702,94.206,46.271C145.854,279.013,68.932,305.84,51.648,232.742z"/>
	<path class="st2" d="M638.711,357.284c0,0,36.768,22.583,88.992-19.051C727.703,338.233,689.715,397.789,638.711,357.284z"/>
	<path class="st3" d="M541.925,49.266c0,0,22.652,23.047,68.122,2.204C610.047,51.47,571.692,87.908,541.925,49.266z"/>
	<path class="st3" d="M131.649,159.568c0,0,22.653,23.047,68.122,2.204C199.771,161.771,161.417,198.209,131.649,159.568z"/>
	<path class="st2" d="M608.907,406.014c0,0,32.537,2.718,53.619-43.212C662.526,362.802,657.172,415.985,608.907,406.014z"/>
	<path class="st3" d="M431.393,455.619c0,0,34.285,23.868,68.57-6.365C499.963,449.254,470.92,496.338,431.393,455.619z"/>
	<path class="st2" d="M519.023,241.698c0,0,34.285,23.868,68.569-6.365C587.592,235.333,558.549,282.417,519.023,241.698z"/>
	<path class="st3" d="M417.075,195.339c0,0,22.707,25.315,55.518,7.763C472.593,203.102,440.681,238.734,417.075,195.339z"/>
	<path class="st3" d="M92.493,416.651c0,0,19.605,31.216,57.881,18.496C150.374,435.146,110.539,463.36,92.493,416.651z"/>
	<g>
		<path class="st2" d="M0.003,500v-75.65c0,0,42.04,66.63,148.75,47.8c0,0,13.74,20.4,44.53,14.65c0,0,25.63,7.32,41.81-14.65
			c0,0,10.37,24.43,55.91,17.97c-2.22,5.92-2.96,9.88-2.96,9.88H0.003z"/>
		<path class="st2" d="M750.003,417.11V500h-251.44c0.82,0,83.64-0.15,110.57-60.03c0,0,5.13,21.84,0,35.65
			c0,0,80.71-7.19,97.97-70.18C707.103,405.44,720.123,425.5,750.003,417.11z"/>
		<path class="st2" d="M46.253,307.37c0,0-1.13,16.44,16.98,16.9v0.04c-37.76-0.78-63.23,19.85-63.23,19.85V271.8
			c0,0,28.96,34,84.41,24.07C84.413,295.87,67.723,308.94,46.253,307.37z"/>
		<path class="st2" d="M235.083,211.28c-35.44-9.02-51.64,15.96-52.06,16.63c-32.71-16.76-71-7.37-71-7.37
			c-2.7-36.82-40.42-44.92-40.42-44.92c-2.63-6.31-6.02-11.56-9.89-15.93c2.24,2.34,22.52,22.72,45.26,18.61
			c0,0,2.59,16.21,18.96,18.2c0,0-1.8,9.75,7.5,11.04c0,0,8.86,10.79,24.8,3.89c0,0,9.08,9.04,24.79,4.3c0,0,20.62-2.7,28.72-19.23
			c0,0,5.31,12.65,25.66,9.69c-1.6,2.82-2.25,4.88-2.31,5.07C235.093,211.27,235.083,211.28,235.083,211.28z"/>
		<path class="st3" d="M48.703,148.94v0.01c-22.03-13.28-48.7-10.14-48.7-10.14V30.4c0,0,9.21,0.09,22.46,3.47
			C22.463,33.87,0.533,112.88,48.703,148.94z"/>
		<path class="st2" d="M257.143,274.53c0,0,20.02,22.07,44.33,17.26c-8.33,3.21-13.43,10.48-13.43,10.48
			c-16.19-20.65-43.99-8.08-43.99-8.08c0.9-35.93-35.03-44.19-35.03-44.19c-1.18-1.61-2.4-3.12-3.67-4.58c0,0,0,0,0-0.01
			c0.07-0.36,1.78-8.69,8.19-17.49c0,0,9.25,26.56,33.29,30.36C246.833,258.28,245.983,270.77,257.143,274.53z"/>
		<path class="st2" d="M235.093,341.38c0,0,19.89,12.44,57.27,9.62c0,0-6.29,8.12-17.33,6.91c-43.62-6.03-77.02,4.45-77.02,4.45
			c-11.65-19.32-27.81-28.5-43.59-32.39c-13.16-11.92-7.24-31.93-7.24-31.93s21.73,29.55,61.87,26.24c0,0-6.42,6.11-19.5,6.63
			C189.553,330.91,199.553,346.08,235.093,341.38z"/>
		<path class="st2" d="M458.563,377.55c-1.42,13.1-0.1,22.3-0.1,22.3c-36.97-8.94-58.02,6.63-68.89,20.39
			c-10.93-12.4-22.38-22.51-34-30.73c0.9,0.32,26.15,9.14,37.46-4.99C393.033,384.52,429.943,401.15,458.563,377.55z"/>
		<path class="st2" d="M649.103,280.61c-16.09-7.67-31.44-10.19-45.24-9.83v-0.01c0,0,41.83-26.17,40.78-70.63
			c0,0,9.42,16.23,6.28,35.32c0,0,44.46-25.38,57.01-70.37c0,0,15.17,17.93,41.85,3.66h0.22v19.58
			C663.253,197.76,649.103,280.61,649.103,280.61z"/>
		<path class="st3" d="M624.813,48.34c-4.96,25.14,2.89,48.26,2.89,48.26c-23.2-2.23-40.4,2.22-53.13,9.82
			C578.733,103.82,612.333,82.02,624.813,48.34z"/>
		<path class="st3" d="M506.093,85.49c2.45,6.8,4.53,10.87,4.53,10.87c-22.75,7.34-30.86,23.95-33.59,37.1
			c-2.14,10.25-1.01,18.4-1.01,18.4c-9.14-16.97-30.04-7.18-30.04-7.18c-41.14-3.92-53.98,27.4-53.98,27.4
			c-17.93-6.65-31.72-4.25-41.17,0c-33.78-29.4-86.37-17.61-86.37-17.61c0-15.65-16.94-15.66-16.98-15.66
			c-1.7-6.14-4.55-10.82-8.02-14.38c2.45,2.23,13.11,10.82,27.4,5.57c0,0,3.34,6.67,11.67,6.33c0,0,2.02,7.08,9.51,5.54
			c0,0,14.2,9.64,30.51,0.22c0,0,6.65,5.24,15.65,1.58c0,0,24.44,4,38.55-13.67c0,0,8.11,9.91,24.45,9.29c0,0,10.66,7.01,17.66-0.8
			c0,0,10.34,3.32,14.67-3.42c0,0,18.67-7.04,11-28.39c0,0,26.65,6.71,35.49-23.65C476.023,83.03,489.323,94.97,506.093,85.49z"/>
		<path class="st3" d="M466.403,0.98c-0.29,28.14-22.87,32.89-22.87,32.89c-0.17,10.53-12.67,11.48-12.67,11.48
			c-3.33,11.02-14.5,10.65-14.5,10.65c1.34-8.17-1.83-15.17-1.83-15.17c-3,24.34-26.5,22.67-26.5,22.67
			c-5.83,8.33-15.52,3.76-15.52,3.76c-7.02,4.43-11.48-0.53-11.48-0.53c-8.53,19.7-27.09,23.32-36.11,23.87
			c-3.15,0.2-5.14,0.02-5.14,0.02c3.25-1.74,4.25-6.24,4.25-6.24c-16.25,8.12-27.12-3.5-27.12-3.5c-4.26-0.76-4.55-4.88-4.55-4.88
			c-4.75,1.6-9.27,1.7-13.27,1.05c-9.09-1.45-15.44-6.73-15.44-6.73c1.76-1.3,2.21-5.99,2.21-5.99c-5.03,2.8-10.18,3.42-14.46,3.21
			c-5.93-0.3-10.2-2.21-10.2-2.21c3-5,0-11.66,0-11.66c-9.47,20.59-33,13.06-33,13.06c-10.67,3.06-16.34-5.4-16.34-5.4
			c-2.66,14-16.45,13-16.45,13c-8.12,6.34-15.55-1.33-15.55-1.33c-11,8.67-20.66,0-20.66,0c-14.67-4.67-12.8-21.33-12.8-21.33
			c-15.13,7-21.54-5-21.54-5c-9-1.34-8-11.34-8-11.34C71.533,28.33,74.203,0,74.203,0h27.16c0,0,45.84,11.5,43,59.67
			c0,0,25.17-27.34,66.84-21.34c0,0-0.34-4-2.34-5.5c0,0,11.84-3.16,19.67,5.84c0,0,18.57-5.21,33.61,4.29
			c1.33,0.84,2.63,1.79,3.89,2.87c0,0,14.33-7.5,27.67,4.17c0,0,20.83-11.94,46-5.39c0,0-5-4.11-9.5-4.28c0,0,32-31.66,86-17.16
			C416.203,23.17,429.763,5.39,466.403,0.98z"/>
	</g>
</g>
<g>
	<path class="st4" d="M393.533,445.33c-81.86-7.26-105.04,53.46-105.47,54.65c-0.02,0.01-0.02,0.02-0.02,0.02s0.74-3.96,2.96-9.88
		c7-18.74,28.77-57.15,88.65-52.55c0,0,1.97-5.92,6.91-13.22c0.9-1.33,1.9-2.71,3.01-4.11c10.87-13.76,31.92-29.33,68.89-20.39
		c-61.08-5.98-71.9,38.98-71.9,38.98C390.253,440.5,393.533,445.33,393.533,445.33z"/>
	<path class="st4" d="M275.033,357.91c21.07,2.91,44.52,9.68,67.75,23.35c-77.71-32.47-141.5-14.26-141.5-14.26
		c1.5,3.75,2,9.5,2,9.5c-44.3-55.87-100.36-44.58-102.1-44.22c1.15-0.39,26.66-8.87,53.24-2.31c15.78,3.89,31.94,13.07,43.59,32.39
		C198.013,362.36,231.413,351.88,275.033,357.91z"/>
	<path class="st4" d="M244.053,294.19c0,0,27.8-12.57,43.99,8.08C269.213,289.71,244.053,294.19,244.053,294.19z"/>
	<path class="st4" d="M349.273,304.87c-38.351-9.983-52.24,19.41-52.24,19.41s1.74-18.78,19.12-24.28
		C325.853,296.93,338.913,298.72,349.273,304.87z"/>
	<path class="st4" d="M369.793,314.85c0,0,13.81-38.62,64.39-33.23C390.663,285.07,369.793,314.85,369.793,314.85z"/>
	<path class="st4" d="M458.563,377.55c3.02-27.65,18.3-72.69,84.11-85.48c0,0,25.31-20.38,61.19-21.29
		c13.8-0.36,29.14,2.16,45.23,9.82c-50.69-20.13-102.06,13.65-102.06,13.65c6.05,3.15,7.42,6.53,7.49,6.74
		c-24.24-9.73-41.49,10.76-41.49,10.76c-54.39,23.1-54.57,87.25-54.57,88.09C458.413,399.48,457.173,390.39,458.563,377.55z"/>
	<path class="st4" d="M750.003,188.33v29.6c-50.84-11.91-84.19,22.46-85.07,23.38C678.903,218.49,704.443,193.28,750.003,188.33z"/>
	<path class="st4" d="M627.703,96.6c8.62,3.81,12.46,10.08,12.46,10.08c-83.78-9.13-101.78,61.77-101.78,61.77
		s2.62-41.63,35.77-61.77c0,0,0.15-0.09,0.42-0.26C587.303,98.82,604.503,94.37,627.703,96.6z"/>
	<path class="st4" d="M750.003,0v27.57c-7.12-0.29-13.76-0.05-19.95,0.64h-0.01c-60.71-20.92-102.29,11.13-103.09,11.76
		c4.7-14.85,14.6-29.59,33.84-39.97H750.003z"/>
	<path class="st4" d="M392.003,172.08c0,0,12.84-31.32,53.98-27.4c-38.39,0.35-51.28,29.49-51.28,29.49
		c2.61,2.01,4.39,6.07,4.49,6.32c-26.7-13.34-62.75,2.36-63.55,2.7c0.29-0.36,5.43-6.73,15.19-11.11
		C360.283,167.83,374.073,165.43,392.003,172.08z"/>
	<path class="st4" d="M235.083,211.28c0,0-31.13,2.11-42.21,22.66c-3.2-2.31-6.5-4.31-9.85-6.03
		C183.443,227.24,199.643,202.26,235.083,211.28z"/>
	<path class="st4" d="M61.713,159.69c3.87,4.37,7.26,9.62,9.89,15.93c-5.69-7.38-16.32-11.62-16.32-11.62c2,5.25,0,14.3,0,14.3
		c-17.19-29.57-52.18-25.96-55.28-25.58v-13.91c0,0,26.67-3.14,48.7,10.14c4.56,2.74,8.92,6.19,12.8,10.52
		C61.503,159.47,61.573,159.55,61.713,159.69z"/>
	<path class="st4" d="M397.083,86.04c-30.55-3.83-45.82,14.1-46.24,14.61C351.193,99.97,365.173,73.45,397.083,86.04z"/>
	<path class="st4" d="M133.433,100.66c0,0,12.9-20.26,41.98-14.62c-28.63,2.79-33.15,18.29-33.15,18.29
		C139.403,102.77,136.433,101.57,133.433,100.66z"/>
	<path class="st4" d="M207.143,27.69c-27.15-5.56-41.43,6.18-41.43,6.18c-0.08,2.87-2.43,5.13-2.43,5.13
		c-11.36-25.94-41.62-29.39-42.33-29.47c-0.01,0-0.01,0-0.01,0C110.863,2.38,101.363,0,101.363,0h34.85c0,0,24.73,2.32,29.94,27.69
		C166.153,27.69,187.623,14.68,207.143,27.69z"/>
	<path class="st4" d="M365.933,0h56.1c-79.25,5-100.36,37.46-100.36,37.46S328.833,8.82,365.933,0z"/>
	<path class="st4" d="M425.913,74.24c0,0,12.54-47.75,72.95-39.39c-31.47,1.39-42.93,10.5-42.93,10.5c5.09-0.48,8.48,2.98,8.48,2.98
		c-28.6,3-40.23,34.71-40.23,34.71C423.703,78.61,425.913,74.24,425.913,74.24z"/>
	<path class="st4" d="M506.093,85.49c-2.16-6.02-4.61-14.17-6.15-23.51c-1.35-8.31-2-17.58-1.08-27.13
		c1.12-11.58,4.54-23.6,11.76-34.85h27.76c-46.82,25.67-27.76,96.36-27.76,96.36S508.543,92.29,506.093,85.49z"/>
</g>
<g>
	<path class="st3" d="M750.003,227.92v42.83c-45.86-24.59-83.47,23.25-83.47,23.25c7.24,4.34,12.33,12.39,12.33,12.39
		c-22-19.27-51.01,0.28-51.01,0.28c-15.01-2.34-18.95,11-18.95,11c-29.62-13.34-60.37,3.83-60.37,3.83s-8-8-15-7
		c0,0,8.5-11.5,32-4.5c0,0,37.52-33.5,95.26-20C660.793,290,684.013,233.24,750.003,227.92z"/>
	<path class="st3" d="M750.003,27.57v14.76C715.143,37,712.863,63,712.863,63c-13,0-12,13.65-12,13.65
		c-35.33-2.34-47.6,29.07-47.6,29.07c-1.66-1.41-3.43-2.76-5.31-4.03c0,0,11.77-65.67,82.09-73.48h0.01
		C736.243,27.52,742.883,27.28,750.003,27.57z"/>
	<path class="st3" d="M688.903,438.48c-29.69,32.68-79.77,37.14-79.77,37.14c2.32-6.25,2.54-14.14,2.09-20.91
		C612.143,454.93,657.263,465.18,688.903,438.48z"/>
	<path class="st3" d="M632.253,130.93l-0.05,0.4c-22,1.34-25.67,20-25.67,20c13,0,20.41,9.67,20.41,9.67
		c-48.92-8.33-71.82,30.82-71.82,30.82s2.25-57.91,63.76-61.29C623.643,130.27,628.103,130.43,632.253,130.93z"/>
	<path class="st3" d="M536.483,101.78c13.2,3.53,19.8,10.22,19.8,10.22c-72.25-6-80.26,39.86-80.26,39.86s-1.13-8.15,1.01-18.4
		C477.033,133.46,498.443,101.55,536.483,101.78z"/>
	<path class="st3" d="M377.243,321.5c14.09-16.3,36.98-32.27,70.79-27.01c-27.25,1.74-29.5,19.38-29.5,19.38
		c7.25,3.87,10.67,14.17,10.67,14.17C409.763,308.64,377.983,321.2,377.243,321.5z"/>
	<path class="st3" d="M413.643,188.33c2.18,3.01,3.43,7.01,3.43,7.01c-25.57-13.28-68.65,12.44-69.72,13.09
		C348.183,207.6,380.073,176.27,413.643,188.33z"/>
	<path class="st3" d="M386.563,424.35c-67.07-41.82-131.25-23.35-131.25-23.35s-9.45-19.64-29.45-20.15
		C225.863,380.85,323.923,359.71,386.563,424.35z"/>
	<path class="st3" d="M102.533,348.33c0,0,65.67-2.14,78.37,48.89c-22.82-33.27-69.7-39.19-69.7-39.19c7,5.7,7,19.52,7,19.52
		c-48.49-43-116.76-0.78-118.18,0.11C0.903,376.46,34.773,331.89,102.533,348.33z"/>
	<path class="st3" d="M63.233,324.27c-18.11-0.46-16.98-16.9-16.98-16.9c21.47,1.57,38.16-11.5,38.16-11.5s-0.21,16.16,19.79,18.98
		c0,0,10,6.96,20.66-3.45c0,0,1.68,11.97-5.31,16.96h-0.01c-10.54,1.32-17.76,3.72-18.36,3.92c-0.03,0.01-0.04,0.01-0.04,0.01
		c-13.54-5.49-26.31-7.75-37.91-7.98V324.27z"/>
</g>
</svg>