<!-- Generator: Adobe Illustrator 22.0.0, SVG Export Plug-In  -->
<svg version="1.1"
	 xmlns="http://www.w3.org/2000/svg" xmlns:xlink="http://www.w3.org/1999/xlink" xmlns:a="http://ns.adobe.com/AdobeSVGViewerExtensions/3.0/"
	 x="0px" y="0px" width="451.167px" height="173.515px" viewBox="0 0 451.167 173.515"
	 style="enable-background:new 0 0 451.167 173.515;" xml:space="preserve">
<style type="text/css">
	.st0{fill:#9ED7F2;}
	.st1{fill:#FFFFFF;}
	.st2{fill:#E7F6FD;}
	.st3{fill:#D6E8F2;}
</style>
<defs>
</defs>
<g>
	<g>
		<path class="st0" d="M271.172,33.091c-0.165,0-0.328,0.009-0.489,0.025c-0.975-3.321-3.353-6.033-6.45-7.465
			c-1.13-7.776-7.822-13.749-15.911-13.749c-2.154,0-4.208,0.427-6.086,1.195c-1.218-5.299-5.953-9.254-11.622-9.254
			c-2.657,0-5.103,0.879-7.086,2.347C220.645,2.428,216.108,0,211.001,0c-7.094,0-13.093,4.682-15.079,11.123
			c-1.43-0.605-3.001-0.941-4.651-0.941c-6.591,0-11.935,5.343-11.935,11.935c0,2.744,0.936,5.264,2.492,7.279
			c-5.184,0.634-9.335,4.586-10.268,9.672c-0.069-0.003-0.136-0.01-0.206-0.01c-2.765,0-5.007,2.242-5.007,5.007
			c0,2.765,2.241,5.007,5.007,5.007c0.885,0,1.714-0.231,2.436-0.634c2.18,2.869,5.618,4.73,9.499,4.73
			c0.926,0,1.823-0.116,2.689-0.315c4.62,6.493,12.2,10.733,20.776,10.733c7.921,0,14.997-3.613,19.672-9.281
			c2.866,3.966,7.527,6.55,12.795,6.55c7.871,0,14.394-5.764,15.583-13.301c1.372,0.55,2.866,0.861,4.435,0.861
			c4.282,0,8.026-2.263,10.132-5.65c0.56,0.216,1.166,0.34,1.802,0.34c2.765,0,5.007-2.242,5.007-5.007
			S273.938,33.091,271.172,33.091z"/>
		<path class="st1" d="M172.069,37.188h104.024c-0.429-2.33-2.466-4.096-4.92-4.096c-0.165,0-0.328,0.009-0.489,0.025
			c-0.975-3.321-3.353-6.033-6.45-7.465c-1.13-7.776-7.822-13.749-15.911-13.749c-2.154,0-4.208,0.427-6.086,1.195
			c-1.218-5.299-5.953-9.254-11.622-9.254c-2.657,0-5.103,0.879-7.086,2.347C220.645,2.428,216.108,0,211.001,0
			c-7.094,0-13.093,4.682-15.079,11.123c-1.43-0.605-3.001-0.941-4.651-0.941c-6.591,0-11.935,5.343-11.935,11.935
			c0,2.744,0.936,5.264,2.492,7.279C177.303,29.95,173.567,33.032,172.069,37.188z"/>
		<path class="st2" d="M228.612,33.054c0,3.631-2.943,6.574-6.574,6.574c-3.631,0-6.574-2.943-6.574-6.574
			c0-3.631,2.943-6.574,6.574-6.574C225.669,26.479,228.612,29.423,228.612,33.054z"/>
		
			<ellipse transform="matrix(0.9231 -0.3844 0.3844 0.9231 1.0343 86.3135)" class="st2" cx="216.406" cy="40.57" rx="7.516" ry="7.516"/>
		<path class="st2" d="M271.659,30.762c-1.308-0.949-2.912-1.514-4.651-1.514c-2.049,0-3.911,0.783-5.32,2.058
			c-1.557-3.105-4.76-5.241-8.47-5.241c-1.196,0-2.337,0.231-3.391,0.635c-1.456-1.739-3.642-2.847-6.089-2.847
			c-3.215,0-5.977,1.914-7.225,4.662c-1.014-0.543-2.106-0.96-3.253-1.234c-0.171-4.234-3.648-7.616-7.923-7.616
			c-3.186,0-5.926,1.881-7.191,4.589c-1.738-1.492-3.993-2.399-6.463-2.399c-0.812,0-1.598,0.108-2.354,0.292
			c-2.458-3.619-6.608-5.998-11.313-5.998c-4.092,0-7.761,1.801-10.266,4.65c-1.454-1.844-3.703-3.032-6.233-3.032
			c-4.385,0-7.94,3.555-7.94,7.94c0,1.679,0.524,3.234,1.414,4.517c-1.987,1.253-3.504,3.183-4.21,5.474
			c-3.639,0.724-6.382,3.933-6.382,7.785c0,4.385,3.555,7.94,7.94,7.94c0.456,0,0.9-0.047,1.334-0.121
			c0.567,3.829,3.857,6.771,7.844,6.771c3.358,0,6.223-2.088,7.383-5.035c0.185,0.013,0.368,0.028,0.556,0.028
			c1.57,0,3.03-0.462,4.262-1.248c1.911,3.711,5.771,6.255,10.233,6.255c6.357,0,11.511-5.154,11.511-11.511
			c0-1.863-0.452-3.616-1.238-5.173c0.766-0.202,1.499-0.483,2.181-0.852c0,0.011-0.001,0.021-0.001,0.032
			c0,7.548,6.119,13.667,13.667,13.667c7.548,0,13.667-6.119,13.667-13.667c0-0.282-0.011-0.561-0.028-0.839
			c0.01,0,0.019,0.001,0.028,0.001c0.324,0,0.641-0.025,0.955-0.063c1.535,3.165,4.77,5.353,8.524,5.353
			c2.901,0,5.495-1.307,7.233-3.36c1.248,1.824,3.238,3.095,5.534,3.391c1.308,0.949,2.912,1.514,4.651,1.514
			c4.385,0,7.94-3.555,7.94-7.94C278.576,34.591,275.56,31.265,271.659,30.762z"/>
	</g>
	<path class="st3" d="M210.879,36.022c-0.157,1.784-0.953,3.45-2.209,4.613c-1.255,1.161-2.923,1.832-4.613,1.819
		c-1.689,0.012-3.358-0.66-4.612-1.82c-1.144-1.059-1.879-2.541-2.126-4.144c0.081-0.078,0.179-0.139,0.255-0.223
		c0.562-0.608,1.003-1.322,1.282-2.09c0.26-0.773,0.382-1.589,0.306-2.384c-0.14,1.585-0.847,3.065-1.963,4.099
		c-1.115,1.031-2.597,1.628-4.099,1.617c-1.501,0.01-2.983-0.586-4.098-1.618c-1.117-1.033-1.823-2.513-1.964-4.098
		c-0.077,0.795,0.045,1.611,0.305,2.385c0.28,0.767,0.72,1.481,1.282,2.09c1.125,1.225,2.797,1.934,4.475,1.933
		c1.517,0,3.008-0.604,4.115-1.62c0.003,0.715,0.132,1.434,0.363,2.125c0.315,0.863,0.81,1.667,1.443,2.352
		c1.267,1.379,3.148,2.176,5.036,2.176c1.888-0.001,3.769-0.798,5.035-2.177c0.633-0.685,1.128-1.488,1.443-2.352
		C210.827,37.835,210.965,36.917,210.879,36.022z"/>
	<path class="st3" d="M237.75,34.595c0.086,0.895-0.052,1.813-0.344,2.684c-0.315,0.864-0.81,1.667-1.443,2.352
		c-1.266,1.379-3.147,2.176-5.035,2.177c-1.889,0-3.77-0.797-5.036-2.176c-0.633-0.685-1.128-1.489-1.443-2.352
		c-0.292-0.871-0.43-1.789-0.343-2.684c0.159,1.784,0.954,3.449,2.21,4.612c1.254,1.161,2.922,1.832,4.612,1.82
		c1.69,0.013,3.358-0.659,4.613-1.82C236.798,38.045,237.593,36.38,237.75,34.595z"/>
</g>
<g>
	<path class="st0" d="M447.669,72.81c0.386-5.833-3.612-10.931-9.169-12.108c0.558-1.47,0.914-3.045,1.023-4.696
		c0.592-8.944-6.178-16.674-15.122-17.266c-8.01-0.53-15.031,4.853-16.837,12.406c-2.944-4.305-7.751-7.272-13.358-7.643
		c-2.014-0.133-3.964,0.095-5.807,0.6c-1.624-6.714-7.448-11.894-14.705-12.374c-6.983-0.462-13.21,3.574-15.893,9.618
		c-1.848-1.611-4.211-2.662-6.847-2.836c-6.208-0.411-11.584,4.142-12.284,10.258c-3.104,2.424-5.675,5.513-7.45,9.097
		c-6.582,0.202-12.059,5.373-12.503,12.08c-0.472,7.133,4.927,13.298,12.06,13.77c0.61,0.04,1.209,0.023,1.801-0.02
		c3.387,5.357,8.639,9.443,14.93,11.276c0.915,7.599,7.117,13.716,15.032,14.24c6.567,0.435,12.468-3.108,15.381-8.558
		c0.474,0.074,0.952,0.136,1.439,0.169c4.3,0.285,8.31-1.145,11.39-3.687c2.348,2.53,5.506,4.346,9.173,4.965
		c4.942,0.835,9.737-0.662,13.267-3.687c2.106,1.235,4.514,2.025,7.116,2.198c8.944,0.592,16.674-6.179,17.266-15.122
		c0.043-0.652,0.036-1.295,0.003-1.932C442.968,82.861,447.296,78.44,447.669,72.81z"/>
	<path class="st0" d="M447.669,72.81c0.386-5.833-3.612-10.931-9.169-12.108c0.558-1.47,0.914-3.045,1.023-4.696
		c0.592-8.944-6.178-16.674-15.122-17.266c-8.01-0.53-15.031,4.853-16.837,12.406c-2.944-4.305-7.751-7.272-13.358-7.643
		c-2.014-0.133-3.964,0.095-5.807,0.6c-1.624-6.714-7.448-11.894-14.705-12.374c-6.983-0.462-13.21,3.574-15.893,9.618
		c-1.848-1.611-4.211-2.662-6.847-2.836c-6.208-0.411-11.584,4.142-12.284,10.258c-3.104,2.424-5.675,5.513-7.45,9.097
		c-6.582,0.202-12.059,5.373-12.503,12.08c-0.472,7.133,4.927,13.298,12.06,13.77c0.61,0.04,1.209,0.023,1.801-0.02
		c3.387,5.357,8.639,9.443,14.93,11.276c0.915,7.599,7.117,13.716,15.032,14.24c6.567,0.435,12.468-3.108,15.381-8.558
		c0.474,0.074,0.952,0.136,1.439,0.169c4.3,0.285,8.31-1.145,11.39-3.687c2.348,2.53,5.506,4.346,9.173,4.965
		c4.942,0.835,9.737-0.662,13.267-3.687c2.106,1.235,4.514,2.025,7.116,2.198c8.944,0.592,16.674-6.179,17.266-15.122
		c0.043-0.652,0.036-1.295,0.003-1.932C442.968,82.861,447.296,78.44,447.669,72.81z"/>
	<path class="st1" d="M446.718,76.701c0.526-1.2,0.859-2.508,0.95-3.892c0.386-5.833-3.612-10.931-9.169-12.108
		c0.559-1.47,0.914-3.045,1.023-4.696c0.592-8.944-6.178-16.674-15.122-17.266c-8.01-0.53-15.03,4.853-16.837,12.406
		c-2.944-4.305-7.751-7.272-13.358-7.643c-2.014-0.133-3.964,0.095-5.807,0.6c-1.624-6.714-7.448-11.894-14.705-12.374
		c-6.983-0.462-13.21,3.574-15.893,9.618c-1.848-1.611-4.211-2.662-6.847-2.836c-6.208-0.411-11.584,4.142-12.284,10.258
		c-3.104,2.424-5.675,5.513-7.45,9.097c-6.012,0.184-11.09,4.521-12.264,10.38L446.718,76.701z"/>
	<path class="st2" d="M442.512,62.815c-1.206-0.08-2.37,0.082-3.454,0.432c-1.271-6.207-6.541-11.06-13.169-11.499
		c-3.985-0.264-7.698,1.117-10.478,3.561c-1.97-1.249-4.271-2.037-6.762-2.202c-4.339-0.287-8.348,1.384-11.189,4.246
		c-1.443-3.447-4.727-5.972-8.709-6.235c-5.607-0.371-10.453,3.873-10.824,9.48c-0.039,0.595-0.016,1.179,0.045,1.753
		c-1.776-2.071-4.347-3.456-7.284-3.651c-2.607-0.173-5.051,0.627-6.99,2.08c-1.954-2.559-4.951-4.299-8.416-4.529
		c-1.253-0.083-2.469,0.044-3.623,0.338c-1.937-2.791-5.075-4.711-8.729-4.953c-6.054-0.401-11.318,3.94-12.185,9.84
		c-7.822-0.356-14.53,5.599-15.05,13.449c-0.526,7.951,5.493,14.824,13.444,15.35c0.508,0.034,1.012,0.039,1.51,0.02
		c2.039,4.903,6.704,8.497,12.362,8.872c3.775,0.25,7.296-0.988,10.021-3.195c1.377,0.717,2.918,1.172,4.566,1.281
		c6.277,0.415,11.704-4.265,12.262-10.498c1.394,1.804,3.519,3.031,5.973,3.193c4.541,0.301,8.466-3.137,8.767-7.678
		c0.019-0.291,0.022-0.579,0.011-0.864c0.036-0.035,0.072-0.068,0.107-0.103c1.778,2.119,4.377,3.543,7.355,3.741
		c3.839,0.254,7.324-1.593,9.356-4.549c0.338,0.163,0.679,0.32,1.032,0.457c1.285,3.977,4.881,6.969,9.305,7.262
		c5.117,0.339,9.615-3.044,10.862-7.83c0.445,0.071,0.895,0.128,1.354,0.159c3.863,0.256,7.464-1.042,10.213-3.347
		c1.544,2.314,4.101,3.915,7.091,4.113c5.107,0.338,9.52-3.528,9.858-8.634C451.485,67.566,447.619,63.153,442.512,62.815z"/>
	<path class="st3" d="M403.303,68.885c0.059,0.792-0.172,1.586-0.599,2.324c-0.456,0.73-1.141,1.393-1.996,1.939
		c-1.711,1.101-4.181,1.64-6.614,1.48c-2.433-0.161-4.811-1.021-6.363-2.338c-0.776-0.655-1.367-1.402-1.723-2.186
		c-0.326-0.788-0.45-1.606-0.286-2.383c0.101,1.578,1.029,3.106,2.58,4.233c1.549,1.125,3.659,1.856,5.837,1.99
		c2.176,0.155,4.365-0.292,6.049-1.202C401.875,71.829,402.997,70.436,403.303,68.885z"/>
	<path class="st3" d="M360.058,78.782c0.062,0.961-0.203,1.925-0.689,2.824c-0.518,0.889-1.294,1.697-2.262,2.365
		c-1.936,1.346-4.724,2.014-7.468,1.833c-2.743-0.181-5.42-1.211-7.162-2.801c-0.871-0.79-1.533-1.693-1.93-2.643
		c-0.363-0.955-0.499-1.946-0.309-2.89c0.104,1.914,1.142,3.763,2.886,5.122c1.74,1.356,4.116,2.231,6.571,2.382
		c2.454,0.176,4.924-0.379,6.829-1.493C358.431,82.362,359.704,80.666,360.058,78.782z"/>
	<path class="st3" d="M432.102,67.338c0.031,0.859-0.167,1.725-0.519,2.535c-0.375,0.802-0.929,1.535-1.616,2.145
		c-1.375,1.229-3.338,1.863-5.259,1.736c-1.921-0.127-3.784-1.014-4.986-2.413c-0.6-0.696-1.053-1.495-1.319-2.34
		c-0.242-0.85-0.324-1.734-0.18-2.582c0.049,1.711,0.753,3.352,1.957,4.545c1.203,1.191,2.857,1.943,4.576,2.046
		c1.718,0.126,3.457-0.402,4.807-1.424C430.915,70.562,431.829,69.029,432.102,67.338z"/>
</g>
<g>
	<path class="st0" d="M311.203,138.86c-1.238,0-2.404,0.301-3.439,0.822c-2.099-2.835-5.457-4.681-9.255-4.681
		c-1.055,0-2.073,0.154-3.044,0.42c-1.095-5.222-5.724-9.144-11.272-9.144c-1.889,0-3.667,0.464-5.24,1.269
		c0.313-1.344,0.496-2.738,0.496-4.177c0-10.135-8.216-18.351-18.351-18.351c-1.778,0-3.491,0.266-5.117,0.738
		c-1.105-9.079-8.825-16.116-18.202-16.116c-5.157,0-9.809,2.134-13.143,5.558c-4.892-4.564-11.439-7.378-18.657-7.378
		c-12.66,0-23.283,8.603-26.419,20.272c-0.63-0.065-1.269-0.101-1.917-0.101c-7.258,0-13.513,4.224-16.49,10.338
		c-1.241-0.457-2.577-0.72-3.977-0.72c-5.802,0-10.589,4.294-11.389,9.876c-1.713-1.01-3.703-1.599-5.835-1.599
		c-5.547,0-10.176,3.922-11.272,9.144c-0.971-0.266-1.989-0.42-3.044-0.42c-3.798,0-7.156,1.846-9.255,4.681
		c-1.035-0.522-2.201-0.822-3.439-0.822c-4.231,0-7.661,3.43-7.661,7.661s3.43,7.661,7.661,7.661c1.238,0,2.404-0.301,3.439-0.822
		c2.099,2.835,5.457,4.681,9.255,4.681c2.424,0,4.67-0.752,6.526-2.031c1.908,3.726,5.777,6.281,10.251,6.281
		c2.929,0,5.595-1.102,7.628-2.903c1.902,3.744,5.78,6.314,10.267,6.314c3.934,0,7.403-1.975,9.482-4.984
		c1.529,0.749,3.241,1.182,5.058,1.182c3.654,0,6.904-1.706,9.014-4.359c0.932,5.427,5.648,9.56,11.341,9.56
		c1.465,0,2.861-0.284,4.15-0.783c4.915,4.692,11.558,7.589,18.889,7.589c10.298,0,19.258-5.691,23.935-14.093
		c1.961,1.547,4.431,2.477,7.122,2.477c1.817,0,3.529-0.432,5.058-1.182c2.078,3.009,5.548,4.984,9.482,4.984
		c4.487,0,8.365-2.571,10.267-6.314c2.033,1.801,4.698,2.903,7.628,2.903c4.474,0,8.343-2.555,10.251-6.281
		c1.856,1.279,4.102,2.031,6.525,2.031c3.798,0,7.156-1.846,9.255-4.681c1.035,0.522,2.201,0.822,3.439,0.822
		c4.231,0,7.661-3.43,7.661-7.661C318.864,142.29,315.434,138.86,311.203,138.86z"/>
	<path class="st1" d="M318.844,146.137c-0.201-4.052-3.54-7.277-7.642-7.277c-1.238,0-2.404,0.301-3.439,0.822
		c-2.099-2.835-5.457-4.681-9.255-4.681c-1.055,0-2.073,0.154-3.044,0.42c-1.095-5.222-5.724-9.144-11.272-9.144
		c-1.889,0-3.667,0.464-5.24,1.269c0.314-1.344,0.496-2.738,0.496-4.177c0-10.135-8.216-18.351-18.351-18.351
		c-1.778,0-3.491,0.266-5.117,0.738c-1.105-9.079-8.825-16.116-18.202-16.116c-5.157,0-9.809,2.134-13.143,5.558
		c-4.892-4.564-11.439-7.378-18.657-7.378c-12.66,0-23.283,8.603-26.419,20.272c-0.63-0.065-1.269-0.101-1.917-0.101
		c-7.258,0-13.513,4.224-16.49,10.338c-1.241-0.457-2.577-0.72-3.977-0.72c-5.802,0-10.589,4.294-11.389,9.875
		c-1.713-1.01-3.703-1.599-5.835-1.599c-5.547,0-10.176,3.922-11.272,9.144c-0.971-0.266-1.989-0.42-3.044-0.42
		c-3.798,0-7.156,1.846-9.255,4.681c-1.035-0.522-2.201-0.822-3.439-0.822c-4.231,0-7.661,3.43-7.661,7.661c0,0.003,0,0.005,0,0.007
		H318.844z"/>
	<path class="st2" d="M316.976,142.232c-0.097,0-0.187,0.024-0.283,0.029c-0.998-4.006-4.609-6.979-8.924-6.979
		c-1.853,0-3.575,0.552-5.02,1.495c-2.188-5.097-7.249-8.669-13.147-8.669c-2.751,0-5.312,0.79-7.493,2.137
		c-0.722-3.955-4.179-6.955-8.342-6.955c-0.878,0-1.725,0.134-2.522,0.381c-2.162-5.155-7.255-8.776-13.194-8.776
		c-6.6,0-12.141,4.477-13.791,10.555c-0.896-1.355-2.107-2.48-3.529-3.277c0.04-0.388,0.062-0.782,0.062-1.181
		c0-6.268-5.082-11.35-11.35-11.35c-5.047,0-9.319,3.296-10.794,7.851c-2.86,0.081-5.51,0.992-7.712,2.515
		c-2.432-4.426-7.135-7.427-12.542-7.427c-5.84,0-10.855,3.505-13.077,8.522c-1.617-0.887-3.473-1.392-5.447-1.392
		c-3.408,0-6.457,1.509-8.537,3.887c-1.559-0.806-3.324-1.268-5.199-1.268c-3.668,0-6.921,1.748-8.996,4.448
		c-2.385-1.78-5.333-2.848-8.539-2.848c-6.558,0-12.072,4.419-13.76,10.438c-1.207-0.437-2.503-0.688-3.861-0.688
		c-2.722,0-5.218,0.96-7.174,2.557c-1.955-1.597-4.452-2.557-7.174-2.557c-6.269,0-11.35,5.082-11.35,11.35
		c0,6.269,5.082,11.35,11.35,11.35c0.047,0,0.092-0.006,0.139-0.007c0.642,3.303,3.544,5.798,7.035,5.798
		c3.491,0,6.393-2.495,7.035-5.798c0.047,0.001,0.092,0.007,0.139,0.007c1.741,0,3.384-0.404,4.858-1.104
		c1.966,3.38,5.617,5.659,9.809,5.659c3.725,0,7.021-1.803,9.091-4.575c0.714,0.238,1.465,0.398,2.26,0.398
		c3.59,0,6.538-2.645,7.064-6.088c0.037,0,0.074-0.005,0.111-0.006c2.591,3.656,6.847,6.05,11.669,6.05
		c3.348,0,6.421-1.159,8.858-3.086c1.127,2.485,3.617,4.221,6.523,4.221c2.264,0,4.258-1.07,5.573-2.708
		c2.497,4.179,7.052,6.986,12.274,6.986c0.805,0,1.589-0.083,2.357-0.21c1.637,4.256,5.753,7.282,10.586,7.282
		c6.268,0,11.35-5.081,11.35-11.35c0-0.2-0.02-0.395-0.03-0.593c0.159-0.045,0.32-0.085,0.476-0.135
		c2.525,4.057,7.01,6.766,12.141,6.766c6.044,0,11.202-3.755,13.297-9.055c1.444,1.111,3.102,1.949,4.907,2.446
		c1.958,5.566,7.247,9.562,13.482,9.562c6.488,0,11.96-4.324,13.711-10.244c4.014-0.488,7.506-2.638,9.784-5.743
		c1.676,1.747,4.029,2.84,6.641,2.84c1.552,0,3.011-0.388,4.294-1.066c1.17,1.427,2.924,2.357,4.913,2.357
		c3.522,0,6.378-2.856,6.378-6.378C323.354,145.088,320.498,142.232,316.976,142.232z"/>
	<path class="st3" d="M204.364,130.668c0.082,0.853-0.049,1.728-0.328,2.558c-0.3,0.823-0.772,1.589-1.376,2.242
		c-1.207,1.314-3,2.075-4.8,2.075c-1.8,0-3.594-0.76-4.801-2.074c-0.603-0.653-1.075-1.419-1.376-2.243
		c-0.278-0.83-0.41-1.705-0.327-2.559c0.151,1.701,0.909,3.288,2.107,4.396c1.196,1.107,2.786,1.747,4.396,1.736
		c1.611,0.012,3.201-0.628,4.397-1.735C203.456,133.956,204.215,132.369,204.364,130.668z"/>
	<path class="st3" d="M229.661,141.274c0.111,1.152-0.067,2.334-0.443,3.455c-0.405,1.112-1.043,2.146-1.857,3.028
		c-1.63,1.775-4.051,2.801-6.482,2.802c-2.431,0-4.853-1.026-6.483-2.801c-0.815-0.882-1.452-1.917-1.858-3.028
		c-0.376-1.121-0.553-2.303-0.442-3.455c0.204,2.297,1.228,4.44,2.846,5.937c1.615,1.494,3.762,2.359,5.937,2.344
		c2.175,0.016,4.323-0.848,5.939-2.342C228.434,145.715,229.458,143.571,229.661,141.274z"/>
	<path class="st3" d="M278.056,138.156c0.111,1.152-0.067,2.334-0.443,3.455c-0.405,1.112-1.043,2.146-1.858,3.028
		c-1.63,1.775-4.051,2.801-6.482,2.802c-2.431,0-4.853-1.026-6.484-2.801c-0.815-0.882-1.452-1.917-1.858-3.028
		c-0.376-1.121-0.553-2.303-0.442-3.455c0.204,2.297,1.228,4.44,2.846,5.937c1.615,1.494,3.762,2.359,5.937,2.344
		c2.175,0.016,4.323-0.848,5.938-2.342C276.829,142.597,277.853,140.453,278.056,138.156z"/>
	<path class="st3" d="M162.552,134.779c0.081,0.838-0.048,1.698-0.322,2.513c-0.295,0.809-0.759,1.561-1.351,2.202
		c-1.185,1.291-2.947,2.038-4.715,2.038c-1.768,0-3.53-0.747-4.716-2.038c-0.593-0.642-1.056-1.394-1.351-2.203
		c-0.273-0.815-0.403-1.675-0.321-2.513c0.148,1.671,0.893,3.23,2.07,4.319c1.175,1.087,2.736,1.716,4.319,1.705
		c1.582,0.012,3.144-0.617,4.32-1.704C161.66,138.01,162.405,136.45,162.552,134.779z"/>
</g>
<g>
	<path class="st0" d="M108.391,52.638c-1.704,0-3.332,0.31-4.85,0.852c-4.151-5.283-10.583-8.689-17.824-8.689
		c-0.519,0-1.026,0.043-1.536,0.077c-4.001-12.177-15.446-20.977-28.961-20.977c-14.639,0-26.856,10.319-29.807,24.076
		c-0.23-0.011-0.457-0.035-0.69-0.035c-7.981,0-14.45,6.47-14.45,14.45c0,1.873,0.368,3.658,1.017,5.3
		c-4.028,1.099-6.992,4.774-6.992,9.15c0,5.243,4.251,9.494,9.494,9.494c1.29,0,2.518-0.26,3.639-0.725
		c1.973,5.081,6.897,8.688,12.675,8.688c6.873,0,12.54-5.101,13.46-11.721c3.592,1.487,7.525,2.317,11.655,2.317
		c4.672,0,9.08-1.081,13.038-2.959c4.159,5.015,10.435,8.211,17.46,8.211c7.512,0,14.152-3.669,18.278-9.296
		c1.387,0.443,2.863,0.686,4.396,0.686c7.981,0,14.45-6.47,14.45-14.45S116.372,52.638,108.391,52.638z"/>
	<path class="st1" d="M11.255,67.705H122.81c0.009-0.206,0.031-0.408,0.031-0.617c0-7.981-6.47-14.45-14.45-14.45
		c-1.704,0-3.332,0.31-4.85,0.852c-4.151-5.283-10.583-8.689-17.824-8.689c-0.519,0-1.026,0.043-1.536,0.077
		c-4.001-12.177-15.446-20.977-28.961-20.977c-14.639,0-26.856,10.319-29.807,24.076c-0.23-0.011-0.457-0.035-0.69-0.035
		c-7.981,0-14.45,6.47-14.45,14.45c0,1.873,0.368,3.658,1.017,5.3C11.277,67.696,11.267,67.702,11.255,67.705z"/>
	<circle class="st2" cx="38.188" cy="65.044" r="8.117"/>
	<path class="st2" d="M120.418,58.895c-1.86,0-3.588,0.563-5.025,1.525c-1.984-1.638-4.528-2.623-7.302-2.623
		c-1.865,0-3.621,0.455-5.178,1.244c-1.939-3.592-5.736-6.034-10.105-6.034c-0.933,0-1.836,0.124-2.704,0.334
		c-3.282-4.121-8.333-6.771-14.011-6.771c-4.202,0-8.057,1.457-11.112,3.88c-3.108-4.74-8.46-7.877-14.551-7.877
		c-8.517,0-15.592,6.124-17.092,14.206c-2.1-2.312-5.12-3.772-8.489-3.772c-4.363,0-8.156,2.435-10.098,6.019
		c-1.556-1.266-3.54-2.027-5.703-2.027C4.051,56.998,0,61.049,0,66.046c0,4.997,4.051,9.048,9.048,9.048
		c1.035,0,2.026-0.182,2.953-0.503c-0.009,0.167-0.025,0.333-0.025,0.503c0,4.997,4.051,9.048,9.048,9.048
		c3.394,0,6.348-1.872,7.896-4.637c0.795,0.381,1.675,0.612,2.615,0.612c1.097,0,2.112-0.313,3-0.821
		c1.678,4.257,5.818,7.274,10.671,7.274c5.961,0,10.858-4.546,11.42-10.36c1.527-0.583,2.946-1.373,4.232-2.339
		c3.155,5.109,8.789,8.525,15.235,8.525c2.868,0,5.568-0.691,7.971-1.889c1.569,2.688,4.476,4.5,7.813,4.5
		c4.285,0,7.865-2.981,8.801-6.981c2,1.695,4.585,2.723,7.412,2.723c3.662,0,6.916-1.721,9.017-4.392
		c1.026,0.404,2.14,0.633,3.31,0.633c4.997,0,9.048-4.051,9.048-9.048C129.466,62.945,125.416,58.895,120.418,58.895z
		 M35.316,69.294c-0.014-0.011-0.028-0.023-0.042-0.035c0.067-0.146,0.135-0.289,0.196-0.438c0.022,0.037,0.044,0.073,0.067,0.109
		C35.461,69.05,35.388,69.172,35.316,69.294z"/>
	<path class="st3" d="M88.814,60.643c0.094,0.975-0.056,1.976-0.375,2.924c-0.343,0.941-0.883,1.816-1.572,2.563
		c-1.379,1.503-3.429,2.371-5.486,2.372c-2.058,0-4.108-0.869-5.488-2.371c-0.69-0.747-1.229-1.622-1.572-2.563
		c-0.318-0.949-0.468-1.949-0.374-2.924c0.173,1.944,1.039,3.758,2.409,5.025c1.367,1.265,3.184,1.996,5.025,1.984
		c1.841,0.014,3.659-0.718,5.026-1.983C87.776,64.401,88.643,62.587,88.814,60.643z"/>
	<path class="st3" d="M53.85,59.62c0.13,1.346-0.078,2.727-0.517,4.036c-0.473,1.299-1.219,2.507-2.17,3.538
		c-1.904,2.074-4.734,3.273-7.574,3.274c-2.841,0-5.67-1.199-7.576-3.273c-0.952-1.03-1.696-2.24-2.17-3.538
		c-0.439-1.309-0.647-2.691-0.516-4.037c0.238,2.683,1.435,5.188,3.325,6.937c1.887,1.746,4.396,2.756,6.937,2.738
		c2.542,0.019,5.051-0.991,6.938-2.737C52.416,64.809,53.613,62.304,53.85,59.62z"/>
</g>
</svg>