<!-- Generator: Adobe Illustrator 22.0.0, SVG Export Plug-In  -->
<svg version="1.1"
	 xmlns="http://www.w3.org/2000/svg" xmlns:xlink="http://www.w3.org/1999/xlink" xmlns:a="http://ns.adobe.com/AdobeSVGViewerExtensions/3.0/"
	 x="0px" y="0px" width="258.241px" height="85.695px" viewBox="0 0 258.241 85.695"
	 style="enable-background:new 0 0 258.241 85.695;" xml:space="preserve">
<style type="text/css">
	.st0{fill:#9ED7F2;}
	.st1{fill:#FFFFFF;}
	.st2{fill:#E7F6FD;}
	.st3{fill:#D6E8F2;}
	.st4{opacity:0.3;fill:#D6E8F2;}
</style>
<defs>
</defs>
<g>
	<path class="st0" d="M205.923,51.04c-1.238,0-2.404,0.301-3.439,0.822c-2.098-2.835-5.457-4.681-9.255-4.681
		c-1.055,0-2.073,0.154-3.044,0.42c-1.095-5.222-5.724-9.143-11.272-9.143c-1.889,0-3.667,0.463-5.24,1.269
		c0.313-1.344,0.496-2.738,0.496-4.177c0-10.135-8.216-18.351-18.351-18.351c-1.778,0-3.491,0.266-5.117,0.738
		c-1.105-9.079-8.825-16.116-18.202-16.116c-5.157,0-9.809,2.134-13.143,5.558C114.463,2.814,107.917,0,100.698,0
		c-12.66,0-23.283,8.603-26.419,20.272c-0.63-0.065-1.269-0.101-1.917-0.101c-7.258,0-13.513,4.224-16.49,10.338
		c-1.241-0.457-2.577-0.72-3.977-0.72c-5.802,0-10.589,4.294-11.389,9.875c-1.713-1.01-3.703-1.599-5.835-1.599
		c-5.547,0-10.176,3.922-11.272,9.144c-0.971-0.266-1.989-0.42-3.044-0.42c-3.798,0-7.156,1.846-9.255,4.681
		c-1.035-0.522-2.201-0.822-3.439-0.822C3.43,50.649,0,54.079,0,58.31s3.43,7.661,7.661,7.661c1.238,0,2.404-0.301,3.439-0.822
		c2.099,2.835,5.457,4.681,9.255,4.681c2.424,0,4.67-0.752,6.526-2.031c1.908,3.726,5.777,6.281,10.251,6.281
		c2.929,0,5.595-1.102,7.628-2.903c1.902,3.744,5.78,6.314,10.267,6.314c3.934,0,7.403-1.975,9.482-4.984
		c1.529,0.749,3.241,1.182,5.058,1.182c3.654,0,6.904-1.706,9.014-4.36c0.932,5.427,5.648,9.56,11.341,9.56
		c1.465,0,2.861-0.284,4.15-0.783c4.915,4.692,11.558,7.589,18.889,7.589c10.298,0,19.258-5.691,23.935-14.093
		c1.961,1.547,4.431,2.477,7.123,2.477c1.817,0,3.529-0.432,5.058-1.182c2.078,3.009,5.548,4.984,9.482,4.984
		c4.487,0,8.365-2.571,10.267-6.314c2.033,1.801,4.698,2.903,7.628,2.903c4.474,0,8.343-2.555,10.251-6.281
		c1.856,1.279,4.102,2.031,6.525,2.031c3.798,0,7.156-1.846,9.255-4.681c1.035,0.522,2.201,0.822,3.439,0.822
		c4.231,0,7.661-3.43,7.661-7.661C213.584,54.47,210.154,51.04,205.923,51.04z"/>
	<path class="st1" d="M213.565,58.317c-0.201-4.052-3.54-7.277-7.642-7.277c-1.238,0-2.404,0.301-3.439,0.822
		c-2.098-2.835-5.457-4.681-9.255-4.681c-1.055,0-2.073,0.154-3.044,0.42c-1.095-5.222-5.724-9.143-11.272-9.143
		c-1.889,0-3.667,0.463-5.24,1.269c0.314-1.344,0.496-2.738,0.496-4.177c0-10.135-8.216-18.351-18.351-18.351
		c-1.778,0-3.491,0.266-5.117,0.738c-1.105-9.079-8.825-16.116-18.202-16.116c-5.157,0-9.809,2.134-13.143,5.558
		C114.463,2.814,107.917,0,100.698,0c-12.66,0-23.283,8.603-26.419,20.272c-0.63-0.065-1.269-0.101-1.917-0.101
		c-7.258,0-13.513,4.224-16.49,10.338c-1.241-0.457-2.577-0.72-3.977-0.72c-5.802,0-10.589,4.294-11.389,9.875
		c-1.713-1.01-3.703-1.599-5.835-1.599c-5.547,0-10.176,3.922-11.272,9.144c-0.971-0.266-1.989-0.42-3.044-0.42
		c-3.798,0-7.156,1.846-9.255,4.681c-1.035-0.522-2.201-0.822-3.439-0.822C3.43,50.649,0,54.079,0,58.31c0,0.003,0,0.005,0,0.007
		H213.565z"/>
	<path class="st2" d="M211.696,54.412c-0.097,0-0.187,0.024-0.283,0.029c-0.998-4.006-4.609-6.979-8.924-6.979
		c-1.853,0-3.575,0.553-5.02,1.495c-2.188-5.097-7.249-8.668-13.147-8.668c-2.751,0-5.312,0.79-7.493,2.137
		c-0.722-3.955-4.179-6.955-8.342-6.955c-0.878,0-1.725,0.134-2.522,0.381c-2.162-5.155-7.255-8.776-13.194-8.776
		c-6.6,0-12.141,4.477-13.791,10.555c-0.896-1.355-2.107-2.48-3.529-3.277c0.04-0.388,0.062-0.782,0.062-1.181
		c0-6.268-5.082-11.35-11.35-11.35c-5.047,0-9.319,3.296-10.795,7.851c-2.86,0.081-5.51,0.992-7.712,2.515
		c-2.432-4.426-7.135-7.427-12.542-7.427c-5.84,0-10.855,3.505-13.077,8.522c-1.617-0.886-3.473-1.392-5.447-1.392
		c-3.408,0-6.457,1.509-8.537,3.887c-1.559-0.806-3.323-1.268-5.199-1.268c-3.668,0-6.921,1.748-8.996,4.448
		c-2.385-1.78-5.333-2.847-8.539-2.847c-6.558,0-12.072,4.419-13.76,10.438c-1.207-0.437-2.503-0.688-3.861-0.688
		c-2.722,0-5.218,0.96-7.174,2.557c-1.955-1.597-4.452-2.557-7.174-2.557C5.082,45.861,0,50.943,0,57.211
		c0,6.268,5.082,11.35,11.35,11.35c0.047,0,0.092-0.006,0.139-0.007c0.642,3.303,3.544,5.798,7.035,5.798
		c3.491,0,6.393-2.495,7.035-5.798c0.047,0.001,0.092,0.007,0.139,0.007c1.741,0,3.384-0.404,4.858-1.104
		c1.966,3.38,5.617,5.659,9.809,5.659c3.725,0,7.021-1.803,9.091-4.575c0.714,0.239,1.465,0.398,2.259,0.398
		c3.59,0,6.538-2.645,7.064-6.088c0.037,0,0.074-0.005,0.111-0.006c2.591,3.656,6.847,6.05,11.669,6.05
		c3.348,0,6.421-1.159,8.858-3.086c1.127,2.485,3.617,4.221,6.523,4.221c2.264,0,4.258-1.07,5.573-2.708
		c2.497,4.179,7.052,6.986,12.274,6.986c0.805,0,1.589-0.083,2.357-0.21c1.637,4.256,5.753,7.282,10.586,7.282
		c6.268,0,11.35-5.081,11.35-11.35c0-0.2-0.02-0.395-0.03-0.593c0.159-0.045,0.32-0.084,0.476-0.135
		c2.525,4.057,7.01,6.766,12.141,6.766c6.044,0,11.202-3.755,13.296-9.055c1.444,1.111,3.102,1.949,4.907,2.446
		c1.958,5.566,7.247,9.562,13.482,9.562c6.489,0,11.96-4.323,13.711-10.244c4.014-0.488,7.506-2.638,9.784-5.743
		c1.676,1.747,4.029,2.84,6.641,2.84c1.552,0,3.011-0.388,4.294-1.066c1.17,1.427,2.924,2.357,4.913,2.357
		c3.523,0,6.378-2.856,6.378-6.378C218.074,57.268,215.219,54.412,211.696,54.412z"/>
	<path class="st3" d="M99.085,42.848c0.082,0.853-0.049,1.728-0.328,2.558c-0.3,0.823-0.772,1.589-1.376,2.242
		c-1.207,1.315-3,2.075-4.8,2.075c-1.8,0-3.594-0.76-4.801-2.074c-0.603-0.653-1.075-1.419-1.375-2.243
		c-0.278-0.83-0.41-1.705-0.327-2.559c0.151,1.701,0.909,3.288,2.107,4.396c1.196,1.107,2.786,1.747,4.396,1.736
		c1.611,0.012,3.201-0.628,4.397-1.735C98.176,46.136,98.935,44.549,99.085,42.848z"/>
	<path class="st3" d="M124.381,53.454c0.111,1.152-0.067,2.334-0.443,3.455c-0.405,1.112-1.043,2.146-1.857,3.028
		c-1.63,1.775-4.051,2.801-6.482,2.802c-2.431,0-4.853-1.026-6.483-2.801c-0.815-0.882-1.452-1.917-1.858-3.028
		c-0.376-1.121-0.553-2.303-0.442-3.455c0.204,2.297,1.228,4.44,2.845,5.937c1.615,1.494,3.762,2.359,5.937,2.344
		c2.175,0.016,4.323-0.848,5.938-2.342C123.154,57.895,124.178,55.751,124.381,53.454z"/>
	<path class="st3" d="M172.776,50.336c0.111,1.152-0.067,2.334-0.443,3.455c-0.405,1.112-1.043,2.146-1.858,3.028
		c-1.63,1.775-4.051,2.801-6.482,2.802c-2.431,0-4.853-1.026-6.484-2.801c-0.815-0.882-1.452-1.917-1.858-3.028
		c-0.376-1.121-0.553-2.303-0.442-3.455c0.204,2.297,1.228,4.44,2.846,5.937c1.615,1.494,3.762,2.359,5.937,2.344
		c2.175,0.016,4.323-0.848,5.938-2.342C171.549,54.777,172.574,52.633,172.776,50.336z"/>
	<path class="st3" d="M57.272,46.959c0.081,0.838-0.049,1.698-0.322,2.513c-0.295,0.809-0.759,1.561-1.351,2.202
		c-1.185,1.291-2.947,2.038-4.715,2.038c-1.768,0-3.53-0.746-4.716-2.037c-0.593-0.642-1.056-1.394-1.351-2.203
		c-0.273-0.815-0.403-1.675-0.321-2.513c0.148,1.671,0.893,3.23,2.07,4.319c1.175,1.087,2.737,1.716,4.319,1.705
		c1.582,0.012,3.144-0.617,4.32-1.704C56.38,50.19,57.125,48.63,57.272,46.959z"/>
</g>
<path class="st4" d="M255.584,60.305c-0.02-0.031-0.044-0.059-0.065-0.089c-0.005-0.007-0.01-0.014-0.016-0.021
	c-0.058-0.08-0.12-0.158-0.184-0.233c-0.01-0.011-0.02-0.022-0.03-0.033c-0.062-0.07-0.126-0.138-0.193-0.203
	c-0.015-0.014-0.031-0.028-0.046-0.042c-0.043-0.04-0.085-0.081-0.13-0.118c-0.668-1.455-2.132-2.467-3.838-2.467
	c-0.673,0-1.305,0.163-1.869,0.443c-0.223-0.114-0.458-0.207-0.698-0.288c-1.052-1.945-3.054-3.298-5.385-3.436
	c-0.208-0.135-0.423-0.259-0.649-0.365c-0.271-0.126-0.554-0.23-0.848-0.309c-0.44-0.119-0.903-0.182-1.381-0.182l0,0l0,0
	c-0.566,0-1.107,0.099-1.618,0.264c-0.178-0.25-0.386-0.477-0.617-0.678c0.016-0.143,0.031-0.286,0.04-0.431
	c0.01-0.163,0.015-0.327,0.015-0.492c0-4.656-3.774-8.43-8.43-8.43c-0.204,0-0.406,0.008-0.607,0.023
	c-0.601,0.044-1.184,0.154-1.744,0.316c-0.507-4.171-4.054-7.403-8.362-7.403c-0.888,0-1.744,0.138-2.548,0.393
	c-0.268,0.085-0.53,0.183-0.785,0.294c-1.022,0.442-1.939,1.08-2.705,1.867c-0.421-0.393-0.869-0.758-1.341-1.091
	c-0.629-0.444-1.3-0.833-2.007-1.158c-1.236-0.569-2.581-0.943-3.994-1.081c-0.202-0.02-0.406-0.035-0.61-0.045
	c-0.205-0.01-0.411-0.015-0.618-0.015l0,0h0c-1.454,0-2.849,0.247-4.147,0.701c-0.649,0.227-1.273,0.506-1.869,0.832
	c-0.298,0.163-0.588,0.338-0.87,0.523c-0.435,0.286-0.845,0.606-1.241,0.943c-0.512,0.436-0.988,0.912-1.424,1.424
	c-0.538,0.631-1.022,1.31-1.429,2.039c-0.495,0.889-0.886,1.845-1.157,2.85c-0.29-0.03-0.583-0.046-0.881-0.046l0,0l0,0
	c-0.625,0-1.234,0.068-1.82,0.198c-0.195,0.043-0.388,0.093-0.578,0.15c-0.38,0.113-0.748,0.252-1.104,0.415
	c-0.178,0.081-0.352,0.169-0.522,0.262c-1.536,0.84-2.782,2.145-3.551,3.725c-0.285-0.105-0.581-0.188-0.886-0.244
	c-0.305-0.056-0.619-0.087-0.941-0.087h0l0,0c-0.333,0-0.659,0.031-0.975,0.09c-0.948,0.177-1.806,0.607-2.503,1.217
	c-0.17,0.149-0.327,0.313-0.477,0.482c-0.113,0.128-0.22,0.262-0.321,0.401c-0.175,0.242-0.33,0.498-0.463,0.768
	c-0.933,0.114-1.804,0.422-2.574,0.885c-0.197-0.023-0.396-0.041-0.6-0.041c-2.23,0-4.137,1.379-4.916,3.331
	c-0.043,0.107-0.079,0.218-0.115,0.329c-0.413,0.073-0.808,0.197-1.181,0.361c-0.12-0.009-0.242-0.013-0.365-0.013
	c-0.549,0-1.075,0.092-1.572,0.248c-0.757-0.429-1.632-0.675-2.565-0.675c-2.88,0-5.214,2.334-5.214,5.214
	c0,0.085,0.009,0.168,0.013,0.252c-0.006,0.084-0.013,0.167-0.013,0.252l0,0l0,0c0,0.001,0,0.001,0,0.002c0,0.001,0,0.001,0,0.002
	l0,0c0.001,0.793,0.267,1.522,0.71,2.11c0.904,1.551,2.58,2.596,4.504,2.596c0.022,0,0.042-0.003,0.064-0.003
	c0.295,1.517,1.628,2.664,3.232,2.664c1.599,0,2.928-1.14,3.229-2.65c0.008-0.004,0.016-0.009,0.024-0.013
	c0.014,0.001,0.029,0.002,0.043,0.002c0.241,0,0.476-0.022,0.708-0.054c0.923,1.549,2.61,2.589,4.545,2.589
	c0.801,0,1.557-0.183,2.237-0.503c0.524-0.076,1.021-0.231,1.482-0.451c0.931,1.511,2.596,2.521,4.501,2.521
	c1.807,0,3.401-0.907,4.356-2.29c0.702,0.344,1.489,0.543,2.324,0.543c1.678,0,3.172-0.784,4.141-2.003
	c0.428,2.493,2.595,4.392,5.21,4.392c0.673,0,1.314-0.131,1.906-0.36c2.258,2.155,5.31,3.487,8.678,3.487
	c4.101,0,7.738-1.966,10.034-5.004c0.822,0.372,1.733,0.582,2.694,0.582c1.489,0,2.858-0.499,3.959-1.335
	c0.963,1.311,2.509,2.167,4.26,2.167c0.934,0,1.809-0.244,2.57-0.669c1.066,0.751,2.364,1.194,3.768,1.194
	c2.815,0,5.211-1.772,6.147-4.26c0.112-0.152,0.216-0.31,0.311-0.474c0.136-0.02,0.271-0.043,0.404-0.071
	c0.797,0.481,1.729,0.761,2.728,0.761c1.675,0,3.159-0.787,4.128-2.002c0.042,0.001,0.083,0.007,0.126,0.007
	c0.104,0,0.206-0.012,0.308-0.019c0.394,0.154,0.821,0.242,1.269,0.242c0.352,0,0.69-0.053,1.011-0.149
	c0.467,0.324,1.029,0.519,1.641,0.519c1.618,0,2.93-1.312,2.93-2.93C258.241,61.695,257.074,60.443,255.584,60.305z"/>
</svg>