<!-- Generator: Adobe Illustrator 22.0.0, SVG Export Plug-In  -->
<svg version="1.1"
	 xmlns="http://www.w3.org/2000/svg" xmlns:xlink="http://www.w3.org/1999/xlink" xmlns:a="http://ns.adobe.com/AdobeSVGViewerExtensions/3.0/"
	 x="0px" y="0px" width="451.167px" height="287.268px" viewBox="0 0 451.167 287.268"
	 style="enable-background:new 0 0 451.167 287.268;" xml:space="preserve">
<style type="text/css">
	.st0{fill:#9ED7F2;}
	.st1{fill:#FFFFFF;}
	.st2{fill:#E7F6FD;}
	.st3{fill:#D6E8F2;}
	.st4{opacity:0.3;fill:#D6E8F2;}
</style>
<defs>
</defs>
<g>
	<g>
		<path class="st0" d="M271.172,33.091c-0.165,0-0.328,0.009-0.489,0.025c-0.975-3.321-3.353-6.033-6.45-7.465
			c-1.13-7.776-7.822-13.749-15.911-13.749c-2.154,0-4.208,0.427-6.086,1.195c-1.218-5.299-5.953-9.254-11.622-9.254
			c-2.657,0-5.103,0.879-7.086,2.347C220.645,2.428,216.108,0,211.001,0c-7.094,0-13.093,4.682-15.079,11.123
			c-1.43-0.605-3.001-0.941-4.651-0.941c-6.591,0-11.935,5.343-11.935,11.935c0,2.744,0.936,5.264,2.492,7.279
			c-5.184,0.634-9.335,4.586-10.268,9.672c-0.069-0.003-0.136-0.01-0.206-0.01c-2.765,0-5.007,2.242-5.007,5.007
			c0,2.765,2.241,5.007,5.007,5.007c0.885,0,1.714-0.231,2.436-0.634c2.18,2.869,5.618,4.73,9.499,4.73
			c0.926,0,1.823-0.116,2.689-0.315c4.62,6.493,12.2,10.733,20.776,10.733c7.921,0,14.997-3.613,19.672-9.281
			c2.866,3.966,7.527,6.55,12.795,6.55c7.871,0,14.394-5.764,15.583-13.301c1.372,0.55,2.866,0.861,4.435,0.861
			c4.282,0,8.026-2.263,10.132-5.65c0.56,0.216,1.166,0.34,1.802,0.34c2.765,0,5.007-2.242,5.007-5.007
			S273.938,33.091,271.172,33.091z"/>
		<path class="st1" d="M172.069,37.188h104.024c-0.429-2.33-2.466-4.096-4.92-4.096c-0.165,0-0.328,0.009-0.489,0.025
			c-0.975-3.321-3.353-6.033-6.45-7.465c-1.13-7.776-7.822-13.749-15.911-13.749c-2.154,0-4.208,0.427-6.086,1.195
			c-1.218-5.299-5.953-9.254-11.622-9.254c-2.657,0-5.103,0.879-7.086,2.347C220.645,2.428,216.108,0,211.001,0
			c-7.094,0-13.093,4.682-15.079,11.123c-1.43-0.605-3.001-0.941-4.651-0.941c-6.591,0-11.935,5.343-11.935,11.935
			c0,2.744,0.936,5.264,2.492,7.279C177.303,29.95,173.567,33.032,172.069,37.188z"/>
		<path class="st2" d="M228.612,33.054c0,3.631-2.943,6.574-6.574,6.574c-3.631,0-6.574-2.943-6.574-6.574
			c0-3.631,2.943-6.574,6.574-6.574C225.669,26.479,228.612,29.423,228.612,33.054z"/>
		
			<ellipse transform="matrix(0.9231 -0.3844 0.3844 0.9231 1.0343 86.3135)" class="st2" cx="216.406" cy="40.57" rx="7.516" ry="7.516"/>
		<path class="st2" d="M271.659,30.762c-1.308-0.949-2.912-1.514-4.651-1.514c-2.049,0-3.911,0.783-5.32,2.058
			c-1.557-3.105-4.76-5.241-8.47-5.241c-1.196,0-2.337,0.231-3.391,0.635c-1.456-1.739-3.642-2.847-6.089-2.847
			c-3.215,0-5.977,1.914-7.225,4.662c-1.014-0.543-2.106-0.96-3.253-1.234c-0.171-4.234-3.648-7.616-7.923-7.616
			c-3.186,0-5.926,1.881-7.191,4.589c-1.738-1.492-3.993-2.399-6.463-2.399c-0.812,0-1.598,0.108-2.354,0.292
			c-2.458-3.619-6.608-5.998-11.313-5.998c-4.092,0-7.761,1.801-10.266,4.65c-1.454-1.844-3.703-3.032-6.233-3.032
			c-4.385,0-7.94,3.555-7.94,7.94c0,1.679,0.524,3.234,1.414,4.517c-1.987,1.253-3.504,3.183-4.21,5.474
			c-3.639,0.724-6.382,3.933-6.382,7.785c0,4.385,3.555,7.94,7.94,7.94c0.456,0,0.9-0.047,1.334-0.121
			c0.567,3.829,3.857,6.771,7.844,6.771c3.358,0,6.223-2.088,7.383-5.035c0.185,0.013,0.368,0.028,0.556,0.028
			c1.57,0,3.03-0.462,4.262-1.248c1.911,3.711,5.771,6.255,10.233,6.255c6.357,0,11.511-5.154,11.511-11.511
			c0-1.863-0.452-3.616-1.238-5.173c0.766-0.202,1.499-0.483,2.181-0.852c0,0.011-0.001,0.021-0.001,0.032
			c0,7.548,6.119,13.667,13.667,13.667c7.548,0,13.667-6.119,13.667-13.667c0-0.282-0.011-0.561-0.028-0.839
			c0.01,0,0.019,0.001,0.028,0.001c0.324,0,0.641-0.025,0.955-0.063c1.535,3.165,4.77,5.353,8.524,5.353
			c2.901,0,5.495-1.307,7.233-3.36c1.248,1.824,3.238,3.095,5.534,3.391c1.308,0.949,2.912,1.514,4.651,1.514
			c4.385,0,7.94-3.555,7.94-7.94C278.576,34.591,275.56,31.265,271.659,30.762z"/>
	</g>
	<path class="st3" d="M210.879,36.022c-0.157,1.784-0.953,3.45-2.209,4.613c-1.255,1.161-2.923,1.832-4.613,1.819
		c-1.689,0.012-3.358-0.66-4.612-1.82c-1.144-1.059-1.879-2.541-2.126-4.144c0.081-0.078,0.179-0.139,0.255-0.223
		c0.562-0.608,1.003-1.322,1.282-2.09c0.26-0.773,0.382-1.589,0.306-2.384c-0.14,1.585-0.847,3.065-1.963,4.099
		c-1.115,1.031-2.597,1.628-4.099,1.617c-1.501,0.01-2.983-0.586-4.098-1.618c-1.117-1.033-1.823-2.513-1.964-4.098
		c-0.077,0.795,0.045,1.611,0.305,2.385c0.28,0.767,0.72,1.481,1.282,2.09c1.125,1.225,2.797,1.934,4.475,1.933
		c1.517,0,3.008-0.604,4.115-1.62c0.003,0.715,0.132,1.434,0.363,2.125c0.315,0.863,0.81,1.667,1.443,2.352
		c1.267,1.379,3.148,2.176,5.036,2.176c1.888-0.001,3.769-0.798,5.035-2.177c0.633-0.685,1.128-1.488,1.443-2.352
		C210.827,37.835,210.965,36.917,210.879,36.022z"/>
	<path class="st3" d="M237.75,34.595c0.086,0.895-0.052,1.813-0.344,2.684c-0.315,0.864-0.81,1.667-1.443,2.352
		c-1.266,1.379-3.147,2.176-5.035,2.177c-1.889,0-3.77-0.797-5.036-2.176c-0.633-0.685-1.128-1.489-1.443-2.352
		c-0.292-0.871-0.43-1.789-0.343-2.684c0.159,1.784,0.954,3.449,2.21,4.612c1.254,1.161,2.922,1.832,4.612,1.82
		c1.69,0.013,3.358-0.659,4.613-1.82C236.798,38.045,237.593,36.38,237.75,34.595z"/>
</g>
<path class="st4" d="M437.122,143.67c-0.354-0.257-0.763-0.437-1.201-0.541c-0.503-0.687-1.155-1.258-1.937-1.619
	c-0.478-3.287-3.306-5.811-6.725-5.811c-0.911,0-1.779,0.18-2.572,0.505c-0.515-2.24-2.516-3.911-4.912-3.911
	c-1.123,0-2.157,0.372-2.995,0.992c-1.219-1.59-3.137-2.616-5.295-2.616c-2.998,0-5.534,1.979-6.373,4.701
	c-0.604-0.256-1.268-0.398-1.966-0.398c-2.157,0-3.984,1.36-4.705,3.265c-1.574,0.277-2.773,1.643-2.773,3.297
	c0,0.71,0.222,1.367,0.598,1.909c-0.84,0.53-1.481,1.345-1.78,2.314c-1.538,0.306-2.698,1.662-2.698,3.29
	c0,1.853,1.502,3.356,3.356,3.356c0.193,0,0.38-0.02,0.564-0.051c0.239,1.618,1.63,2.862,3.315,2.862c1.068,0,2.017-0.5,2.631-1.277
	c1.973,2.211,4.839,3.607,8.035,3.607c3.348,0,6.339-1.527,8.314-3.923c1.211,1.676,3.181,2.768,5.408,2.768
	c3.327,0,6.084-2.436,6.586-5.622c0.58,0.232,1.211,0.364,1.875,0.364c1.233,0,2.355-0.451,3.23-1.188
	c0.473,0.257,1.012,0.407,1.588,0.407c1.853,0,3.356-1.502,3.356-3.356C440.045,145.288,438.77,143.882,437.122,143.67z"/>
<g>
	<path class="st0" d="M447.669,72.81c0.386-5.833-3.612-10.931-9.169-12.108c0.558-1.47,0.914-3.045,1.023-4.696
		c0.592-8.944-6.178-16.674-15.122-17.266c-8.01-0.53-15.031,4.853-16.837,12.406c-2.944-4.305-7.751-7.272-13.358-7.643
		c-2.014-0.133-3.964,0.095-5.807,0.6c-1.624-6.714-7.448-11.894-14.705-12.374c-6.983-0.462-13.21,3.574-15.893,9.618
		c-1.848-1.611-4.211-2.662-6.847-2.836c-6.208-0.411-11.584,4.142-12.284,10.258c-3.104,2.424-5.675,5.513-7.45,9.097
		c-6.582,0.202-12.059,5.373-12.503,12.08c-0.472,7.133,4.927,13.298,12.06,13.77c0.61,0.04,1.209,0.023,1.801-0.02
		c3.387,5.357,8.639,9.443,14.93,11.276c0.915,7.599,7.117,13.716,15.032,14.24c6.567,0.435,12.468-3.108,15.381-8.558
		c0.474,0.074,0.952,0.136,1.439,0.169c4.3,0.285,8.31-1.145,11.39-3.687c2.348,2.53,5.506,4.346,9.173,4.965
		c4.942,0.835,9.737-0.662,13.267-3.687c2.106,1.235,4.514,2.025,7.116,2.198c8.944,0.592,16.674-6.179,17.266-15.122
		c0.043-0.652,0.036-1.295,0.003-1.932C442.968,82.861,447.296,78.44,447.669,72.81z"/>
	<path class="st0" d="M447.669,72.81c0.386-5.833-3.612-10.931-9.169-12.108c0.558-1.47,0.914-3.045,1.023-4.696
		c0.592-8.944-6.178-16.674-15.122-17.266c-8.01-0.53-15.031,4.853-16.837,12.406c-2.944-4.305-7.751-7.272-13.358-7.643
		c-2.014-0.133-3.964,0.095-5.807,0.6c-1.624-6.714-7.448-11.894-14.705-12.374c-6.983-0.462-13.21,3.574-15.893,9.618
		c-1.848-1.611-4.211-2.662-6.847-2.836c-6.208-0.411-11.584,4.142-12.284,10.258c-3.104,2.424-5.675,5.513-7.45,9.097
		c-6.582,0.202-12.059,5.373-12.503,12.08c-0.472,7.133,4.927,13.298,12.06,13.77c0.61,0.04,1.209,0.023,1.801-0.02
		c3.387,5.357,8.639,9.443,14.93,11.276c0.915,7.599,7.117,13.716,15.032,14.24c6.567,0.435,12.468-3.108,15.381-8.558
		c0.474,0.074,0.952,0.136,1.439,0.169c4.3,0.285,8.31-1.145,11.39-3.687c2.348,2.53,5.506,4.346,9.173,4.965
		c4.942,0.835,9.737-0.662,13.267-3.687c2.106,1.235,4.514,2.025,7.116,2.198c8.944,0.592,16.674-6.179,17.266-15.122
		c0.043-0.652,0.036-1.295,0.003-1.932C442.968,82.861,447.296,78.44,447.669,72.81z"/>
	<path class="st1" d="M446.718,76.701c0.526-1.2,0.859-2.508,0.95-3.892c0.386-5.833-3.612-10.931-9.169-12.108
		c0.559-1.47,0.914-3.045,1.023-4.696c0.592-8.944-6.178-16.674-15.122-17.266c-8.01-0.53-15.03,4.853-16.837,12.406
		c-2.944-4.305-7.751-7.272-13.358-7.643c-2.014-0.133-3.964,0.095-5.807,0.6c-1.624-6.714-7.448-11.894-14.705-12.374
		c-6.983-0.462-13.21,3.574-15.893,9.618c-1.848-1.611-4.211-2.662-6.847-2.836c-6.208-0.411-11.584,4.142-12.284,10.258
		c-3.104,2.424-5.675,5.513-7.45,9.097c-6.012,0.184-11.09,4.521-12.264,10.38L446.718,76.701z"/>
	<path class="st2" d="M442.512,62.815c-1.206-0.08-2.37,0.082-3.454,0.432c-1.271-6.207-6.541-11.06-13.169-11.499
		c-3.985-0.264-7.698,1.117-10.478,3.561c-1.97-1.249-4.271-2.037-6.762-2.202c-4.339-0.287-8.348,1.384-11.189,4.246
		c-1.443-3.447-4.727-5.972-8.709-6.235c-5.607-0.371-10.453,3.873-10.824,9.48c-0.039,0.595-0.016,1.179,0.045,1.753
		c-1.776-2.071-4.347-3.456-7.284-3.651c-2.607-0.173-5.051,0.627-6.99,2.08c-1.954-2.559-4.951-4.299-8.416-4.529
		c-1.253-0.083-2.469,0.044-3.623,0.338c-1.937-2.791-5.075-4.711-8.729-4.953c-6.054-0.401-11.318,3.94-12.185,9.84
		c-7.822-0.356-14.53,5.599-15.05,13.449c-0.526,7.951,5.493,14.824,13.444,15.35c0.508,0.034,1.012,0.039,1.51,0.02
		c2.039,4.903,6.704,8.497,12.362,8.872c3.775,0.25,7.296-0.988,10.021-3.195c1.377,0.717,2.918,1.172,4.566,1.281
		c6.277,0.415,11.704-4.265,12.262-10.498c1.394,1.804,3.519,3.031,5.973,3.193c4.541,0.301,8.466-3.137,8.767-7.678
		c0.019-0.291,0.022-0.579,0.011-0.864c0.036-0.035,0.072-0.068,0.107-0.103c1.778,2.119,4.377,3.543,7.355,3.741
		c3.839,0.254,7.324-1.593,9.356-4.549c0.338,0.163,0.679,0.32,1.032,0.457c1.285,3.977,4.881,6.969,9.305,7.262
		c5.117,0.339,9.615-3.044,10.862-7.83c0.445,0.071,0.895,0.128,1.354,0.159c3.863,0.256,7.464-1.042,10.213-3.347
		c1.544,2.314,4.101,3.915,7.091,4.113c5.107,0.338,9.52-3.528,9.858-8.634C451.485,67.566,447.619,63.153,442.512,62.815z"/>
	<path class="st3" d="M403.303,68.885c0.059,0.792-0.172,1.586-0.599,2.324c-0.456,0.73-1.141,1.393-1.996,1.939
		c-1.711,1.101-4.181,1.64-6.614,1.48c-2.433-0.161-4.811-1.021-6.363-2.338c-0.776-0.655-1.367-1.402-1.723-2.186
		c-0.326-0.788-0.45-1.606-0.286-2.383c0.101,1.578,1.029,3.106,2.58,4.233c1.549,1.125,3.659,1.856,5.837,1.99
		c2.176,0.155,4.365-0.292,6.049-1.202C401.875,71.829,402.997,70.436,403.303,68.885z"/>
	<path class="st3" d="M360.058,78.782c0.062,0.961-0.203,1.925-0.689,2.824c-0.518,0.889-1.294,1.697-2.262,2.365
		c-1.936,1.346-4.724,2.014-7.468,1.833c-2.743-0.181-5.42-1.211-7.162-2.801c-0.871-0.79-1.533-1.693-1.93-2.643
		c-0.363-0.955-0.499-1.946-0.309-2.89c0.104,1.914,1.142,3.763,2.886,5.122c1.74,1.356,4.116,2.231,6.571,2.382
		c2.454,0.176,4.924-0.379,6.829-1.493C358.431,82.362,359.704,80.666,360.058,78.782z"/>
	<path class="st3" d="M432.102,67.338c0.031,0.859-0.167,1.725-0.519,2.535c-0.375,0.802-0.929,1.535-1.616,2.145
		c-1.375,1.229-3.338,1.863-5.259,1.736c-1.921-0.127-3.784-1.014-4.986-2.413c-0.6-0.696-1.053-1.495-1.319-2.34
		c-0.242-0.85-0.324-1.734-0.18-2.582c0.049,1.711,0.753,3.352,1.957,4.545c1.203,1.191,2.857,1.943,4.576,2.046
		c1.718,0.126,3.457-0.402,4.807-1.424C430.915,70.562,431.829,69.029,432.102,67.338z"/>
</g>
<g>
	<g>
		<path class="st0" d="M136.291,267.534c-0.112,0-0.216,0.026-0.326,0.033c-1.096-4.217-4.917-7.335-9.477-7.335
			c-1.763,0-3.412,0.472-4.842,1.286c-0.929-1.63-2.118-3.086-3.508-4.328c0.664-1.322,1.047-2.81,1.047-4.39
			c0-5.413-4.389-9.802-9.802-9.802c-1.802,0-3.485,0.495-4.936,1.343c-2.958-5.235-8.564-8.775-15.005-8.775
			c-5.523,0-10.426,2.608-13.58,6.648c-1.976-0.788-4.125-1.233-6.382-1.233c-7.817,0-14.412,5.2-16.536,12.327
			c-4.656,1.135-8.568,4.151-10.881,8.209c-1.429-0.814-3.079-1.286-4.842-1.286c-3.655,0-6.837,2.005-8.523,4.971
			c-0.764-0.406-1.635-0.638-2.561-0.638c-3.02,0-5.469,2.448-5.469,5.469c0,3.02,2.448,5.469,5.469,5.469
			c0.926,0,1.796-0.232,2.561-0.638c1.685,2.966,4.867,4.971,8.523,4.971c1.763,0,3.412-0.472,4.842-1.286
			c2.966,5.203,8.553,8.717,14.97,8.717c5.011,0,9.508-2.152,12.657-5.566c3.149,3.414,7.646,5.566,12.657,5.566
			c4.748,0,9.047-1.921,12.164-5.028c3.117,3.106,7.416,5.028,12.164,5.028c6.417,0,12.004-3.515,14.97-8.717
			c1.429,0.814,3.079,1.286,4.842,1.286c2.882,0,5.465-1.251,7.258-3.231c0.743,0.455,1.609,0.731,2.544,0.731
			c2.707,0,4.901-2.194,4.901-4.901C141.192,269.729,138.997,267.534,136.291,267.534z"/>
		<path class="st1" d="M135.96,267.551c-1.101-4.208-4.918-7.319-9.471-7.319c-1.763,0-3.412,0.472-4.842,1.286
			c-0.929-1.63-2.118-3.086-3.508-4.328c0.664-1.322,1.047-2.81,1.047-4.39c0-5.413-4.389-9.802-9.802-9.802
			c-1.802,0-3.485,0.495-4.936,1.343c-2.958-5.235-8.564-8.775-15.005-8.775c-5.523,0-10.426,2.608-13.58,6.648
			c-1.976-0.788-4.125-1.233-6.382-1.233c-7.817,0-14.412,5.2-16.536,12.327c-4.656,1.135-8.568,4.151-10.881,8.209
			c-1.429-0.814-3.079-1.286-4.842-1.286c-3.655,0-6.837,2.005-8.523,4.971c-0.764-0.406-1.635-0.638-2.561-0.638"/>
		<path class="st2" d="M137.242,270.469c-0.071,0-0.137,0.016-0.207,0.021c-0.697-2.683-3.129-4.668-6.03-4.668
			c-1.122,0-2.172,0.3-3.081,0.818c-0.591-1.037-1.348-1.964-2.232-2.754c0.423-0.841,0.666-1.788,0.666-2.794
			c0-3.445-2.793-6.238-6.238-6.238c-1.147,0-2.218,0.315-3.141,0.855c-1.882-3.331-5.45-5.584-9.548-5.584
			c-3.514,0-6.635,1.66-8.642,4.23c-1.257-0.501-2.625-0.785-4.061-0.785c-4.974,0-9.171,3.309-10.522,7.844
			c-0.453,0.11-0.89,0.258-1.319,0.422c-1.375-2.547-4.067-4.277-7.165-4.277c-3.232,0-6.015,1.889-7.329,4.618
			c-0.015-0.014-0.027-0.031-0.043-0.045c0.318-0.632,0.501-1.344,0.501-2.099c0-2.589-2.099-4.688-4.688-4.688
			c-0.862,0-1.667,0.236-2.36,0.642c-1.415-2.503-4.096-4.196-7.176-4.196c-2.641,0-4.986,1.247-6.494,3.179
			c-0.945-0.377-1.973-0.59-3.052-0.59c-3.738,0-6.892,2.487-7.908,5.895c-2.227,0.543-4.097,1.985-5.204,3.926
			c-0.683-0.39-1.472-0.615-2.315-0.615c-1.748,0-3.27,0.959-4.076,2.377c-0.365-0.194-0.782-0.305-1.225-0.305
			c-1.444,0-2.615,1.171-2.615,2.615s1.171,2.615,2.615,2.615c0.443,0,0.859-0.111,1.225-0.305c0.806,1.419,2.328,2.378,4.076,2.378
			c0.843,0,1.632-0.226,2.315-0.615c1.419,2.488,4.09,4.169,7.159,4.169c2.396,0,4.547-1.029,6.053-2.662
			c1.506,1.633,3.656,2.662,6.053,2.662c2.271,0,4.327-0.919,5.817-2.405c1.491,1.486,3.547,2.405,5.817,2.405
			c1.427,0,2.76-0.375,3.929-1.014c0.117,0.012,0.23,0.035,0.35,0.035c0.589,0,1.143-0.148,1.629-0.406
			c1.072,1.888,3.097,3.163,5.423,3.163c1.122,0,2.171-0.3,3.081-0.818c1.887,3.311,5.443,5.547,9.526,5.547
			c3.188,0,6.05-1.369,8.054-3.542c2.004,2.172,4.866,3.542,8.054,3.542c3.021,0,5.757-1.223,7.741-3.199
			c1.983,1.977,4.719,3.199,7.741,3.199c4.084,0,7.639-2.237,9.526-5.547c0.909,0.518,1.959,0.818,3.081,0.818
			c1.834,0,3.477-0.796,4.619-2.056c0.473,0.289,1.024,0.465,1.619,0.465c1.722,0,3.119-1.396,3.119-3.119
			C140.361,271.865,138.965,270.469,137.242,270.469z"/>
	</g>
	<path class="st3" d="M71.541,263.939c0.086,0.655-0.052,1.326-0.343,1.962c-0.314,0.632-0.809,1.219-1.44,1.72
		c-1.263,1.008-3.14,1.591-5.025,1.592c-1.885,0-3.762-0.583-5.026-1.591c-0.632-0.501-1.125-1.089-1.44-1.72
		c-0.291-0.637-0.429-1.308-0.342-1.963c0.158,1.305,0.952,2.522,2.206,3.373c1.252,0.849,2.916,1.34,4.602,1.331
		c1.686,0.009,3.351-0.482,4.603-1.331C70.59,266.462,71.384,265.244,71.541,263.939z"/>
	<path class="st3" d="M113.161,260.168c0.086,0.655-0.052,1.326-0.343,1.963c-0.314,0.632-0.808,1.219-1.44,1.72
		c-1.263,1.009-3.14,1.591-5.025,1.592c-1.885,0-3.762-0.583-5.026-1.591c-0.632-0.501-1.125-1.089-1.44-1.72
		c-0.291-0.637-0.429-1.308-0.342-1.963c0.158,1.305,0.952,2.522,2.206,3.373c1.252,0.849,2.916,1.34,4.602,1.331
		c1.686,0.009,3.351-0.482,4.603-1.331C112.21,262.691,113.004,261.473,113.161,260.168z"/>
	<path class="st3" d="M95.634,269.968c0.086,0.654-0.052,1.326-0.343,1.962c-0.314,0.632-0.808,1.219-1.44,1.72
		c-1.263,1.008-3.14,1.591-5.025,1.592c-1.885,0-3.762-0.583-5.026-1.591c-0.632-0.501-1.125-1.089-1.44-1.72
		c-0.291-0.637-0.429-1.308-0.342-1.963c0.158,1.305,0.952,2.522,2.206,3.373c1.252,0.849,2.916,1.34,4.602,1.331
		c1.686,0.009,3.351-0.482,4.603-1.331C94.683,272.491,95.477,271.273,95.634,269.968z"/>
</g>
<g>
	<path class="st0" d="M311.203,138.86c-1.238,0-2.404,0.301-3.439,0.822c-2.099-2.835-5.457-4.681-9.255-4.681
		c-1.055,0-2.073,0.154-3.044,0.42c-1.095-5.222-5.724-9.144-11.272-9.144c-1.889,0-3.667,0.464-5.24,1.269
		c0.313-1.344,0.496-2.738,0.496-4.177c0-10.135-8.216-18.351-18.351-18.351c-1.778,0-3.491,0.266-5.117,0.738
		c-1.105-9.079-8.825-16.116-18.202-16.116c-5.157,0-9.809,2.134-13.143,5.558c-4.892-4.564-11.439-7.378-18.657-7.378
		c-12.66,0-23.283,8.603-26.419,20.272c-0.63-0.065-1.269-0.101-1.917-0.101c-7.258,0-13.513,4.224-16.49,10.338
		c-1.241-0.457-2.577-0.72-3.977-0.72c-5.802,0-10.589,4.294-11.389,9.876c-1.713-1.01-3.703-1.599-5.835-1.599
		c-5.547,0-10.176,3.922-11.272,9.144c-0.971-0.266-1.989-0.42-3.044-0.42c-3.798,0-7.156,1.846-9.255,4.681
		c-1.035-0.522-2.201-0.822-3.439-0.822c-4.231,0-7.661,3.43-7.661,7.661s3.43,7.661,7.661,7.661c1.238,0,2.404-0.301,3.439-0.822
		c2.099,2.835,5.457,4.681,9.255,4.681c2.424,0,4.67-0.752,6.526-2.031c1.908,3.726,5.777,6.281,10.251,6.281
		c2.929,0,5.595-1.102,7.628-2.903c1.902,3.744,5.78,6.314,10.267,6.314c3.934,0,7.403-1.975,9.482-4.984
		c1.529,0.749,3.241,1.182,5.058,1.182c3.654,0,6.904-1.706,9.014-4.359c0.932,5.427,5.648,9.56,11.341,9.56
		c1.465,0,2.861-0.284,4.15-0.783c4.915,4.692,11.558,7.589,18.889,7.589c10.298,0,19.258-5.691,23.935-14.093
		c1.961,1.547,4.431,2.477,7.122,2.477c1.817,0,3.529-0.432,5.058-1.182c2.078,3.009,5.548,4.984,9.482,4.984
		c4.487,0,8.365-2.571,10.267-6.314c2.033,1.801,4.698,2.903,7.628,2.903c4.474,0,8.343-2.555,10.251-6.281
		c1.856,1.279,4.102,2.031,6.525,2.031c3.798,0,7.156-1.846,9.255-4.681c1.035,0.522,2.201,0.822,3.439,0.822
		c4.231,0,7.661-3.43,7.661-7.661C318.864,142.29,315.434,138.86,311.203,138.86z"/>
	<path class="st1" d="M318.844,146.137c-0.201-4.052-3.54-7.277-7.642-7.277c-1.238,0-2.404,0.301-3.439,0.822
		c-2.099-2.835-5.457-4.681-9.255-4.681c-1.055,0-2.073,0.154-3.044,0.42c-1.095-5.222-5.724-9.144-11.272-9.144
		c-1.889,0-3.667,0.464-5.24,1.269c0.314-1.344,0.496-2.738,0.496-4.177c0-10.135-8.216-18.351-18.351-18.351
		c-1.778,0-3.491,0.266-5.117,0.738c-1.105-9.079-8.825-16.116-18.202-16.116c-5.157,0-9.809,2.134-13.143,5.558
		c-4.892-4.564-11.439-7.378-18.657-7.378c-12.66,0-23.283,8.603-26.419,20.272c-0.63-0.065-1.269-0.101-1.917-0.101
		c-7.258,0-13.513,4.224-16.49,10.338c-1.241-0.457-2.577-0.72-3.977-0.72c-5.802,0-10.589,4.294-11.389,9.875
		c-1.713-1.01-3.703-1.599-5.835-1.599c-5.547,0-10.176,3.922-11.272,9.144c-0.971-0.266-1.989-0.42-3.044-0.42
		c-3.798,0-7.156,1.846-9.255,4.681c-1.035-0.522-2.201-0.822-3.439-0.822c-4.231,0-7.661,3.43-7.661,7.661c0,0.003,0,0.005,0,0.007
		H318.844z"/>
	<path class="st2" d="M316.976,142.232c-0.097,0-0.187,0.024-0.283,0.029c-0.998-4.006-4.609-6.979-8.924-6.979
		c-1.853,0-3.575,0.552-5.02,1.495c-2.188-5.097-7.249-8.669-13.147-8.669c-2.751,0-5.312,0.79-7.493,2.137
		c-0.722-3.955-4.179-6.955-8.342-6.955c-0.878,0-1.725,0.134-2.522,0.381c-2.162-5.155-7.255-8.776-13.194-8.776
		c-6.6,0-12.141,4.477-13.791,10.555c-0.896-1.355-2.107-2.48-3.529-3.277c0.04-0.388,0.062-0.782,0.062-1.181
		c0-6.268-5.082-11.35-11.35-11.35c-5.047,0-9.319,3.296-10.794,7.851c-2.86,0.081-5.51,0.992-7.712,2.515
		c-2.432-4.426-7.135-7.427-12.542-7.427c-5.84,0-10.855,3.505-13.077,8.522c-1.617-0.887-3.473-1.392-5.447-1.392
		c-3.408,0-6.457,1.509-8.537,3.887c-1.559-0.806-3.324-1.268-5.199-1.268c-3.668,0-6.921,1.748-8.996,4.448
		c-2.385-1.78-5.333-2.848-8.539-2.848c-6.558,0-12.072,4.419-13.76,10.438c-1.207-0.437-2.503-0.688-3.861-0.688
		c-2.722,0-5.218,0.96-7.174,2.557c-1.955-1.597-4.452-2.557-7.174-2.557c-6.269,0-11.35,5.082-11.35,11.35
		c0,6.269,5.082,11.35,11.35,11.35c0.047,0,0.092-0.006,0.139-0.007c0.642,3.303,3.544,5.798,7.035,5.798
		c3.491,0,6.393-2.495,7.035-5.798c0.047,0.001,0.092,0.007,0.139,0.007c1.741,0,3.384-0.404,4.858-1.104
		c1.966,3.38,5.617,5.659,9.809,5.659c3.725,0,7.021-1.803,9.091-4.575c0.714,0.238,1.465,0.398,2.26,0.398
		c3.59,0,6.538-2.645,7.064-6.088c0.037,0,0.074-0.005,0.111-0.006c2.591,3.656,6.847,6.05,11.669,6.05
		c3.348,0,6.421-1.159,8.858-3.086c1.127,2.485,3.617,4.221,6.523,4.221c2.264,0,4.258-1.07,5.573-2.708
		c2.497,4.179,7.052,6.986,12.274,6.986c0.805,0,1.589-0.083,2.357-0.21c1.637,4.256,5.753,7.282,10.586,7.282
		c6.268,0,11.35-5.081,11.35-11.35c0-0.2-0.02-0.395-0.03-0.593c0.159-0.045,0.32-0.085,0.476-0.135
		c2.525,4.057,7.01,6.766,12.141,6.766c6.044,0,11.202-3.755,13.297-9.055c1.444,1.111,3.102,1.949,4.907,2.446
		c1.958,5.566,7.247,9.562,13.482,9.562c6.488,0,11.96-4.324,13.711-10.244c4.014-0.488,7.506-2.638,9.784-5.743
		c1.676,1.747,4.029,2.84,6.641,2.84c1.552,0,3.011-0.388,4.294-1.066c1.17,1.427,2.924,2.357,4.913,2.357
		c3.522,0,6.378-2.856,6.378-6.378C323.354,145.088,320.498,142.232,316.976,142.232z"/>
	<path class="st3" d="M204.364,130.668c0.082,0.853-0.049,1.728-0.328,2.558c-0.3,0.823-0.772,1.589-1.376,2.242
		c-1.207,1.314-3,2.075-4.8,2.075c-1.8,0-3.594-0.76-4.801-2.074c-0.603-0.653-1.075-1.419-1.376-2.243
		c-0.278-0.83-0.41-1.705-0.327-2.559c0.151,1.701,0.909,3.288,2.107,4.396c1.196,1.107,2.786,1.747,4.396,1.736
		c1.611,0.012,3.201-0.628,4.397-1.735C203.456,133.956,204.215,132.369,204.364,130.668z"/>
	<path class="st3" d="M229.661,141.274c0.111,1.152-0.067,2.334-0.443,3.455c-0.405,1.112-1.043,2.146-1.857,3.028
		c-1.63,1.775-4.051,2.801-6.482,2.802c-2.431,0-4.853-1.026-6.483-2.801c-0.815-0.882-1.452-1.917-1.858-3.028
		c-0.376-1.121-0.553-2.303-0.442-3.455c0.204,2.297,1.228,4.44,2.846,5.937c1.615,1.494,3.762,2.359,5.937,2.344
		c2.175,0.016,4.323-0.848,5.939-2.342C228.434,145.715,229.458,143.571,229.661,141.274z"/>
	<path class="st3" d="M278.056,138.156c0.111,1.152-0.067,2.334-0.443,3.455c-0.405,1.112-1.043,2.146-1.858,3.028
		c-1.63,1.775-4.051,2.801-6.482,2.802c-2.431,0-4.853-1.026-6.484-2.801c-0.815-0.882-1.452-1.917-1.858-3.028
		c-0.376-1.121-0.553-2.303-0.442-3.455c0.204,2.297,1.228,4.44,2.846,5.937c1.615,1.494,3.762,2.359,5.937,2.344
		c2.175,0.016,4.323-0.848,5.938-2.342C276.829,142.597,277.853,140.453,278.056,138.156z"/>
	<path class="st3" d="M162.552,134.779c0.081,0.838-0.048,1.698-0.322,2.513c-0.295,0.809-0.759,1.561-1.351,2.202
		c-1.185,1.291-2.947,2.038-4.715,2.038c-1.768,0-3.53-0.747-4.716-2.038c-0.593-0.642-1.056-1.394-1.351-2.203
		c-0.273-0.815-0.403-1.675-0.321-2.513c0.148,1.671,0.893,3.23,2.07,4.319c1.175,1.087,2.736,1.716,4.319,1.705
		c1.582,0.012,3.144-0.617,4.32-1.704C161.66,138.01,162.405,136.45,162.552,134.779z"/>
</g>
<path class="st4" d="M110.529,132.967c-0.021-0.031-0.044-0.059-0.065-0.089c-0.005-0.007-0.01-0.014-0.016-0.021
	c-0.058-0.08-0.119-0.158-0.184-0.233c-0.01-0.011-0.02-0.022-0.03-0.033c-0.062-0.07-0.126-0.138-0.193-0.203
	c-0.015-0.015-0.031-0.028-0.047-0.042c-0.043-0.04-0.085-0.081-0.13-0.118c-0.668-1.455-2.132-2.467-3.838-2.467
	c-0.673,0-1.304,0.163-1.869,0.443c-0.223-0.114-0.458-0.207-0.698-0.288c-1.052-1.945-3.054-3.298-5.385-3.436
	c-0.208-0.135-0.423-0.259-0.649-0.365c-0.271-0.126-0.554-0.23-0.848-0.309c-0.44-0.119-0.903-0.182-1.381-0.182l0,0l0,0
	c-0.566,0-1.107,0.099-1.618,0.264c-0.178-0.25-0.386-0.477-0.617-0.678c0.016-0.143,0.031-0.286,0.04-0.431
	c0.01-0.163,0.015-0.327,0.015-0.492c0-4.656-3.774-8.43-8.43-8.43c-0.204,0-0.407,0.008-0.607,0.022
	c-0.601,0.045-1.184,0.154-1.744,0.316c-0.507-4.171-4.054-7.403-8.362-7.403c-0.888,0-1.744,0.138-2.548,0.393
	c-0.268,0.085-0.53,0.183-0.785,0.294c-1.022,0.442-1.939,1.08-2.705,1.867c-0.421-0.393-0.869-0.758-1.341-1.091
	c-0.629-0.445-1.3-0.833-2.007-1.158c-1.236-0.569-2.58-0.942-3.994-1.08c-0.202-0.02-0.405-0.035-0.61-0.045
	s-0.411-0.015-0.618-0.015l0,0h0c-1.454,0-2.849,0.247-4.147,0.701c-0.649,0.227-1.273,0.506-1.869,0.832
	c-0.298,0.163-0.588,0.338-0.87,0.523c-0.435,0.286-0.845,0.606-1.241,0.943c-0.512,0.436-0.988,0.912-1.424,1.424
	c-0.538,0.631-1.022,1.31-1.429,2.04c-0.495,0.889-0.886,1.845-1.157,2.85c-0.29-0.03-0.583-0.046-0.881-0.046l0,0l0,0
	c-0.625,0-1.234,0.068-1.82,0.198c-0.195,0.043-0.388,0.093-0.578,0.149c-0.38,0.113-0.748,0.252-1.104,0.415
	c-0.178,0.082-0.352,0.169-0.523,0.262c-1.536,0.84-2.782,2.145-3.551,3.725c-0.285-0.105-0.581-0.188-0.886-0.244
	c-0.305-0.056-0.619-0.087-0.941-0.087l0,0l0,0c-0.333,0-0.659,0.031-0.975,0.09c-0.948,0.177-1.806,0.607-2.503,1.217
	c-0.171,0.149-0.327,0.313-0.478,0.482c-0.113,0.128-0.22,0.262-0.321,0.401c-0.175,0.242-0.33,0.498-0.463,0.768
	c-0.933,0.114-1.804,0.422-2.574,0.885c-0.197-0.023-0.396-0.041-0.6-0.041c-2.23,0-4.137,1.379-4.915,3.331
	c-0.043,0.107-0.079,0.218-0.115,0.329c-0.413,0.073-0.808,0.197-1.181,0.361c-0.12-0.009-0.242-0.013-0.365-0.013
	c-0.549,0-1.075,0.092-1.572,0.248c-0.757-0.429-1.632-0.675-2.565-0.675c-2.88,0-5.214,2.334-5.214,5.214
	c0,0.085,0.009,0.168,0.013,0.252c-0.006,0.084-0.013,0.167-0.013,0.252l0,0l0,0c0,0,0,0.001,0,0.002c0,0.001,0,0.001,0,0.002l0,0
	c0.001,0.793,0.267,1.522,0.71,2.11c0.904,1.551,2.58,2.596,4.504,2.596c0.021,0,0.042-0.003,0.064-0.003
	c0.295,1.517,1.628,2.664,3.232,2.664c1.599,0,2.928-1.14,3.229-2.65c0.008-0.004,0.016-0.009,0.024-0.013
	c0.014,0.001,0.029,0.002,0.043,0.002c0.241,0,0.476-0.022,0.708-0.054c0.923,1.549,2.61,2.589,4.545,2.589
	c0.801,0,1.557-0.183,2.237-0.503c0.524-0.076,1.021-0.231,1.482-0.451c0.931,1.511,2.596,2.521,4.501,2.521
	c1.807,0,3.401-0.907,4.356-2.29c0.702,0.344,1.489,0.543,2.324,0.543c1.678,0,3.171-0.784,4.141-2.003
	c0.428,2.493,2.595,4.392,5.21,4.392c0.673,0,1.314-0.131,1.907-0.36c2.258,2.155,5.31,3.486,8.677,3.486
	c4.101,0,7.738-1.966,10.034-5.004c0.822,0.372,1.733,0.582,2.695,0.582c1.489,0,2.858-0.499,3.958-1.335
	c0.963,1.311,2.509,2.167,4.26,2.167c0.934,0,1.809-0.244,2.57-0.669c1.066,0.751,2.364,1.194,3.768,1.194
	c2.815,0,5.211-1.772,6.147-4.26c0.112-0.152,0.216-0.31,0.311-0.474c0.136-0.02,0.271-0.043,0.405-0.071
	c0.797,0.481,1.729,0.761,2.728,0.761c1.676,0,3.159-0.787,4.128-2.002c0.042,0.001,0.083,0.007,0.126,0.007
	c0.104,0,0.206-0.012,0.308-0.019c0.394,0.154,0.821,0.242,1.269,0.242c0.352,0,0.69-0.053,1.011-0.149
	c0.467,0.324,1.029,0.519,1.641,0.519c1.618,0,2.93-1.312,2.93-2.93C113.186,134.357,112.019,133.105,110.529,132.967z"/>
<path class="st4" d="M360.864,148.125c-0.021-0.031-0.044-0.059-0.065-0.089c-0.005-0.007-0.01-0.014-0.016-0.021
	c-0.058-0.08-0.12-0.158-0.184-0.233c-0.01-0.011-0.02-0.022-0.03-0.033c-0.062-0.07-0.126-0.138-0.193-0.203
	c-0.015-0.014-0.031-0.028-0.047-0.042c-0.043-0.04-0.085-0.081-0.13-0.118c-0.668-1.455-2.132-2.467-3.838-2.467
	c-0.673,0-1.305,0.163-1.869,0.443c-0.223-0.114-0.458-0.207-0.698-0.288c-1.052-1.945-3.054-3.298-5.385-3.436
	c-0.208-0.135-0.423-0.259-0.649-0.365c-0.271-0.126-0.554-0.23-0.848-0.309c-0.44-0.119-0.903-0.182-1.381-0.182l0,0l0,0
	c-0.566,0-1.107,0.099-1.618,0.264c-0.178-0.25-0.386-0.477-0.617-0.678c0.016-0.143,0.031-0.286,0.04-0.431
	c0.01-0.163,0.015-0.327,0.015-0.492c0-4.656-3.774-8.43-8.43-8.43c-0.204,0-0.406,0.008-0.607,0.022
	c-0.601,0.045-1.184,0.154-1.744,0.316c-0.508-4.171-4.054-7.403-8.362-7.403c-0.888,0-1.744,0.138-2.548,0.393
	c-0.268,0.085-0.53,0.183-0.785,0.294c-1.022,0.442-1.939,1.08-2.705,1.867c-0.421-0.393-0.869-0.758-1.341-1.091
	c-0.629-0.445-1.3-0.833-2.007-1.158c-1.236-0.569-2.58-0.942-3.994-1.08c-0.202-0.02-0.406-0.035-0.61-0.045
	c-0.205-0.01-0.411-0.015-0.618-0.015l0,0h0c-1.454,0-2.849,0.247-4.147,0.701c-0.649,0.227-1.273,0.506-1.869,0.832
	c-0.298,0.163-0.588,0.338-0.87,0.523c-0.435,0.286-0.845,0.606-1.241,0.943c-0.512,0.436-0.988,0.912-1.424,1.424
	c-0.538,0.631-1.022,1.31-1.429,2.039c-0.496,0.889-0.887,1.845-1.157,2.85c-0.289-0.03-0.583-0.046-0.881-0.046l0,0l0,0
	c-0.625,0-1.234,0.068-1.82,0.198c-0.195,0.043-0.388,0.093-0.578,0.15c-0.38,0.113-0.748,0.252-1.104,0.415
	c-0.178,0.081-0.352,0.169-0.522,0.262c-1.536,0.84-2.782,2.145-3.551,3.725c-0.285-0.105-0.581-0.188-0.886-0.244
	c-0.305-0.056-0.619-0.087-0.941-0.087h0l0,0c-0.333,0-0.659,0.031-0.975,0.09c-0.948,0.177-1.806,0.607-2.503,1.217
	c-0.171,0.149-0.328,0.313-0.478,0.482c-0.113,0.128-0.22,0.262-0.321,0.401c-0.175,0.242-0.33,0.498-0.463,0.768
	c-0.933,0.114-1.805,0.422-2.574,0.885c-0.197-0.023-0.396-0.041-0.599-0.041c-2.23,0-4.137,1.379-4.916,3.331
	c-0.043,0.107-0.079,0.218-0.115,0.329c-0.413,0.073-0.808,0.197-1.181,0.361c-0.12-0.009-0.242-0.013-0.365-0.013
	c-0.549,0-1.075,0.092-1.572,0.248c-0.757-0.429-1.632-0.675-2.565-0.675c-2.88,0-5.214,2.334-5.214,5.214
	c0,0.085,0.009,0.168,0.013,0.252c-0.006,0.084-0.013,0.167-0.013,0.252l0,0l0,0c0,0.001,0,0.001,0,0.002c0,0.001,0,0.001,0,0.002
	l0,0c0.001,0.793,0.267,1.522,0.71,2.11c0.904,1.551,2.58,2.596,4.504,2.596c0.022,0,0.042-0.003,0.064-0.003
	c0.295,1.517,1.628,2.664,3.232,2.664c1.599,0,2.928-1.14,3.229-2.65c0.008-0.004,0.016-0.009,0.024-0.013
	c0.014,0.001,0.029,0.002,0.043,0.002c0.241,0,0.476-0.022,0.708-0.054c0.923,1.549,2.61,2.589,4.545,2.589
	c0.801,0,1.557-0.183,2.237-0.503c0.524-0.076,1.021-0.231,1.482-0.451c0.931,1.511,2.596,2.521,4.501,2.521
	c1.807,0,3.401-0.907,4.356-2.29c0.702,0.344,1.489,0.543,2.323,0.543c1.678,0,3.172-0.784,4.141-2.003
	c0.428,2.493,2.595,4.392,5.21,4.392c0.673,0,1.314-0.131,1.906-0.36c2.258,2.155,5.31,3.486,8.678,3.486
	c4.101,0,7.738-1.966,10.034-5.004c0.822,0.372,1.733,0.582,2.695,0.582c1.489,0,2.858-0.499,3.958-1.335
	c0.963,1.311,2.509,2.167,4.26,2.167c0.934,0,1.809-0.244,2.57-0.669c1.066,0.751,2.364,1.194,3.768,1.194
	c2.815,0,5.211-1.772,6.147-4.26c0.112-0.152,0.216-0.31,0.311-0.474c0.136-0.02,0.271-0.043,0.404-0.071
	c0.797,0.481,1.729,0.761,2.728,0.761c1.675,0,3.159-0.787,4.128-2.002c0.042,0.001,0.083,0.007,0.126,0.007
	c0.104,0,0.206-0.012,0.308-0.019c0.394,0.154,0.821,0.242,1.269,0.242c0.352,0,0.69-0.053,1.011-0.149
	c0.467,0.324,1.029,0.519,1.641,0.519c1.618,0,2.93-1.312,2.93-2.93C363.521,149.515,362.354,148.263,360.864,148.125z"/>
<g>
	<path class="st0" d="M93.643,180.783c0-3.637-2.948-6.585-6.585-6.585c-0.645,0-1.266,0.097-1.856,0.27
		c0.065-0.47,0.111-0.946,0.111-1.433c0-5.709-4.628-10.337-10.337-10.337c-4.396,0-8.142,2.749-9.636,6.618
		c-1.2-0.289-2.451-0.445-3.74-0.445c-6.34,0-11.815,3.7-14.385,9.058c-2.849,0.464-5.31,2.083-6.872,4.372
		c-0.92-0.488-1.967-0.767-3.081-0.767c-3.637,0-6.585,2.948-6.585,6.585c0,3.637,2.948,6.585,6.585,6.585
		c1.114,0,2.161-0.279,3.081-0.767c1.861,2.727,4.992,4.519,8.543,4.519c1.233,0,2.411-0.227,3.507-0.623
		c2.601,1.844,5.777,2.931,9.208,2.931c3.928,0,7.522-1.423,10.301-3.778c1.859,1.79,4.381,2.896,7.165,2.896
		c5.709,0,10.337-4.628,10.337-10.337c0-0.863-0.117-1.697-0.317-2.498C91.73,186.191,93.643,183.712,93.643,180.783z"/>
	<path class="st1" d="M91.061,186.003c1.568-1.203,2.582-3.091,2.582-5.22c0-3.637-2.948-6.585-6.585-6.585
		c-0.645,0-1.266,0.097-1.856,0.27c0.065-0.47,0.111-0.946,0.111-1.433c0-5.709-4.628-10.337-10.337-10.337
		c-4.396,0-8.142,2.749-9.636,6.618c-1.2-0.289-2.451-0.445-3.74-0.445c-6.34,0-11.815,3.7-14.385,9.058
		c-2.849,0.464-5.31,2.083-6.872,4.372c-0.92-0.488-1.967-0.767-3.081-0.767c-2.896,0-5.35,1.872-6.231,4.47H91.061z"/>
	<path class="st2" d="M91.391,179.884c-0.007,0-0.014,0.001-0.021,0.001c0.008-0.142,0.021-0.282,0.021-0.426
		c0-3.92-3.178-7.097-7.097-7.097c-2.918,0-5.422,1.762-6.513,4.279c-0.826-0.779-1.937-1.26-3.162-1.26
		c-0.542,0-1.059,0.098-1.542,0.27c-0.989-2.252-3.236-3.826-5.854-3.826c-2.548,0-4.741,1.494-5.769,3.651
		c-1.744-2.22-4.446-3.651-7.488-3.651c-4.886,0-8.907,3.68-9.456,8.419c-0.856-0.426-1.818-0.671-2.839-0.671
		c-2.416,0-4.518,1.341-5.605,3.318c-0.845-0.943-2.068-1.54-3.434-1.54c-2.549,0-4.615,2.066-4.615,4.615s2.066,4.615,4.615,4.615
		c1.366,0,2.589-0.597,3.434-1.54c1.087,1.977,3.189,3.318,5.605,3.318c1.972,0,3.733-0.894,4.906-2.296
		c0.358,3.192,3.063,5.673,6.35,5.673c2.408,0,4.503-1.332,5.593-3.298c1.731,2.392,4.537,3.954,7.715,3.954
		c2.586,0,4.928-1.034,6.644-2.707c1.715,2.517,4.602,4.17,7.877,4.17c5.046,0,9.165-3.926,9.494-8.889
		c0.366,0.093,0.746,0.148,1.141,0.148c2.549,0,4.615-2.066,4.615-4.615C96.007,181.95,93.94,179.884,91.391,179.884z"/>
	<path class="st3" d="M64.21,180.068c0.04,0.412-0.024,0.836-0.159,1.237c-0.145,0.398-0.373,0.768-0.665,1.084
		c-0.583,0.635-1.45,1.003-2.321,1.003c-0.87,0-1.737-0.367-2.321-1.003c-0.292-0.316-0.52-0.686-0.665-1.084
		c-0.135-0.401-0.198-0.824-0.158-1.237c0.073,0.822,0.44,1.59,1.019,2.126c0.578,0.535,1.347,0.845,2.126,0.839
		c0.779,0.006,1.548-0.304,2.126-0.839C63.771,181.658,64.137,180.891,64.21,180.068z"/>
	<path class="st3" d="M82.17,183.392c0.064,0.665-0.038,1.348-0.256,1.994c-0.234,0.642-0.602,1.239-1.072,1.748
		c-0.941,1.025-2.339,1.617-3.742,1.618c-1.404,0-2.802-0.592-3.743-1.617c-0.47-0.509-0.838-1.107-1.072-1.748
		c-0.217-0.647-0.32-1.33-0.255-1.995c0.118,1.326,0.709,2.563,1.643,3.428c0.932,0.863,2.172,1.362,3.428,1.353
		c1.256,0.009,2.496-0.49,3.428-1.352C81.462,185.956,82.053,184.719,82.17,183.392z"/>
	<path class="st3" d="M49.84,182.928c0.05,0.516-0.03,1.046-0.199,1.549c-0.182,0.498-0.468,0.962-0.833,1.357
		c-0.731,0.796-1.816,1.256-2.906,1.256c-1.09,0-2.175-0.46-2.906-1.256c-0.365-0.395-0.651-0.859-0.833-1.358
		c-0.168-0.502-0.248-1.032-0.198-1.549c0.091,1.029,0.55,1.99,1.276,2.661c0.724,0.67,1.686,1.057,2.661,1.051
		c0.975,0.007,1.938-0.38,2.662-1.05C49.29,184.919,49.749,183.958,49.84,182.928z"/>
</g>
<g>
	<path class="st0" d="M108.391,52.638c-1.704,0-3.332,0.31-4.85,0.852c-4.151-5.283-10.583-8.689-17.824-8.689
		c-0.519,0-1.026,0.043-1.536,0.077c-4.001-12.177-15.446-20.977-28.961-20.977c-14.639,0-26.856,10.319-29.807,24.076
		c-0.23-0.011-0.457-0.035-0.69-0.035c-7.981,0-14.45,6.47-14.45,14.45c0,1.873,0.368,3.658,1.017,5.3
		c-4.028,1.099-6.992,4.774-6.992,9.15c0,5.243,4.251,9.494,9.494,9.494c1.29,0,2.518-0.26,3.639-0.725
		c1.973,5.081,6.897,8.688,12.675,8.688c6.873,0,12.54-5.101,13.46-11.721c3.592,1.487,7.525,2.317,11.655,2.317
		c4.672,0,9.08-1.081,13.038-2.959c4.159,5.015,10.435,8.211,17.46,8.211c7.512,0,14.152-3.669,18.278-9.296
		c1.387,0.443,2.863,0.686,4.396,0.686c7.981,0,14.45-6.47,14.45-14.45S116.372,52.638,108.391,52.638z"/>
	<path class="st1" d="M11.255,67.705H122.81c0.009-0.206,0.031-0.408,0.031-0.617c0-7.981-6.47-14.45-14.45-14.45
		c-1.704,0-3.332,0.31-4.85,0.852c-4.151-5.283-10.583-8.689-17.824-8.689c-0.519,0-1.026,0.043-1.536,0.077
		c-4.001-12.177-15.446-20.977-28.961-20.977c-14.639,0-26.856,10.319-29.807,24.076c-0.23-0.011-0.457-0.035-0.69-0.035
		c-7.981,0-14.45,6.47-14.45,14.45c0,1.873,0.368,3.658,1.017,5.3C11.277,67.696,11.267,67.702,11.255,67.705z"/>
	<circle class="st2" cx="38.188" cy="65.044" r="8.117"/>
	<path class="st2" d="M120.418,58.895c-1.86,0-3.588,0.563-5.025,1.525c-1.984-1.638-4.528-2.623-7.302-2.623
		c-1.865,0-3.621,0.455-5.178,1.244c-1.939-3.592-5.736-6.034-10.105-6.034c-0.933,0-1.836,0.124-2.704,0.334
		c-3.282-4.121-8.333-6.771-14.011-6.771c-4.202,0-8.057,1.457-11.112,3.88c-3.108-4.74-8.46-7.877-14.551-7.877
		c-8.517,0-15.592,6.124-17.092,14.206c-2.1-2.312-5.12-3.772-8.489-3.772c-4.363,0-8.156,2.435-10.098,6.019
		c-1.556-1.266-3.54-2.027-5.703-2.027C4.051,56.998,0,61.049,0,66.046c0,4.997,4.051,9.048,9.048,9.048
		c1.035,0,2.026-0.182,2.953-0.503c-0.009,0.167-0.025,0.333-0.025,0.503c0,4.997,4.051,9.048,9.048,9.048
		c3.394,0,6.348-1.872,7.896-4.637c0.795,0.381,1.675,0.612,2.615,0.612c1.097,0,2.112-0.313,3-0.821
		c1.678,4.257,5.818,7.274,10.671,7.274c5.961,0,10.858-4.546,11.42-10.36c1.527-0.583,2.946-1.373,4.232-2.339
		c3.155,5.109,8.789,8.525,15.235,8.525c2.868,0,5.568-0.691,7.971-1.889c1.569,2.688,4.476,4.5,7.813,4.5
		c4.285,0,7.865-2.981,8.801-6.981c2,1.695,4.585,2.723,7.412,2.723c3.662,0,6.916-1.721,9.017-4.392
		c1.026,0.404,2.14,0.633,3.31,0.633c4.997,0,9.048-4.051,9.048-9.048C129.466,62.945,125.416,58.895,120.418,58.895z
		 M35.316,69.294c-0.014-0.011-0.028-0.023-0.042-0.035c0.067-0.146,0.135-0.289,0.196-0.438c0.022,0.037,0.044,0.073,0.067,0.109
		C35.461,69.05,35.388,69.172,35.316,69.294z"/>
	<path class="st3" d="M88.814,60.643c0.094,0.975-0.056,1.976-0.375,2.924c-0.343,0.941-0.883,1.816-1.572,2.563
		c-1.379,1.503-3.429,2.371-5.486,2.372c-2.058,0-4.108-0.869-5.488-2.371c-0.69-0.747-1.229-1.622-1.572-2.563
		c-0.318-0.949-0.468-1.949-0.374-2.924c0.173,1.944,1.039,3.758,2.409,5.025c1.367,1.265,3.184,1.996,5.025,1.984
		c1.841,0.014,3.659-0.718,5.026-1.983C87.776,64.401,88.643,62.587,88.814,60.643z"/>
	<path class="st3" d="M53.85,59.62c0.13,1.346-0.078,2.727-0.517,4.036c-0.473,1.299-1.219,2.507-2.17,3.538
		c-1.904,2.074-4.734,3.273-7.574,3.274c-2.841,0-5.67-1.199-7.576-3.273c-0.952-1.03-1.696-2.24-2.17-3.538
		c-0.439-1.309-0.647-2.691-0.516-4.037c0.238,2.683,1.435,5.188,3.325,6.937c1.887,1.746,4.396,2.756,6.937,2.738
		c2.542,0.019,5.051-0.991,6.938-2.737C52.416,64.809,53.613,62.304,53.85,59.62z"/>
</g>
<g>
	<path class="st0" d="M421.325,210.535c-1.368-6.564-7.184-11.497-14.154-11.497c-1.49,0-2.927,0.226-4.28,0.645
		c-2.09-4.928-6.973-8.385-12.663-8.385c-4.376,0-8.266,2.051-10.784,5.236c-3.331-2.308-7.369-3.668-11.728-3.668
		c-10.301,0-18.814,7.557-20.358,17.425c-0.953-0.209-1.941-0.327-2.957-0.327c-7.594,0-13.75,6.156-13.75,13.75
		s6.156,13.75,13.75,13.75c1.104,0,2.171-0.144,3.2-0.389c1.873,5.366,6.966,9.223,12.971,9.223c4.254,0,8.056-1.934,10.578-4.969
		c2.522,3.035,6.324,4.969,10.578,4.969c4.772,0,8.974-2.433,11.439-6.124c1.455,0.525,3.018,0.825,4.654,0.825
		c4.659,0,8.77-2.323,11.257-5.868c1.912,1.008,4.087,1.585,6.4,1.585c7.594,0,13.75-6.156,13.75-13.75
		C429.227,217.466,425.991,212.734,421.325,210.535z"/>
	<path class="st1" d="M429.209,222.448c-0.197-5.277-3.366-9.783-7.883-11.912c-1.368-6.564-7.184-11.497-14.154-11.497
		c-1.49,0-2.927,0.226-4.28,0.645c-2.09-4.928-6.973-8.385-12.663-8.385c-4.376,0-8.266,2.051-10.784,5.236
		c-3.331-2.308-7.369-3.668-11.728-3.668c-10.301,0-18.814,7.557-20.358,17.425c-0.953-0.209-1.941-0.327-2.957-0.327
		c-7.166,0-13.046,5.484-13.686,12.483H429.209z"/>
	<path class="st2" d="M427.27,217.643c-1.681-2.145-4.29-3.529-7.227-3.529c-1.595,0-3.094,0.408-4.401,1.122
		c-2.071-2.082-4.938-3.372-8.107-3.372c-0.436,0-0.864,0.03-1.288,0.077c-2.335-4.611-7.107-7.779-12.629-7.779
		c-4.011,0-7.625,1.675-10.202,4.355c-0.53-0.095-1.074-0.153-1.631-0.153c-1.718,0-3.32,0.48-4.695,1.301
		c-1.914-2.321-4.811-3.801-8.055-3.801c-5.467,0-9.945,4.207-10.39,9.559c-2.083-2.188-5.017-3.559-8.276-3.559
		c-4.255,0-7.959,2.329-9.928,5.777c-1.366-0.806-2.954-1.277-4.655-1.277c-5.073,0-9.185,4.112-9.185,9.185
		c0,5.072,4.112,9.185,9.185,9.185c2.712,0,5.143-1.183,6.824-3.053c2.039,1.889,4.76,3.053,7.759,3.053
		c2.252,0,4.345-0.66,6.115-1.784c0.901,4.127,4.571,7.218,8.968,7.218c3.526,0,6.583-1.989,8.122-4.903
		c1.498,1.077,3.329,1.719,5.315,1.719c2.321,0,4.433-0.874,6.044-2.302c1.234,3.615,4.652,6.219,8.686,6.219
		c4.425,0,8.117-3.13,8.988-7.295c1.494,0.716,3.161,1.129,4.929,1.129c3.169,0,6.035-1.29,8.107-3.372
		c1.168,0.639,2.494,1.021,3.9,1.097c1.672,2.07,4.229,3.397,7.097,3.397c5.038,0,9.122-4.084,9.122-9.122
		C435.762,221.908,432.013,217.968,427.27,217.643z"/>
	<path class="st3" d="M379.012,216.857c0.093,0.968-0.056,1.96-0.372,2.901c-0.34,0.934-0.876,1.802-1.56,2.543
		c-1.369,1.491-3.403,2.353-5.444,2.354c-2.042,0-4.076-0.862-5.445-2.353c-0.684-0.741-1.219-1.61-1.56-2.543
		c-0.316-0.941-0.465-1.934-0.371-2.902c0.171,1.929,1.031,3.729,2.39,4.987c1.356,1.255,3.16,1.981,4.987,1.968
		c1.827,0.014,3.631-0.712,4.988-1.967C377.981,220.586,378.842,218.786,379.012,216.857z"/>
	<path class="st3" d="M396.727,216.951c0.047,0.484-0.028,0.98-0.186,1.451c-0.17,0.467-0.438,0.901-0.78,1.271
		c-0.684,0.745-1.701,1.176-2.722,1.177c-1.021,0-2.038-0.431-2.723-1.176c-0.342-0.37-0.61-0.805-0.78-1.272
		c-0.158-0.471-0.232-0.967-0.185-1.451c0.086,0.965,0.516,1.865,1.195,2.493c0.678,0.628,1.58,0.991,2.493,0.984
		c0.914,0.007,1.815-0.356,2.494-0.984C396.212,218.816,396.642,217.916,396.727,216.951z"/>
	<path class="st3" d="M410.307,220.313c0.093,0.967-0.056,1.96-0.372,2.901c-0.34,0.934-0.876,1.802-1.56,2.543
		c-1.369,1.491-3.403,2.353-5.444,2.354c-2.042,0-4.076-0.862-5.445-2.353c-0.684-0.741-1.219-1.61-1.56-2.544
		c-0.316-0.941-0.465-1.934-0.371-2.902c0.171,1.929,1.031,3.729,2.39,4.986c1.356,1.255,3.16,1.981,4.987,1.968
		c1.827,0.014,3.631-0.712,4.988-1.967C409.276,224.043,410.137,222.242,410.307,220.313z"/>
</g>
<g>
	<path class="st0" d="M279.874,247.449c-0.245,0-0.483,0.023-0.719,0.057c-1.481-3.717-5.105-6.348-9.35-6.348
		c-0.062,0-0.122,0.008-0.184,0.009c0.11-0.707,0.184-1.427,0.184-2.165c0-7.754-6.286-14.04-14.04-14.04
		c-2.581,0-4.991,0.708-7.069,1.923c-2.988-5.695-8.949-9.585-15.826-9.585c-9.87,0-17.871,8.001-17.871,17.871
		c-4.697,0-8.825,2.413-11.227,6.064c-0.392-0.046-0.789-0.077-1.194-0.077c-5.561,0-10.069,4.508-10.069,10.069
		c0,5.561,4.508,10.069,10.069,10.069c1.873,0,3.621-0.521,5.124-1.412c0.38,0.246,0.773,0.472,1.178,0.68
		c-0.012,0.195-0.03,0.387-0.03,0.585c0,5.409,4.385,9.793,9.793,9.793c3.438,0,6.457-1.775,8.204-4.455
		c3.229,2.771,7.417,4.455,12.005,4.455c5.089,0,9.697-2.06,13.036-5.392c1.846,2.295,4.672,3.767,7.847,3.767
		c4.863,0,8.92-3.447,9.862-8.031c0.069,0.001,0.137,0.01,0.207,0.01c3.351,0,6.311-1.643,8.141-4.161
		c0.594,0.246,1.244,0.384,1.927,0.384c2.78,0,5.034-2.254,5.034-5.034C284.908,249.703,282.654,247.449,279.874,247.449z"/>
	<path class="st1" d="M284.178,249.881c-0.882-1.456-2.477-2.432-4.303-2.432c-0.245,0-0.483,0.023-0.719,0.057
		c-1.481-3.717-5.105-6.348-9.35-6.348c-0.062,0-0.122,0.008-0.184,0.009c0.11-0.707,0.184-1.427,0.184-2.165
		c0-7.754-6.286-14.04-14.04-14.04c-2.581,0-4.991,0.708-7.069,1.923c-2.988-5.695-8.949-9.585-15.826-9.585
		c-9.87,0-17.871,8.001-17.871,17.871c-4.697,0-8.825,2.413-11.227,6.064c-0.392-0.046-0.789-0.077-1.194-0.077
		c-5.103,0-9.309,3.8-9.969,8.723H284.178z"/>
	<path class="st2" d="M279.197,246.744c-0.386,0-0.763,0.04-1.129,0.109c-0.952-2.312-3.224-3.942-5.88-3.942
		c-0.363,0-0.716,0.037-1.062,0.096c-0.826-4.111-4.455-7.208-8.809-7.208c-3.269,0-6.122,1.752-7.694,4.362
		c-1.337-3.482-4.703-5.958-8.656-5.958c-2.04,0-3.92,0.666-5.451,1.782c-1.337-3.482-4.703-5.957-8.656-5.957
		c-4.096,0-7.566,2.658-8.796,6.341c-2.123-1.364-4.643-2.165-7.354-2.165c-5.28,0-9.85,3.007-12.115,7.397
		c-1.593-0.944-3.446-1.496-5.432-1.496c-5.9,0-10.684,4.783-10.684,10.684s4.783,10.684,10.684,10.684
		c3.265,0,6.184-1.469,8.144-3.777c2.447,2.335,5.754,3.777,9.403,3.777c0.329,0,0.652-0.026,0.976-0.049
		c0.723,3.005,3.421,5.241,6.647,5.241c2.584,0,4.832-1.433,5.996-3.546c1.474,0.568,3.07,0.892,4.744,0.892
		c3.434,0,6.551-1.32,8.901-3.466c1.99,2.49,5.047,4.089,8.482,4.089c3.329,0,6.304-1.501,8.296-3.859
		c1.629,1.415,3.75,2.277,6.077,2.277c4.108,0,7.587-2.673,8.807-6.372c1.103,1.283,2.735,2.098,4.559,2.098
		c3.323,0,6.016-2.694,6.016-6.016S282.52,246.744,279.197,246.744z"/>
	<path class="st3" d="M226.824,247.659c0.053,0.551-0.032,1.117-0.212,1.653c-0.194,0.532-0.499,1.027-0.889,1.449
		c-0.78,0.85-1.939,1.341-3.102,1.341c-1.163,0-2.322-0.491-3.103-1.341c-0.39-0.422-0.695-0.917-0.889-1.449
		c-0.18-0.536-0.265-1.102-0.211-1.654c0.098,1.099,0.588,2.125,1.362,2.841c0.773,0.715,1.801,1.129,2.841,1.122
		c1.041,0.008,2.069-0.406,2.842-1.121C226.237,249.785,226.728,248.759,226.824,247.659z"/>
	<path class="st3" d="M244.769,243.216c0.053,0.551-0.032,1.117-0.212,1.653c-0.194,0.532-0.499,1.027-0.889,1.449
		c-0.78,0.85-1.939,1.341-3.102,1.341c-1.164,0-2.323-0.491-3.103-1.341c-0.39-0.422-0.695-0.917-0.889-1.449
		c-0.18-0.536-0.265-1.102-0.211-1.654c0.098,1.099,0.588,2.125,1.362,2.841c0.773,0.715,1.801,1.129,2.842,1.122
		c1.041,0.008,2.069-0.406,2.842-1.121C244.182,245.341,244.673,244.315,244.769,243.216z"/>
	<path class="st3" d="M261.746,249.126c0.107,1.11-0.064,2.25-0.427,3.329c-0.39,1.072-1.005,2.068-1.79,2.918
		c-1.571,1.711-3.904,2.7-6.247,2.701c-2.343,0-4.677-0.989-6.249-2.7c-0.785-0.85-1.399-1.847-1.79-2.919
		c-0.362-1.08-0.533-2.22-0.426-3.33c0.197,2.214,1.184,4.279,2.743,5.722c1.556,1.44,3.626,2.273,5.722,2.259
		c2.097,0.016,4.166-0.818,5.723-2.258C260.564,253.406,261.551,251.34,261.746,249.126z"/>
</g>
</svg>