<!-- Generator: Adobe Illustrator 22.0.0, SVG Export Plug-In  -->
<svg version="1.1"
	 xmlns="http://www.w3.org/2000/svg" xmlns:xlink="http://www.w3.org/1999/xlink" xmlns:a="http://ns.adobe.com/AdobeSVGViewerExtensions/3.0/"
	 x="0px" y="0px" width="129.466px" height="123.422px" viewBox="0 0 129.466 123.422"
	 style="enable-background:new 0 0 129.466 123.422;" xml:space="preserve">
<style type="text/css">
	.st0{opacity:0.3;fill:#D6E8F2;}
	.st1{fill:#9ED7F2;}
	.st2{fill:#FFFFFF;}
	.st3{fill:#E7F6FD;}
	.st4{fill:#D6E8F2;}
</style>
<defs>
</defs>
<path class="st0" d="M110.529,109.065c-0.021-0.031-0.044-0.059-0.065-0.089c-0.005-0.007-0.01-0.014-0.016-0.021
	c-0.058-0.08-0.119-0.158-0.184-0.233c-0.01-0.011-0.02-0.022-0.03-0.033c-0.062-0.07-0.126-0.138-0.193-0.203
	c-0.015-0.015-0.031-0.028-0.047-0.042c-0.043-0.04-0.085-0.08-0.13-0.118c-0.668-1.455-2.132-2.467-3.838-2.467
	c-0.673,0-1.304,0.163-1.869,0.443c-0.223-0.114-0.458-0.207-0.698-0.288c-1.052-1.945-3.054-3.298-5.385-3.436
	c-0.208-0.135-0.423-0.259-0.649-0.365c-0.271-0.126-0.554-0.23-0.848-0.309c-0.44-0.119-0.903-0.182-1.381-0.182l0,0l0,0
	c-0.566,0-1.107,0.099-1.618,0.264c-0.178-0.25-0.386-0.477-0.617-0.678c0.016-0.143,0.031-0.286,0.04-0.43
	c0.01-0.163,0.015-0.327,0.015-0.492c0-4.656-3.774-8.43-8.43-8.43c-0.204,0-0.407,0.008-0.607,0.022
	c-0.601,0.045-1.184,0.154-1.744,0.316c-0.507-4.171-4.054-7.403-8.362-7.403c-0.888,0-1.744,0.138-2.548,0.393
	c-0.268,0.085-0.53,0.183-0.785,0.294c-1.022,0.442-1.939,1.08-2.705,1.867c-0.421-0.393-0.869-0.758-1.341-1.091
	c-0.629-0.445-1.3-0.833-2.007-1.158c-1.236-0.569-2.58-0.942-3.994-1.08c-0.202-0.02-0.405-0.035-0.61-0.045
	c-0.205-0.01-0.411-0.015-0.618-0.015l0,0h0c-1.454,0-2.849,0.247-4.147,0.701c-0.649,0.227-1.273,0.506-1.869,0.832
	c-0.298,0.163-0.588,0.338-0.87,0.523c-0.435,0.286-0.845,0.606-1.241,0.943c-0.512,0.436-0.988,0.912-1.424,1.424
	c-0.538,0.631-1.022,1.31-1.429,2.039c-0.495,0.889-0.886,1.845-1.157,2.85c-0.29-0.03-0.583-0.046-0.881-0.046l0,0l0,0
	c-0.625,0-1.234,0.068-1.82,0.198c-0.195,0.043-0.388,0.093-0.578,0.149c-0.38,0.113-0.748,0.252-1.104,0.415
	c-0.178,0.082-0.352,0.169-0.523,0.262c-1.536,0.84-2.782,2.145-3.551,3.725c-0.285-0.105-0.581-0.188-0.886-0.244
	c-0.305-0.056-0.619-0.086-0.941-0.086l0,0l0,0c-0.333,0-0.659,0.031-0.975,0.09c-0.948,0.177-1.806,0.607-2.503,1.217
	c-0.171,0.149-0.327,0.313-0.478,0.482c-0.113,0.128-0.22,0.262-0.321,0.401c-0.175,0.242-0.33,0.498-0.463,0.768
	c-0.933,0.114-1.804,0.422-2.574,0.885c-0.197-0.023-0.396-0.041-0.6-0.041c-2.23,0-4.137,1.379-4.915,3.331
	c-0.043,0.108-0.079,0.218-0.115,0.329c-0.413,0.073-0.808,0.197-1.181,0.361c-0.12-0.009-0.242-0.013-0.365-0.013
	c-0.549,0-1.075,0.092-1.572,0.248c-0.757-0.429-1.632-0.675-2.565-0.675c-2.88,0-5.214,2.334-5.214,5.214
	c0,0.085,0.009,0.168,0.013,0.252c-0.006,0.084-0.013,0.167-0.013,0.252l0,0l0,0c0,0,0,0.001,0,0.002c0,0.001,0,0.001,0,0.002l0,0
	c0.001,0.793,0.267,1.522,0.71,2.11c0.904,1.551,2.58,2.596,4.504,2.596c0.021,0,0.042-0.003,0.064-0.003
	c0.295,1.517,1.628,2.664,3.232,2.664c1.599,0,2.928-1.14,3.229-2.65c0.008-0.004,0.016-0.009,0.024-0.013
	c0.014,0.001,0.029,0.002,0.043,0.002c0.241,0,0.476-0.022,0.708-0.054c0.923,1.549,2.61,2.589,4.545,2.589
	c0.801,0,1.557-0.183,2.237-0.503c0.524-0.076,1.021-0.231,1.482-0.451c0.931,1.511,2.596,2.521,4.501,2.521
	c1.807,0,3.401-0.907,4.356-2.29c0.702,0.344,1.489,0.543,2.324,0.543c1.678,0,3.171-0.784,4.141-2.003
	c0.428,2.493,2.595,4.392,5.21,4.392c0.673,0,1.314-0.131,1.907-0.36c2.258,2.155,5.31,3.486,8.677,3.486
	c4.101,0,7.738-1.966,10.034-5.004c0.822,0.372,1.733,0.582,2.695,0.582c1.489,0,2.858-0.499,3.958-1.335
	c0.963,1.311,2.509,2.167,4.26,2.167c0.934,0,1.809-0.244,2.57-0.669c1.066,0.751,2.364,1.194,3.768,1.194
	c2.815,0,5.211-1.772,6.147-4.26c0.112-0.152,0.216-0.31,0.311-0.474c0.136-0.02,0.271-0.043,0.405-0.071
	c0.797,0.481,1.729,0.761,2.728,0.761c1.676,0,3.159-0.787,4.128-2.002c0.042,0.001,0.083,0.007,0.126,0.007
	c0.104,0,0.206-0.012,0.308-0.019c0.394,0.154,0.821,0.242,1.269,0.242c0.352,0,0.69-0.053,1.011-0.149
	c0.467,0.324,1.029,0.519,1.641,0.519c1.618,0,2.93-1.312,2.93-2.93C113.186,110.455,112.019,109.203,110.529,109.065z"/>
<g>
	<path class="st1" d="M108.391,28.737c-1.704,0-3.332,0.31-4.85,0.852C99.39,24.305,92.957,20.9,85.717,20.9
		c-0.519,0-1.026,0.043-1.536,0.077C80.179,8.801,68.735,0,55.219,0C40.581,0,28.363,10.318,25.412,24.076
		c-0.23-0.011-0.457-0.035-0.69-0.035c-7.981,0-14.45,6.47-14.45,14.45c0,1.873,0.368,3.658,1.017,5.3
		c-4.028,1.099-6.992,4.774-6.992,9.15c0,5.243,4.251,9.494,9.494,9.494c1.29,0,2.518-0.26,3.639-0.725
		c1.973,5.081,6.897,8.688,12.675,8.688c6.873,0,12.54-5.101,13.46-11.721c3.592,1.487,7.525,2.318,11.655,2.318
		c4.672,0,9.08-1.081,13.038-2.959c4.159,5.015,10.435,8.211,17.46,8.211c7.512,0,14.152-3.669,18.278-9.296
		c1.387,0.443,2.863,0.686,4.396,0.686c7.981,0,14.45-6.47,14.45-14.45S116.372,28.737,108.391,28.737z"/>
	<path class="st2" d="M11.255,43.804H122.81c0.009-0.206,0.031-0.408,0.031-0.617c0-7.981-6.47-14.45-14.45-14.45
		c-1.704,0-3.332,0.31-4.85,0.852C99.39,24.305,92.957,20.9,85.717,20.9c-0.519,0-1.026,0.043-1.536,0.077
		C80.179,8.801,68.735,0,55.219,0C40.581,0,28.363,10.318,25.412,24.076c-0.23-0.011-0.457-0.035-0.69-0.035
		c-7.981,0-14.45,6.47-14.45,14.45c0,1.873,0.368,3.658,1.017,5.3C11.277,43.795,11.267,43.8,11.255,43.804z"/>
	<circle class="st3" cx="38.188" cy="41.142" r="8.117"/>
	<path class="st3" d="M120.418,34.993c-1.86,0-3.588,0.563-5.025,1.525c-1.984-1.638-4.528-2.623-7.302-2.623
		c-1.865,0-3.621,0.455-5.178,1.244c-1.939-3.592-5.736-6.034-10.105-6.034c-0.933,0-1.836,0.123-2.704,0.334
		c-3.282-4.121-8.333-6.771-14.011-6.771c-4.202,0-8.057,1.457-11.112,3.879c-3.108-4.74-8.46-7.877-14.551-7.877
		c-8.517,0-15.592,6.124-17.092,14.206c-2.1-2.312-5.12-3.772-8.489-3.772c-4.363,0-8.156,2.435-10.098,6.019
		c-1.556-1.266-3.54-2.027-5.703-2.027C4.051,33.097,0,37.148,0,42.145c0,4.997,4.051,9.048,9.048,9.048
		c1.035,0,2.026-0.182,2.953-0.503c-0.009,0.167-0.025,0.333-0.025,0.503c0,4.997,4.051,9.048,9.048,9.048
		c3.394,0,6.348-1.872,7.896-4.637c0.795,0.381,1.675,0.612,2.615,0.612c1.097,0,2.112-0.313,3-0.821
		c1.678,4.257,5.818,7.274,10.671,7.274c5.961,0,10.858-4.546,11.42-10.36c1.527-0.583,2.946-1.373,4.232-2.339
		c3.155,5.109,8.789,8.524,15.235,8.524c2.868,0,5.568-0.691,7.971-1.889c1.569,2.688,4.476,4.5,7.813,4.5
		c4.285,0,7.865-2.981,8.801-6.981c2,1.695,4.585,2.723,7.412,2.723c3.662,0,6.916-1.722,9.017-4.392
		c1.026,0.404,2.14,0.633,3.31,0.633c4.997,0,9.048-4.051,9.048-9.048C129.466,39.044,125.416,34.993,120.418,34.993z
		 M35.316,45.392c-0.014-0.011-0.028-0.023-0.042-0.035c0.067-0.146,0.135-0.29,0.196-0.438c0.022,0.037,0.044,0.073,0.067,0.109
		C35.461,45.148,35.388,45.27,35.316,45.392z"/>
	<path class="st4" d="M88.814,36.741c0.094,0.975-0.056,1.976-0.375,2.924c-0.343,0.941-0.883,1.816-1.572,2.563
		c-1.379,1.502-3.429,2.371-5.486,2.372c-2.058,0-4.108-0.869-5.488-2.371c-0.69-0.747-1.229-1.622-1.572-2.563
		c-0.318-0.949-0.468-1.949-0.374-2.924c0.173,1.944,1.039,3.758,2.409,5.025c1.367,1.265,3.184,1.996,5.025,1.984
		c1.841,0.014,3.659-0.718,5.026-1.983C87.776,40.5,88.643,38.685,88.814,36.741z"/>
	<path class="st4" d="M53.85,35.718c0.13,1.346-0.078,2.727-0.517,4.036c-0.473,1.299-1.219,2.507-2.17,3.537
		c-1.904,2.074-4.734,3.273-7.574,3.274c-2.841,0-5.67-1.199-7.576-3.273c-0.952-1.031-1.696-2.24-2.17-3.538
		c-0.439-1.309-0.647-2.691-0.516-4.037c0.238,2.683,1.435,5.188,3.325,6.937c1.887,1.746,4.396,2.756,6.937,2.738
		c2.542,0.019,5.051-0.991,6.938-2.737C52.416,40.907,53.613,38.402,53.85,35.718z"/>
</g>
</svg>