<!-- Generator: Adobe Illustrator 22.0.0, SVG Export Plug-In  -->
<svg version="1.1"
	 xmlns="http://www.w3.org/2000/svg" xmlns:xlink="http://www.w3.org/1999/xlink" xmlns:a="http://ns.adobe.com/AdobeSVGViewerExtensions/3.0/"
	 x="0px" y="0px" width="353.421px" height="327.891px" viewBox="0 0 353.421 327.891"
	 style="enable-background:new 0 0 353.421 327.891;" xml:space="preserve">
<style type="text/css">
	.st0{fill:#8841E6;}
	.st1{fill:#1E2D64;}
	.st2{fill:#FFFFFF;}
	.st3{fill:#D2AFFF;}
	.st4{opacity:0.4;fill:#6C9BAA;}
	.st5{fill:#6E64C3;}
	.st6{fill:none;stroke:#8841E6;stroke-width:2.8043;stroke-linecap:round;stroke-miterlimit:10;}
	.st7{fill:none;stroke:#FFFFFF;stroke-width:1.8724;stroke-linecap:round;stroke-miterlimit:10;}
	.st8{fill:#0F1446;}
	.st9{fill:none;stroke:#D2AFFF;stroke-width:0.8641;stroke-miterlimit:10;}
	.st10{fill:none;stroke:#41378C;stroke-width:1.7282;stroke-miterlimit:10;}
	.st11{fill:none;stroke:#41378C;stroke-width:1.7282;stroke-linecap:round;stroke-miterlimit:10;}
	.st12{fill:#FA968C;}
	.st13{fill:#FA870A;}
	.st14{fill:#FAB9AF;}
	.st15{fill:#46738C;}
	.st16{fill:#1C9585;}
	.st17{fill:#177D74;}
	.st18{fill:#39AE96;}
	.st19{fill:#FFA50A;}
	.st20{fill:#3C5A73;}
	.st21{fill:#FFA0BE;}
	.st22{fill:#F57A2F;}
	.st23{fill:#0091C8;}
	.st24{fill:#0073AA;}
	.st25{fill:#00558C;}
	.st26{fill:#FF8C46;}
	.st27{fill:#FF82AA;}
	.st28{fill:none;stroke:#41B4E6;stroke-width:1.2962;stroke-linecap:round;stroke-miterlimit:10;}
	.st29{fill:none;stroke:#A8E5FF;stroke-width:1.2962;stroke-linecap:round;stroke-miterlimit:10;}
	.st30{fill:none;stroke:#FFFFFF;stroke-width:1.2962;stroke-linecap:round;stroke-miterlimit:10;}
	.st31{fill:#41B4E6;}
	.st32{fill:#AAC85A;}
	.st33{fill:#82BE50;}
	.st34{fill:#A56941;}
	.st35{fill:none;stroke:#FFFFFF;stroke-width:1.2962;stroke-miterlimit:10;}
	.st36{fill:#55C7A6;}
	.st37{fill:none;stroke:#D2AFFF;stroke-width:2;stroke-miterlimit:10;}
</style>
<defs>
</defs>
<g>
	<path class="st0" d="M332.683,266.282c0,6.204-5.029,11.233-11.234,11.233H66.537c-6.204,0-11.233-5.029-11.233-11.233V89.139
		c0-6.204,5.029-11.233,11.233-11.233h254.913c6.204,0,11.234,5.029,11.234,11.233V266.282z"/>
	<g>
		<path class="st1" d="M321.449,89.139l0,177.143l-254.913,0l0-177.143H321.449L321.449,89.139 M321.449,77.906H66.537
			c-6.204,0-11.233,5.029-11.233,11.233v177.143c0,6.204,5.029,11.233,11.233,11.233h254.913c6.204,0,11.233-5.029,11.233-11.233
			V89.139C332.683,82.935,327.653,77.906,321.449,77.906L321.449,77.906z"/>
	</g>
	<g>
		<path class="st2" d="M292.934,253.464c0,4.215-3.417,7.633-7.633,7.633h-183.48c-4.216,0-7.633-3.417-7.633-7.633v-143.73
			c0-4.216,3.417-7.633,7.633-7.633h183.48c4.216,0,7.633,3.417,7.633,7.633V253.464z"/>
	</g>
	<g>
		<path class="st3" d="M285.301,102.101h-183.48c-4.216,0-7.633,3.417-7.633,7.633v13.97h198.746v-13.97
			C292.934,105.518,289.516,102.101,285.301,102.101z"/>
	</g>
	<path class="st4" d="M164.875,263.764l-64.977-18.756c-1.97-0.569-3.106-2.626-2.537-4.596l28.616-99.134
		c0.569-1.97,2.626-3.106,4.596-2.537l64.977,18.756c1.97,0.569,3.106,2.626,2.537,4.596l-28.616,99.134
		C168.902,263.197,166.845,264.333,164.875,263.764z"/>
	<path class="st5" d="M162.692,259.665l-64.977-18.756c-1.97-0.569-3.106-2.626-2.537-4.596l28.616-99.134
		c0.569-1.97,2.626-3.106,4.596-2.537l64.977,18.756c1.97,0.569,3.106,2.626,2.537,4.596l-28.616,99.134
		C166.72,259.098,164.662,260.234,162.692,259.665z"/>
	<g>
		<path class="st3" d="M182.204,142.714v108.878h-73.326V142.714H182.204 M183.068,141.85h-75.054v110.606h75.054V141.85
			L183.068,141.85z"/>
	</g>
	<g>
		<line class="st6" x1="267.298" y1="108.438" x2="279.684" y2="108.438"/>
		<line class="st6" x1="267.298" y1="113.345" x2="279.684" y2="113.345"/>
		<line class="st6" x1="267.298" y1="118.253" x2="279.684" y2="118.253"/>
	</g>
	<path class="st0" d="M249.141,118.253h-84.085c-2.71,0-4.908-2.197-4.908-4.908l0,0c0-2.71,2.197-4.908,4.908-4.908h84.085
		c2.71,0,4.908,2.197,4.908,4.908l0,0C254.049,116.056,251.851,118.253,249.141,118.253z"/>
	<g>
		<line class="st7" x1="106.273" y1="110.659" x2="101.785" y2="115.146"/>
		<line class="st7" x1="106.273" y1="115.146" x2="101.785" y2="110.659"/>
	</g>
	<path class="st7" d="M125.369,115.146L125.369,115.146c-1.239,0-2.244-1.005-2.244-2.244l0,0c0-1.239,1.005-2.244,2.244-2.244l0,0
		c1.239,0,2.244,1.005,2.244,2.244l0,0C127.613,114.142,126.608,115.146,125.369,115.146z"/>
	<line class="st7" x1="112.007" y1="112.902" x2="116.815" y2="112.902"/>
	<rect x="150.672" y="277.516" class="st8" width="93.671" height="21.315"/>
	<path class="st1" d="M273.491,311.504H120.184l0,0c0-6.999,5.674-12.674,12.674-12.674h127.96
		C267.817,298.83,273.491,304.504,273.491,311.504L273.491,311.504z"/>
	<path class="st9" d="M256.534,197.656h-54.737c-2.764,0-5.004-2.24-5.004-5.004l0,0c0-2.764,2.24-5.004,5.004-5.004h54.737
		c2.764,0,5.004,2.24,5.004,5.004l0,0C261.538,195.415,259.297,197.656,256.534,197.656z"/>
	<path class="st9" d="M256.534,215.802h-54.737c-2.764,0-5.004-2.24-5.004-5.004l0,0c0-2.764,2.24-5.004,5.004-5.004h54.737
		c2.764,0,5.004,2.24,5.004,5.004l0,0C261.538,213.562,259.297,215.802,256.534,215.802z"/>
	<path class="st9" d="M273.454,197.656L273.454,197.656c-2.764,0-5.004-2.24-5.004-5.004l0,0c0-2.764,2.24-5.004,5.004-5.004h0
		c2.763,0,5.004,2.24,5.004,5.004l0,0C278.458,195.415,276.218,197.656,273.454,197.656z"/>
	<path class="st9" d="M273.454,215.802L273.454,215.802c-2.764,0-5.004-2.24-5.004-5.004l0,0c0-2.764,2.24-5.004,5.004-5.004h0
		c2.763,0,5.004,2.24,5.004,5.004l0,0C278.458,213.562,276.218,215.802,273.454,215.802z"/>
	<path class="st9" d="M261.538,229.809c0,2.764-2.24,5.004-5.004,5.004h-54.737c-2.764,0-5.004-2.24-5.004-5.004l0,0
		c0-2.764,2.24-5.004,5.004-5.004h54.737C259.297,224.805,261.538,227.045,261.538,229.809L261.538,229.809z"/>
	<path class="st9" d="M261.538,247.955c0,2.764-2.24,5.004-5.004,5.004h-54.737c-2.764,0-5.004-2.24-5.004-5.004l0,0
		c0-2.764,2.24-5.004,5.004-5.004h54.737C259.297,242.951,261.538,245.192,261.538,247.955L261.538,247.955z"/>
	<path class="st9" d="M273.454,234.813L273.454,234.813c-2.764,0-5.004-2.24-5.004-5.004l0,0c0-2.764,2.24-5.004,5.004-5.004h0
		c2.763,0,5.004,2.24,5.004,5.004l0,0C278.458,232.572,276.218,234.813,273.454,234.813z"/>
	<path class="st9" d="M278.458,247.955c0,2.764-2.24,5.004-5.004,5.004h0c-2.764,0-5.004-2.24-5.004-5.004l0,0
		c0-2.764,2.24-5.004,5.004-5.004h0C276.218,242.951,278.458,245.192,278.458,247.955L278.458,247.955z"/>
	<line class="st10" x1="286.597" y1="327.026" x2="353.421" y2="327.026"/>
	<line class="st11" x1="139.171" y1="311.565" x2="0.864" y2="311.565"/>
	<g>
		<path class="st12" d="M93.31,235.726c1.214,2.904,3.876,7.466,7.12,10.081c3.604,2.942,7.292,2.505,11.069,0.015
			c0.388-0.256,0.835-0.127,1.049,0.199c0.201,0.304,0.148,0.702-0.106,0.945c-8.584,8.248-18.522,1.037-23.841-9.068
			c-1.597-3.034,2.995-5.456,4.594-2.418c0.035,0.067,0.068,0.135,0.096,0.204L93.31,235.726z"/>
		<path class="st13" d="M96.352,241.233c-0.004-0.006-0.009-0.012-0.013-0.019c-2.021-2.959-2.616-4.734-3.143-5.735
			c-0.668-1.268-2.237-1.756-3.506-1.088c-1.269,0.668-1.756,2.238-1.088,3.506c1.099,2.088,2.214,3.666,3.406,5.164
			C92.391,242.654,95.438,241.561,96.352,241.233z"/>
		<path class="st14" d="M92.27,253.651c1.033-0.003,1.884-0.823,1.909-1.855c0.03-1.217,0.117-2.484,0.009-3.776
			c-0.373-4.483-0.75-9.056-0.967-11.685c-0.105-1.268-1.164-2.241-2.436-2.241h-8.278c-1.371,0-2.494,1.087-2.534,2.458
			c-0.097,3.322-0.308,9.47-0.675,15.04c0,0.007-0.001,0.014-0.001,0.021c-0.074,1.117,0.794,2.07,1.913,2.067L92.27,253.651z"/>
		<path class="st12" d="M89.712,308.723c-0.896-1.017-1.119-3.304-1.115-5.373c0.003-1.224-1.555-1.748-2.308-0.784h0l-0.017,6.467
			C87.512,309.374,88.938,309.374,89.712,308.723z"/>
		<path class="st15" d="M89.549,308.63c-0.012-0.005-0.022-0.013-0.034-0.018c-0.532,0.199-1.132,0.316-1.807,0.316
			c-0.579,0-1.104-0.084-1.578-0.232l-0.266,1.494c-0.077,0.432,0.243,0.832,0.682,0.846c2.099,0.064,7.473,0.206,7.617-0.027
			C94.838,309.916,91.783,309.495,89.549,308.63z"/>
		<path class="st16" d="M85.893,282.668c-0.275,1.961-0.319,14.53,0.122,20.915l2.706,0.026c1.353-6.193,2.615-18.223,2.883-20.141
			c0.004-0.025,0.005-0.048,0.008-0.073c1.506-6.663,2.254-19.638,2.194-22.266c-0.081-3.564-2.391-6.402-5.159-6.339
			c-2.768,0.063-4.947,3.002-4.866,6.566C83.831,263.594,86.023,281.739,85.893,282.668z"/>
		<path class="st17" d="M93.806,261.13c-0.081-3.564-2.391-6.402-5.159-6.339c-2.768,0.063-4.947,3.002-4.866,6.566
			c0.037,1.624,1.201,11.621,1.787,17.341c0.56-1.302,1.164-2.602,1.726-3.909c0.253-4.549,2.834-8.624,6.465-11.278
			C93.801,262.44,93.817,261.61,93.806,261.13z"/>
		<path class="st14" d="M73.814,307.735c-0.199-1.93,0.68-4.107,1.455-6.171l0,0c-0.481-1.056-1.985-1.047-2.452,0.016l-1.677,3.817
			c-0.055,0.125-0.061,0.272-0.004,0.397C71.693,307.014,73.02,307.647,73.814,307.735z"/>
		<path class="st15" d="M75.29,309.06c-0.652-0.318-1.142-0.871-1.413-1.527c-1.278-0.414-2.165-1.318-2.667-2.413
			c-0.257,0.208-0.528,0.456-0.696,0.7c-0.231,0.336-0.547,0.781-0.771,1.095c-0.158,0.221-0.13,0.523,0.064,0.714l1.006,0.985
			c0.192,0.188,2.093,1.83,2.585,1.896c1.263,0.17,3.596,0.441,3.675,0.14C77.211,310.127,76.21,309.508,75.29,309.06z"/>
		<path class="st18" d="M78.774,281.07c-0.683,1.541-4.849,14.554-6.325,20.896c0.651,0.589,1.457,1.054,2.4,0.992
			c2.571-5.028,8.686-15.96,9.834-18.454c2.077-3.101,4.355-20.776,4.28-24.079c-0.081-3.564-2.391-6.402-5.159-6.339
			c-2.769,0.063-5.448,2.942-5.367,6.506C78.489,262.898,79.235,280.029,78.774,281.07z"/>
		<path class="st19" d="M90.858,234.092h-1.344c-0.468,1.083-1.458,1.921-2.995,1.921c-1.539,0-2.529-0.837-2.996-1.921h-1.227
			c-1.254,0-2.281,0.992-2.317,2.245c-0.094,3.267-0.239,7.503-0.613,13.194c-0.339,5.152-1.513,6.762-0.851,13.402
			c0,0,11.207,1.067,15.273-0.966c0.615-4.681,0.777-9.401,0.399-13.949c-0.376-4.525-0.758-9.142-0.973-11.76
			C93.113,235.033,92.089,234.092,90.858,234.092z"/>
		<path class="st12" d="M113.961,244.874c0,0-2.167-0.203-2.448,0.438s-0.353,1.122,0.564,1.567c0.917,0.444,2.387,0.617,3.29,0.544
			c0.902-0.073,2.363-0.834,2.465-1.018c0.374-0.672-1.247-0.368-2.039-0.26c-0.792,0.109-1.697,0.153-1.642-0.243
			c0.055-0.396,1.587-0.49,1.801-0.923C116.166,244.545,113.961,244.874,113.961,244.874z"/>
		<path class="st14" d="M84.294,236.777c3.605,8.084,21.223,7.536,26.498,7.616l0.042,0.001c0.41,0.006,0.738,0.344,0.732,0.755
			c-0.014,0.927-1.104,0.82-4.666,1.508c-24.669,4.839-31.684-11.52-25.705-12.215C83.036,234.227,84.294,236.777,84.294,236.777z"
			/>
		<g>
			<path class="st13" d="M87.038,239.746c-2.384-1.682-2.802-3.377-2.81-3.417l0.013,0.077l-0.184-0.424
				c-0.615-1.417-2.244-2.163-3.677-1.586c-0.021,0.009-0.043,0.018-0.065,0.027c-1.725,0.723-1.376,2.761-1.376,2.761
				c0.042,0.284,0.619,3.646,4.585,6.62C83.525,243.804,87.359,239.973,87.038,239.746z"/>
		</g>
		<path class="st20" d="M85.223,230.312h-0.159c-1.21,0-2.191-0.981-2.191-2.191v-3.237h2.349V230.312z"/>
		<g>
			<polygon class="st14" points="88.211,234.092 83.886,234.092 85.133,229.78 88.082,230.145 			"/>
		</g>
		<path class="st12" d="M88.082,230.145l-2.949-0.365l-0.581,2.01c0.66,0.744,1.639,1.899,2.712,1.899
			c0.34,0,0.65-0.096,0.929-0.273L88.082,230.145z"/>
		<path class="st14" d="M87.238,232.148L87.238,232.148c-1.99,0-3.602-1.613-3.602-3.602v-4.013h6.178c0,0,0,3.132-0.45,5.247
			C89.026,231.366,88.252,232.148,87.238,232.148z"/>
		<path class="st14" d="M84.683,227.787c0,0.783-0.375,1.418-0.837,1.418c-0.462,0-0.972-1.026-0.972-1.809s0.51-1.026,0.972-1.026
			C84.308,226.37,84.683,227.004,84.683,227.787z"/>
		<path class="st20" d="M90.444,222.529c0,0-1.377,0.367-3.215,0.223l-2.085-0.001c-1.253-0.001-2.269,1.015-2.269,2.268v0.486
			l0.67,0.873l0.65,1.015h0.082c0.398,0,0.723-0.31,0.748-0.701c0.041-0.646,0.487-1.187,1.134-1.187h1.851
			c1.127,0,1.712,0.605,1.712,1.447l-0.058,0.713C89.663,227.666,91.339,226.27,90.444,222.529z"/>
		<path class="st14" d="M112.505,244.498c0,0-2.107-0.544-2.486,0.045c-0.379,0.588-0.526,1.052,0.31,1.636
			c0.835,0.584,2.26,0.987,3.162,1.057c0.902,0.071,2.465-0.45,2.595-0.616c0.475-0.605-1.173-0.561-1.972-0.579
			c-0.799-0.018-1.7-0.117-1.583-0.499c0.117-0.382,1.645-0.233,1.924-0.626C114.735,244.523,112.505,244.498,112.505,244.498z"/>
	</g>
	<g>
		<path class="st12" d="M194.993,217.329c-2.142,1.142-4.612,0.433-6.039-1.539c-3.028-3.906-3.611-13.625-3.836-18.553
			c-0.042-0.914,1.291-1.068,1.471-0.182c0.588,2.901,1.113,5.42,1.746,7.823c0.57,2.104,2.811,9.764,4.648,8.627
			c2.266-1.484,4.635-8.25,4.271-7.25c0.491-1.346,1.981-2.04,3.327-1.549c1.346,0.491,2.04,1.981,1.549,3.327
			C201.765,209.033,198.769,215.476,194.993,217.329z"/>
		<path class="st21" d="M194.264,211.658c0.594-0.869,1.145-1.778,1.653-2.709c0.504-0.909,1.017-1.919,1.376-2.779l0.018-0.043
			c0.029-0.069,0.061-0.137,0.096-0.204c0.668-1.268,2.237-1.756,3.506-1.088c1.269,0.668,1.756,2.237,1.088,3.506
			c-0.626,1.19-1.233,2.163-1.925,3.187c-0.469,0.676-1.074,1.767-1.588,2.412C195.354,213.796,194.26,211.664,194.264,211.658z"/>
		<path class="st14" d="M196.894,230.107c0.055,0.519,0.414,0.942,0.909,1.106c3.176,1.054,7.987,1.621,13.188,2.072
			c0.75,0.065,1.41-0.512,1.424-1.264c0.04-2.105-0.853-6.023-1.113-9.986c-0.325-4.928-0.527-10.308-0.637-13.783
			c-0.065-2.074-1.766-3.715-3.841-3.715h-5.798c-1.956,0-3.585,1.494-3.745,3.444c-0.222,2.695-0.547,6.623-0.868,10.483
			C196.109,222.129,196.667,227.977,196.894,230.107z"/>
		<path class="st12" d="M204.313,273.01l-0.019,5.127l0.445,2.497c0.077,0.432-0.243,0.832-0.682,0.846
			c-2.099,0.064-7.473,0.206-7.617-0.027c-0.676-1.093,2.379-1.514,4.614-2.379c2.235-0.865,0.693-9.35,0.693-9.35L204.313,273.01z"
			/>
		<path class="st22" d="M201.053,279.074c0.012-0.005,0.022-0.013,0.034-0.018c0.532,0.199,1.132,0.316,1.807,0.316
			c0.579,0,1.104-0.084,1.578-0.232l0.266,1.494c0.077,0.432-0.243,0.832-0.682,0.846c-2.099,0.064-7.473,0.206-7.617-0.027
			C195.764,280.36,198.819,279.939,201.053,279.074z"/>
		<path class="st23" d="M196.796,231.573c-0.081,3.564,1.321,26.172,4.089,26.235c2.769,0.063,5.855-22.444,5.936-26.008
			c0.081-3.563-2.098-6.503-4.867-6.566C199.187,225.172,196.877,228.01,196.796,231.573z"/>
		<path class="st24" d="M204.709,253.112c0.275,1.962,0.319,14.53-0.122,20.915h-2.52c-1.353-6.194-2.8-18.197-3.069-20.115
			c-0.003-0.024-0.005-0.048-0.008-0.073c-1.506-6.663-2.254-19.638-2.194-22.266c0.081-3.564,2.391-6.401,5.159-6.339
			c2.769,0.063,4.947,3.003,4.866,6.566C206.771,234.038,204.579,252.183,204.709,253.112z"/>
		<path class="st25" d="M203.287,244.881c0.617,1.494,1.18,3.013,1.718,4.549c0.576-5.664,1.779-15.978,1.816-17.629
			c0.081-3.564-2.098-6.503-4.866-6.566c-2.769-0.063-5.078,2.775-5.159,6.339c-0.011,0.48,0.006,1.31,0.048,2.381
			C200.381,236.54,202.924,240.474,203.287,244.881z"/>
		<path class="st12" d="M210.361,273.01l-0.019,5.127l0.445,2.497c0.077,0.432-0.243,0.832-0.682,0.846
			c-2.099,0.064-7.473,0.206-7.617-0.027c-0.676-1.093,2.379-1.514,4.614-2.379c2.235-0.865,0.693-9.35,0.693-9.35L210.361,273.01z"
			/>
		<path class="st26" d="M207.102,279.074c0.012-0.005,0.022-0.013,0.034-0.018c0.532,0.199,1.132,0.316,1.807,0.316
			c0.579,0,1.104-0.084,1.578-0.232l0.266,1.494c0.077,0.432-0.243,0.832-0.682,0.846c-2.099,0.064-7.473,0.206-7.617-0.027
			C201.813,280.36,204.868,279.939,207.102,279.074z"/>
		<path class="st23" d="M202.845,231.573c-0.081,3.564,1.321,26.172,4.089,26.235c2.769,0.063,5.257-22.527,5.338-26.091
			c0.081-3.564-1.499-6.42-4.268-6.483C205.235,225.172,202.926,228.01,202.845,231.573z"/>
		<path class="st23" d="M210.758,253.112c0.275,1.962,0.319,14.53-0.122,20.915h-2.52c-1.353-6.194-2.8-18.197-3.069-20.115
			c-0.003-0.024-0.005-0.048-0.008-0.073c-1.506-6.663-2.852-19.721-2.793-22.349c0.081-3.563,2.989-6.318,5.758-6.256
			c2.769,0.063,4.349,2.92,4.268,6.483C212.221,233.955,210.628,252.183,210.758,253.112z"/>
		<path class="st27" d="M197.387,206.703c0.101-1.227,1.126-2.167,2.357-2.167h1.344c0.468,1.084,1.458,1.921,2.995,1.921
			c1.539,0,2.529-0.837,2.996-1.921h1.227c1.254,0,2.281,0.992,2.317,2.245c0.094,3.267,0.19,8.22,0.564,13.912
			c0.339,5.151,1.777,7.508,1.066,12.75c0,0-13.512,1.036-15.771-1.555c-0.25-2.688-0.446-8.878-0.068-13.425
			C196.79,213.938,197.171,209.321,197.387,206.703z"/>
		<path class="st12" d="M184.523,195.307c0,0,0.052,2.549,0.664,2.887c0.613,0.338,1.009,0.192,1.495-0.562
			c0.552-0.857,0.693-2.353,0.715-3.258c0.013-0.511-0.675-2.492-0.85-2.611c-0.636-0.433-0.286,1.404-0.249,2.202
			c0.037,0.798-0.211,1.228-0.6,1.137s-0.328-1.345-0.739-1.596C184.548,193.255,184.523,195.307,184.523,195.307z"/>
		<path class="st14" d="M211.115,208.753c-7.262,9.899-20.776,15.71-30.96,6.077c-0.639-0.604,0.128-1.622,0.883-1.185l0.034,0.02
			c4.688,2.706,9.001,3.883,14.386,1.621c4.501-1.94,8.551-5.743,11.449-9.562l0.053-0.07
			C209.014,202.949,213.125,206.01,211.115,208.753z"/>
		<g>
			<path class="st21" d="M203.12,209.845c1.742-1.563,3.956-4.643,3.956-4.643s1.05-1.241,3.21-0.336
				c1.725,0.723,1.376,2.761,1.376,2.761c-0.042,0.284-0.618,3.646-4.585,6.62C207.077,214.247,203.913,212.78,203.12,209.845z"/>
		</g>
		<path class="st20" d="M204.439,201.525l0.155,0.035c1.181,0.263,2.351-0.482,2.614-1.663l0.703-3.16l-2.293-0.51L204.439,201.525z
			"/>
		<g>
			<polygon class="st14" points="202.391,204.536 206.716,204.536 205.469,200.223 202.52,200.588 			"/>
		</g>
		<path class="st12" d="M202.52,200.588l2.948-0.365l0.581,2.01c-0.66,0.744-1.639,1.899-2.712,1.899
			c-0.34,0-0.65-0.096-0.929-0.273L202.52,200.588z"/>
		<path class="st14" d="M202.074,202.88L202.074,202.88c1.942,0.432,3.866-0.792,4.298-2.734l0.871-3.917l-6.031-1.341
			c0,0-0.68,3.058-0.699,5.219C200.498,201.729,201.084,202.66,202.074,202.88z"/>
		<path class="st14" d="M205.514,199.178c-0.17,0.764,0.058,1.465,0.509,1.566c0.451,0.1,1.172-0.791,1.342-1.555
			c0.17-0.764-0.275-1.112-0.726-1.213C206.188,197.875,205.684,198.414,205.514,199.178z"/>
		<path class="st20" d="M200.436,196.406c-0.033-0.519,0.052-1.039,0.247-1.521l0,0c0.485-1.196,1.824-1.711,3.044-1.287
			c0.125,0.043,0.256,0.081,0.396,0.112l2.036,0.452c1.223,0.272,1.995,1.484,1.723,2.707l-0.106,0.475l-0.877,0.717l-0.822,0.84
			l-0.08-0.018c-0.388-0.086-0.639-0.459-0.578-0.847c0.1-0.639-0.218-1.264-0.85-1.405l-1.807-0.402
			c-1.1-0.245-1.803,0.219-1.985,1.041l-0.099,0.708L200.436,196.406z"/>
		<path class="st14" d="M179.497,212.549c0,0,0.151,2.171,0.829,2.344c0.678,0.174,1.165,0.166,1.454-0.811s0.221-2.456,0.003-3.334
			c-0.218-0.878-1.206-2.196-1.405-2.267c-0.724-0.259-0.161,1.29,0.075,2.054s0.427,1.65,0.027,1.659
			c-0.4,0.01-0.742-1.487-1.203-1.627C178.815,210.426,179.497,212.549,179.497,212.549z"/>
		<g>
			<line class="st28" x1="206.204" y1="219.65" x2="222.921" y2="311.504"/>
			<line class="st28" x1="198.175" y1="311.504" x2="181.458" y2="219.65"/>
			<line class="st28" x1="183.43" y1="227.026" x2="207.618" y2="227.026"/>
			<line class="st28" x1="185.038" y1="238.107" x2="209.564" y2="238.107"/>
			<line class="st28" x1="187.273" y1="249.188" x2="211.58" y2="249.188"/>
			<line class="st28" x1="189.435" y1="260.268" x2="213.597" y2="260.268"/>
			<line class="st28" x1="191.172" y1="271.349" x2="215.613" y2="271.349"/>
			<line class="st28" x1="192.813" y1="282.232" x2="217.594" y2="282.232"/>
			<line class="st28" x1="195.245" y1="293.51" x2="219.646" y2="293.51"/>
			<line class="st28" x1="196.917" y1="304.591" x2="221.385" y2="304.591"/>
		</g>
		<g>
			<line class="st29" x1="181.458" y1="219.65" x2="164.742" y2="311.504"/>
			<line class="st29" x1="189.488" y1="311.504" x2="206.204" y2="219.65"/>
			<line class="st29" x1="204.233" y1="227.026" x2="180.116" y2="227.026"/>
			<line class="st29" x1="202.625" y1="238.107" x2="178.099" y2="238.107"/>
			<line class="st29" x1="200.39" y1="249.188" x2="176.083" y2="249.188"/>
			<line class="st29" x1="198.228" y1="260.268" x2="174.066" y2="260.268"/>
			<line class="st29" x1="196.491" y1="271.349" x2="172.05" y2="271.349"/>
			<line class="st29" x1="194.85" y1="282.232" x2="170.069" y2="282.232"/>
			<line class="st29" x1="192.418" y1="293.51" x2="168.017" y2="293.51"/>
			<line class="st29" x1="190.746" y1="304.591" x2="166.278" y2="304.591"/>
		</g>
		<path class="st20" d="M206.527,194.978c0.138,1.117-3.878,2.533-4.937,2.664c-1.059,0.131-2.03-0.669-2.168-1.786
			c-0.138-1.117,0.609-2.129,1.668-2.26C202.149,193.464,206.389,193.86,206.527,194.978z"/>
	</g>
	<rect x="197.017" y="141.85" class="st9" width="82.667" height="35.861"/>
	<path class="st4" d="M276.702,143.447l-74.595,15.014c-1.78,0.358-3.514-0.794-3.872-2.575l-5.779-28.709
		c-0.358-1.78,0.794-3.514,2.574-3.872l74.595-15.014c1.78-0.358,3.514,0.794,3.872,2.575l5.779,28.709
		C279.635,141.355,278.482,143.088,276.702,143.447z"/>
	<path class="st5" d="M277.069,139.773l-74.595,15.014c-1.78,0.358-3.514-0.794-3.872-2.574l-5.779-28.709
		c-0.358-1.78,0.794-3.514,2.574-3.872l74.595-15.014c1.78-0.358,3.514,0.794,3.872,2.575l5.779,28.709
		C280.001,137.681,278.849,139.415,277.069,139.773z"/>
	<polyline class="st30" points="194.253,134.383 204.233,118.253 206.05,10.355 263.291,105.966 275.466,115.146 	"/>
	<g>
		<path class="st31" d="M119.533,55.488c1.918,1.938,16.536,17.468,15.745,17.957c-0.686,0.424-17.925-11.961-19.844-13.9
			c-1.919-1.938-2.556-4.417-1.425-5.538C115.142,52.887,117.615,53.55,119.533,55.488z"/>
		<path class="st14" d="M140.014,75.607c-1.854-0.861-5.413-4.33-8.905-7.504l-0.872,2.344l5.612,5.175
			C137.091,76.146,139.075,76.217,140.014,75.607z"/>
		<path class="st26" d="M139.685,75.385c-1.266,0.449-2.816,0.455-3.929,0.174c0.021,0.407,0.032,1.498,0.045,1.883
			c0.01,0.272,0.216,0.494,0.486,0.527c0,0,8.632,0.056,8.618-0.254C144.806,75.524,140.299,75.741,139.685,75.385z"/>
		<path class="st14" d="M150.655,75.607c-1.854-0.861-5.413-4.33-8.906-7.504l-0.872,2.344l5.612,5.175
			C147.732,76.146,149.716,76.217,150.655,75.607z"/>
		<path class="st26" d="M150.326,75.385c-1.266,0.449-2.816,0.455-3.929,0.174c0.021,0.407,0.032,1.498,0.045,1.883
			c0.009,0.272,0.216,0.494,0.486,0.527c0,0,8.632,0.056,8.618-0.254C155.447,75.524,150.94,75.741,150.326,75.385z"/>
		<path class="st24" d="M125.994,59.448c1.186,1.198,11.885,9.578,17.25,13.267c0.749-0.547,1.215-0.993,1.762-1.742
			c-3.743-4.229-11.756-13.794-13.658-15.773c-2.129-3.065-17.753-11.637-20.856-12.773c-3.347-1.225-6.832-0.11-7.784,2.49
			c-0.952,2.6,0.751,6.146,4.098,7.371C108.971,53.081,125.193,58.638,125.994,59.448z"/>
		<path class="st25" d="M111.934,43.107c-0.561-0.263-1.023-0.464-1.344-0.582c-3.347-1.225-6.832-0.111-7.784,2.49
			c-0.952,2.6,0.751,6.146,4.098,7.371c1.087,0.398,5.713,1.995,10.155,3.591C114.376,52.194,112.507,47.907,111.934,43.107z"/>
		<path class="st23" d="M120.789,55.298c-1.343-1.934-8.054-6.057-13.606-9.124c-0.784-0.433-1.736-0.358-2.466,0.161
			c-1.648,1.174-3.377,2.243-5.095,3.32c-0.72,0.452-1.128,1.268-1.051,2.114c0.019,0.214,0.034,0.429,0.044,0.645
			c0.012,0.271-0.201,0.192-0.205,0.46c5.136,1.802,16.368,6.006,17.026,6.671c1.186,1.198,11.975,9.74,17.341,13.429
			c1.111-0.392,1.696-0.945,2.288-1.602C131.321,67.144,122.691,57.276,120.789,55.298z"/>
		<path class="st12" d="M98.027,22.004c6.455,5.984,20.218,6.635,28.998,6.305c0.997-0.038,1.087,1.3,0.215,1.467
			c-10.322,1.98-24.11,2.5-32.532-3.786c-2.749-2.052,0.354-6.217,3.107-4.163C97.889,21.883,97.961,21.943,98.027,22.004z"/>
		<path class="st32" d="M103.261,24.763c-0.945-0.465-4.622-2.283-5.358-2.854l-0.037-0.029c-0.059-0.045-0.12-0.089-0.184-0.13
			c-1.205-0.776-2.812-0.428-3.588,0.778c-0.776,1.205-0.427,2.812,0.778,3.588c1.131,0.728,2.137,1.276,3.244,1.827
			c0.74,0.358,1.497,0.683,2.262,0.993C100.511,28.392,103.267,24.767,103.261,24.763z"/>
		<path class="st14" d="M109.902,42.688L98.409,52.875c-1.387-0.499-2.659-5.609-4.899-10.261
			c-2.421-5.03-5.262-10.486-6.812-13.426c-0.64-1.213-0.198-2.712,0.996-3.387l7.202-4.07c1.11-0.627,2.513-0.303,3.229,0.752
			c1.483,2.183,3.556,7.254,6.085,10.972C106.777,37.229,109.902,42.688,109.902,42.688z"/>
		<path class="st33" d="M94.965,21.693l-1.17,0.661c0.126,1.174-0.325,2.389-1.662,3.146c-1.34,0.757-2.614,0.515-3.553-0.198
			l-1.068,0.604c-1.092,0.617-1.498,1.985-0.912,3.095c1.525,2.89,4.438,8.475,6.912,13.614c2.239,4.652,3.37,9.511,4.899,10.261
			c5.121-3.53,11.646-7.157,12.251-10.377c0,0-7.967-11.761-12.578-20.078C97.486,21.344,96.036,21.087,94.965,21.693z"/>
		<path class="st12" d="M129.216,29.812c0,0-1.982,0.9-2.457,0.386c-0.475-0.514-0.7-0.946,0.022-1.665
			c0.722-0.719,2.055-1.363,2.932-1.588c0.877-0.226,2.505,0.017,2.663,0.158c0.572,0.514-1.058,0.755-1.842,0.911
			c-0.784,0.156-1.654,0.409-1.472,0.765c0.182,0.356,1.661-0.055,2.004,0.284C131.407,29.403,129.216,29.812,129.216,29.812z"/>
		<path class="st34" d="M89.738,20.757l-0.156,0.03c-1.189,0.225-2.335-0.556-2.56-1.745l-0.602-3.181l2.308-0.437L89.738,20.757z"
			/>
		<g>
			<polygon class="st14" points="93.377,23.916 89.732,25.428 89.354,24.985 89.551,20.251 92.516,20.061 			"/>
		</g>
		<path class="st12" d="M92.516,20.061l-2.965,0.19l-0.079,1.901c0.787,0.608,1.7,1.262,2.754,1.063
			c0.334-0.063,0.65-0.252,0.891-0.478L92.516,20.061z"/>
		<path class="st14" d="M92.059,22.186L92.059,22.186c-1.955,0.37-3.839-0.915-4.209-2.869l-0.746-3.943l6.07-1.149
			c0,0,0.583,3.078,0.534,5.239C93.67,21.085,93.055,21.998,92.059,22.186z"/>
		
			<rect x="87.104" y="16.835" transform="matrix(0.9825 -0.186 0.186 0.9825 -1.6502 16.6097)" class="st34" width="1.161" height="0.527"/>
		<path class="st14" d="M88.738,18.376c0.146,0.769-0.105,1.463-0.559,1.549c-0.454,0.086-1.146-0.828-1.292-1.597
			c-0.146-0.769,0.31-1.103,0.764-1.189C88.106,17.053,88.592,17.607,88.738,18.376z"/>
		<path class="st34" d="M93.902,15.767c0.049-0.518-0.019-1.04-0.199-1.528c0,0-0.309-1.765-1.063-1.969
			c-0.687-0.186-1.683,0.408-2.338,0.686c-0.48,0.204-2.049,0.387-2.049,0.387c-1.231,0.233-2.041,1.419-1.808,2.651l0.09,0.478
			l1.184,0.738l0.464,0.872l0.08-0.015c0.391-0.074,0.653-0.439,0.605-0.828c-0.08-0.642,0.258-1.257,0.894-1.377l1.818-0.344
			c1.107-0.21,1.795,0.276,1.951,1.104l0.076,0.711L93.902,15.767z"/>
		<line class="st35" x1="193.561" y1="1.55" x2="104.029" y2="39.885"/>
		<path class="st14" d="M96.08,31.927c3.2,1.835,6.221,2.382,9.472,2.712c5.607,0.678,15.551-2.739,14.551-2.436
			c0.854-0.259,1.348,0.948,0.563,1.364c-4.416,2.348-10.445,4.808-15.103,4.843l-2.365,0.043
			c-7.755-0.287-14.25-4.292-17.112-8.385c-0.819-1.172-0.533-2.785,0.638-3.604C89.631,24.433,90.366,28.675,96.08,31.927z"/>
		<g>
			<path class="st32" d="M93.964,30.357c-2.188-1.752-3.644-3.424-3.671-3.455l0.049,0.061l-1.433-1.082c0,0-1.524-0.564-2.96,1.287
				c-1.147,1.478,0.161,3.081,0.161,3.081c0.176,0.226,0.961,2.25,5.168,4.626C91.277,34.874,94.271,30.602,93.964,30.357z"/>
		</g>
		<path class="st14" d="M121.769,31.374c0,0-2.132,0.439-2.213,1.134c-0.082,0.695-0.009,1.176,0.998,1.333
			c1.007,0.157,2.463-0.108,3.305-0.441s2.016-1.488,2.06-1.694c0.161-0.752-1.3,0.012-2.026,0.348
			c-0.726,0.335-1.578,0.642-1.641,0.248c-0.063-0.395,1.375-0.933,1.453-1.409C123.782,30.415,121.769,31.374,121.769,31.374z"/>
	</g>
	<path class="st36" d="M276.101,192.652c0,1.462-1.185,2.647-2.647,2.647c-1.462,0-2.647-1.185-2.647-2.647s1.185-2.647,2.647-2.647
		C274.916,190.005,276.101,191.19,276.101,192.652z"/>
	<path class="st36" d="M276.101,210.736c0,1.462-1.185,2.647-2.647,2.647c-1.462,0-2.647-1.185-2.647-2.647s1.185-2.647,2.647-2.647
		C274.916,208.089,276.101,209.274,276.101,210.736z"/>
	<circle class="st37" cx="196.695" cy="10.355" r="9.355"/>
	<circle class="st37" cx="196.695" cy="10.355" r="3.852"/>
</g>
</svg>