<!-- Generator: Adobe Illustrator 22.0.0, SVG Export Plug-In  -->
<svg version="1.1"
	 xmlns="http://www.w3.org/2000/svg" xmlns:xlink="http://www.w3.org/1999/xlink" xmlns:a="http://ns.adobe.com/AdobeSVGViewerExtensions/3.0/"
	 x="0px" y="0px" width="135.502px" height="77.553px" viewBox="0 0 135.502 77.553"
	 style="enable-background:new 0 0 135.502 77.553;" xml:space="preserve">
<style type="text/css">
	.st0{fill:#9ED7F2;}
	.st1{fill:#FFFFFF;}
	.st2{fill:#E7F6FD;}
	.st3{fill:#D6E8F2;}
</style>
<defs>
</defs>
<g>
	<path class="st0" d="M132.003,41.118c0.386-5.833-3.612-10.931-9.169-12.108c0.558-1.47,0.914-3.045,1.023-4.696
		c0.592-8.944-6.178-16.674-15.122-17.266c-8.01-0.53-15.031,4.852-16.837,12.406c-2.944-4.305-7.751-7.272-13.358-7.643
		c-2.014-0.133-3.964,0.095-5.807,0.6C71.109,5.696,65.285,0.516,58.028,0.036c-6.983-0.462-13.209,3.574-15.893,9.618
		c-1.848-1.611-4.211-2.662-6.847-2.836C29.08,6.407,23.704,10.96,23.004,17.076c-3.104,2.424-5.675,5.513-7.45,9.097
		c-6.582,0.202-12.059,5.373-12.503,12.08c-0.472,7.133,4.927,13.298,12.06,13.77c0.61,0.04,1.209,0.023,1.801-0.02
		c3.387,5.357,8.639,9.444,14.93,11.276c0.914,7.599,7.117,13.716,15.031,14.24c6.567,0.435,12.468-3.108,15.381-8.558
		c0.474,0.074,0.952,0.136,1.439,0.169c4.3,0.285,8.31-1.145,11.39-3.687c2.348,2.53,5.506,4.346,9.173,4.965
		c4.942,0.835,9.737-0.662,13.267-3.687c2.106,1.235,4.515,2.025,7.116,2.198c8.944,0.592,16.674-6.179,17.266-15.122
		c0.043-0.652,0.036-1.295,0.003-1.932C127.303,51.17,131.631,46.748,132.003,41.118z"/>
	<path class="st0" d="M132.003,41.118c0.386-5.833-3.612-10.931-9.169-12.108c0.558-1.47,0.914-3.045,1.023-4.696
		c0.592-8.944-6.178-16.674-15.122-17.266c-8.01-0.53-15.031,4.852-16.837,12.406c-2.944-4.305-7.751-7.272-13.358-7.643
		c-2.014-0.133-3.964,0.095-5.807,0.6C71.109,5.696,65.285,0.516,58.028,0.036c-6.983-0.462-13.209,3.574-15.893,9.618
		c-1.848-1.611-4.211-2.662-6.847-2.836C29.08,6.407,23.704,10.96,23.004,17.076c-3.104,2.424-5.675,5.513-7.45,9.097
		c-6.582,0.202-12.059,5.373-12.503,12.08c-0.472,7.133,4.927,13.298,12.06,13.77c0.61,0.04,1.209,0.023,1.801-0.02
		c3.387,5.357,8.639,9.444,14.93,11.276c0.914,7.599,7.117,13.716,15.031,14.24c6.567,0.435,12.468-3.108,15.381-8.558
		c0.474,0.074,0.952,0.136,1.439,0.169c4.3,0.285,8.31-1.145,11.39-3.687c2.348,2.53,5.506,4.346,9.173,4.965
		c4.942,0.835,9.737-0.662,13.267-3.687c2.106,1.235,4.515,2.025,7.116,2.198c8.944,0.592,16.674-6.179,17.266-15.122
		c0.043-0.652,0.036-1.295,0.003-1.932C127.303,51.17,131.631,46.748,132.003,41.118z"/>
	<path class="st1" d="M131.053,45.01c0.526-1.2,0.859-2.508,0.95-3.891c0.386-5.833-3.612-10.931-9.169-12.108
		c0.559-1.47,0.914-3.045,1.023-4.696c0.592-8.944-6.178-16.674-15.122-17.266c-8.01-0.53-15.03,4.852-16.837,12.406
		c-2.944-4.305-7.751-7.272-13.358-7.643c-2.014-0.133-3.964,0.095-5.807,0.6C71.109,5.696,65.285,0.516,58.028,0.036
		c-6.983-0.462-13.21,3.574-15.893,9.618c-1.848-1.611-4.211-2.662-6.847-2.836C29.08,6.407,23.704,10.96,23.004,17.076
		c-3.104,2.424-5.675,5.513-7.45,9.097c-6.012,0.184-11.09,4.521-12.264,10.38L131.053,45.01z"/>
	<path class="st2" d="M126.847,31.123c-1.206-0.08-2.37,0.082-3.454,0.432c-1.271-6.207-6.541-11.06-13.169-11.499
		c-3.985-0.264-7.698,1.117-10.478,3.561c-1.97-1.249-4.271-2.037-6.762-2.202c-4.339-0.287-8.348,1.384-11.189,4.246
		c-1.442-3.447-4.727-5.972-8.709-6.235c-5.607-0.371-10.453,3.873-10.824,9.48c-0.039,0.595-0.016,1.179,0.045,1.753
		c-1.775-2.071-4.347-3.456-7.284-3.651c-2.607-0.173-5.051,0.627-6.99,2.08c-1.953-2.559-4.951-4.299-8.416-4.529
		c-1.253-0.083-2.469,0.044-3.623,0.338c-1.937-2.791-5.075-4.711-8.729-4.953c-6.054-0.401-11.318,3.94-12.185,9.84
		c-7.822-0.356-14.53,5.599-15.05,13.449c-0.526,7.951,5.493,14.824,13.444,15.35c0.508,0.034,1.012,0.039,1.51,0.02
		c2.039,4.903,6.704,8.497,12.362,8.872c3.775,0.25,7.296-0.988,10.021-3.195c1.377,0.717,2.917,1.172,4.566,1.281
		c6.277,0.415,11.704-4.265,12.262-10.498c1.394,1.804,3.519,3.03,5.973,3.193c4.541,0.301,8.466-3.137,8.767-7.678
		c0.019-0.291,0.022-0.579,0.011-0.864c0.036-0.035,0.072-0.068,0.107-0.103c1.778,2.119,4.377,3.543,7.355,3.741
		c3.839,0.254,7.324-1.593,9.356-4.549c0.338,0.163,0.679,0.32,1.032,0.457c1.285,3.977,4.881,6.969,9.305,7.262
		c5.117,0.339,9.614-3.044,10.862-7.83c0.445,0.071,0.895,0.128,1.354,0.159c3.863,0.256,7.464-1.042,10.213-3.347
		c1.544,2.314,4.101,3.915,7.091,4.113c5.107,0.338,9.52-3.528,9.858-8.634C135.819,35.875,131.954,31.461,126.847,31.123z"/>
	<path class="st3" d="M87.638,37.193c0.059,0.792-0.172,1.586-0.599,2.324c-0.455,0.73-1.141,1.393-1.996,1.939
		c-1.711,1.101-4.181,1.64-6.614,1.48c-2.433-0.161-4.811-1.021-6.363-2.338c-0.776-0.655-1.367-1.402-1.723-2.186
		c-0.326-0.788-0.45-1.606-0.286-2.383c0.101,1.578,1.029,3.106,2.58,4.233c1.549,1.125,3.659,1.856,5.837,1.99
		c2.176,0.155,4.365-0.292,6.049-1.202C86.21,40.137,87.332,38.744,87.638,37.193z"/>
	<path class="st3" d="M44.393,47.09c0.062,0.961-0.203,1.925-0.689,2.824c-0.518,0.889-1.294,1.697-2.262,2.365
		c-1.936,1.346-4.725,2.014-7.468,1.833c-2.743-0.181-5.42-1.211-7.162-2.801c-0.871-0.79-1.533-1.694-1.93-2.643
		c-0.363-0.955-0.499-1.946-0.309-2.89c0.104,1.915,1.142,3.764,2.886,5.122c1.74,1.356,4.116,2.232,6.571,2.382
		c2.454,0.176,4.924-0.379,6.829-1.493C42.766,50.671,44.039,48.974,44.393,47.09z"/>
	<path class="st3" d="M116.436,35.647c0.031,0.859-0.167,1.725-0.519,2.535c-0.374,0.802-0.929,1.535-1.616,2.145
		c-1.375,1.229-3.338,1.863-5.259,1.736c-1.921-0.127-3.784-1.014-4.985-2.413c-0.601-0.696-1.053-1.495-1.319-2.34
		c-0.242-0.85-0.324-1.734-0.18-2.582c0.049,1.711,0.753,3.352,1.957,4.545c1.203,1.191,2.857,1.943,4.576,2.046
		c1.718,0.126,3.457-0.402,4.807-1.424C115.249,38.871,116.164,37.337,116.436,35.647z"/>
</g>
</svg>